M48
;DRILL file {KiCad 0.201602221446+6578~42~ubuntu15.04.1-product} date Mon 22 Feb 2016 07:23:50 PM EST
;FORMAT={3:3/ absolute / metric / keep zeros}
FMAT,2
METRIC,TZ
T1C0.400
T2C1.016
T3C3.000
%
G90
G05
M71
T1
X107200Y-061400
X112400Y-050200
X112400Y-061000
X113025Y-055800
X113027Y-062600
X118400Y-049200
X118800Y-046400
X118800Y-062600
X118975Y-056000
X120000Y-052200
X120800Y-046400
X121200Y-052200
X123000Y-057950
X123000Y-055552
X123200Y-062600
X125016Y-053800
X126600Y-059700
X127000Y-044800
X127800Y-056800
X128000Y-062400
X128543Y-054102
X128800Y-062400
X129000Y-056400
X131728Y-052360
X132200Y-058600
X133200Y-061600
X134497Y-053975
X136000Y-061600
X139000Y-061600
X140445Y-053959
X141200Y-050755
X141800Y-061600
X143358Y-048749
X144293Y-053392
X145157Y-053362
X146121Y-053397
X150800Y-062200
X152400Y-050800
X153400Y-050800
X154400Y-050800
X159200Y-056400
X159200Y-057400
X159200Y-059200
X159200Y-060200
X159850Y-058275
X160400Y-056400
X160400Y-057400
X160400Y-059200
X160400Y-060200
T2
X103400Y-049260
X103400Y-051800
X103400Y-054340
X103400Y-056880
X103400Y-059420
X103400Y-061960
X109800Y-049260
X109800Y-051800
X109800Y-054340
X109800Y-056880
X109800Y-059420
X109800Y-061960
X123200Y-049200
X125740Y-049200
X128280Y-049200
X130820Y-049200
X133360Y-049200
X135900Y-049200
X138440Y-049200
X140980Y-049200
X146000Y-049200
X148540Y-049200
X163860Y-049200
X166400Y-049200
X166400Y-055860
X166400Y-058400
X166400Y-060940
T3
X097400Y-046400
X097400Y-064600
X171600Y-046400
X171600Y-064600
T0
M30
