G04 #@! TF.FileFunction,Copper,L2,Bot,Signal*
%FSLAX46Y46*%
G04 Gerber Fmt 4.6, Leading zero omitted, Abs format (unit mm)*
G04 Created by KiCad (PCBNEW 0.201602221446+6578~42~ubuntu15.04.1-product) date Mon 22 Feb 2016 07:23:46 PM EST*
%MOMM*%
G01*
G04 APERTURE LIST*
%ADD10C,0.100000*%
%ADD11R,1.250000X1.500000*%
%ADD12R,2.032000X1.727200*%
%ADD13O,2.032000X1.727200*%
%ADD14R,2.032000X2.032000*%
%ADD15O,2.032000X2.032000*%
%ADD16R,1.727200X2.032000*%
%ADD17O,1.727200X2.032000*%
%ADD18R,1.500000X1.300000*%
%ADD19R,1.300000X1.500000*%
%ADD20C,0.600000*%
%ADD21C,0.250000*%
%ADD22C,0.254000*%
G04 APERTURE END LIST*
D10*
X94000000Y-68000000D02*
X94000000Y-43000000D01*
X175000000Y-68000000D02*
X94000000Y-68000000D01*
X175000000Y-43000000D02*
X175000000Y-68000000D01*
X94000000Y-43000000D02*
X175000000Y-43000000D01*
D11*
X124200000Y-58050000D03*
X124200000Y-55550000D03*
X127800000Y-58050000D03*
X127800000Y-55550000D03*
X106600000Y-51850000D03*
X106600000Y-49350000D03*
D12*
X109800000Y-49260000D03*
D13*
X109800000Y-51800000D03*
X109800000Y-54340000D03*
X109800000Y-56880000D03*
X109800000Y-59420000D03*
X109800000Y-61960000D03*
D14*
X163860000Y-49200000D03*
D15*
X166400000Y-49200000D03*
D12*
X166400000Y-60940000D03*
D13*
X166400000Y-58400000D03*
X166400000Y-55860000D03*
D16*
X123200000Y-49200000D03*
D17*
X125740000Y-49200000D03*
X128280000Y-49200000D03*
X130820000Y-49200000D03*
X133360000Y-49200000D03*
X135900000Y-49200000D03*
X138440000Y-49200000D03*
X140980000Y-49200000D03*
D12*
X103400000Y-49260000D03*
D13*
X103400000Y-51800000D03*
X103400000Y-54340000D03*
X103400000Y-56880000D03*
X103400000Y-59420000D03*
X103400000Y-61960000D03*
D14*
X146000000Y-49200000D03*
D15*
X148540000Y-49200000D03*
D18*
X114250000Y-49200000D03*
X116950000Y-49200000D03*
D19*
X134487437Y-55624953D03*
X134487437Y-58324953D03*
X140487437Y-55624953D03*
X140487437Y-58324953D03*
D18*
X114450000Y-62600000D03*
X117150000Y-62600000D03*
D20*
X132200000Y-58600000D03*
X118800000Y-46400000D03*
X123000000Y-57950000D03*
X112400000Y-50200000D03*
X160400000Y-59200000D03*
X160400000Y-60200000D03*
X159200000Y-60200000D03*
X159200000Y-59200000D03*
X159200000Y-57400000D03*
X160400000Y-57400000D03*
X160400000Y-56400000D03*
X159200000Y-56400000D03*
X159850000Y-58275000D03*
X144292999Y-53391693D03*
X150800000Y-62199980D03*
X145156621Y-53362326D03*
X146120822Y-53396587D03*
X152400000Y-50800000D03*
X154400000Y-50800000D03*
X153400000Y-50800000D03*
X141800000Y-61600000D03*
X139000000Y-61600000D03*
X136000000Y-61600000D03*
X133200000Y-61600000D03*
X129000000Y-56400000D03*
X123000217Y-55552457D03*
X113025010Y-55800000D03*
X118974990Y-56000000D03*
X113026930Y-62600000D03*
X127800000Y-56800000D03*
X128543002Y-54101558D03*
X134497002Y-53975241D03*
X118400000Y-49200000D03*
X118800000Y-62600000D03*
X143358313Y-48749038D03*
X127000000Y-44800000D03*
X120800000Y-46400000D03*
X120000000Y-52200000D03*
X125016375Y-53800012D03*
X131728189Y-52360044D03*
X140445079Y-53959187D03*
X123200000Y-62600000D03*
X112400000Y-61000000D03*
X128000000Y-62400000D03*
X107200000Y-61400000D03*
X128800000Y-62400000D03*
X126600000Y-59699998D03*
X141200000Y-50755433D03*
X121200000Y-52200000D03*
D21*
X143400000Y-56312390D02*
X143400000Y-53066000D01*
X143400000Y-53066000D02*
X146000000Y-50466000D01*
X146000000Y-50466000D02*
X146000000Y-49200000D01*
X140487437Y-58324953D02*
X141387437Y-58324953D01*
X141387437Y-58324953D02*
X143400000Y-56312390D01*
X134487437Y-58324953D02*
X135387437Y-58324953D01*
X135387437Y-58324953D02*
X140487437Y-58324953D01*
X132200000Y-58600000D02*
X134212390Y-58600000D01*
X134212390Y-58600000D02*
X134487437Y-58324953D01*
X114250000Y-49200000D02*
X114350000Y-49200000D01*
X114350000Y-49200000D02*
X117150000Y-46400000D01*
X117150000Y-46400000D02*
X118800000Y-46400000D01*
X103400000Y-56880000D02*
X104666000Y-56880000D01*
X104666000Y-56880000D02*
X105000000Y-56546000D01*
X105000000Y-56546000D02*
X105000000Y-51489998D01*
X105000000Y-51489998D02*
X105878448Y-50611550D01*
X105878448Y-50611550D02*
X107182450Y-50611550D01*
X107182450Y-50611550D02*
X108534000Y-49260000D01*
X108534000Y-49260000D02*
X109800000Y-49260000D01*
X123000000Y-57950000D02*
X124100000Y-57950000D01*
X124100000Y-57950000D02*
X124200000Y-58050000D01*
X114250000Y-49200000D02*
X109860000Y-49200000D01*
X109860000Y-49200000D02*
X109800000Y-49260000D01*
X129000000Y-56400000D02*
X128650000Y-56400000D01*
X128650000Y-56400000D02*
X127800000Y-55550000D01*
X124000000Y-55550000D02*
X123002674Y-55550000D01*
X123002674Y-55550000D02*
X123000217Y-55552457D01*
X127800000Y-58050000D02*
X127800000Y-56800000D01*
X134497002Y-53975241D02*
X134370685Y-54101558D01*
X134370685Y-54101558D02*
X128543002Y-54101558D01*
X106600000Y-51850000D02*
X107475000Y-51850000D01*
X107475000Y-51850000D02*
X108613610Y-52988610D01*
X108613610Y-52988610D02*
X123022614Y-52988610D01*
X123022614Y-52988610D02*
X124462403Y-54428399D01*
X124462403Y-54428399D02*
X128216161Y-54428399D01*
X128216161Y-54428399D02*
X128243003Y-54401557D01*
X128243003Y-54401557D02*
X128543002Y-54101558D01*
X109800000Y-59420000D02*
X109199414Y-59420000D01*
X109199414Y-59420000D02*
X106600000Y-56820586D01*
X106600000Y-56820586D02*
X106600000Y-52850000D01*
X106600000Y-52850000D02*
X106600000Y-51850000D01*
X134487437Y-55624953D02*
X134487437Y-53984806D01*
X134487437Y-53984806D02*
X134497002Y-53975241D01*
X103400000Y-49260000D02*
X106510000Y-49260000D01*
X106510000Y-49260000D02*
X106600000Y-49350000D01*
X118400000Y-49200000D02*
X116950000Y-49200000D01*
X118800000Y-62600000D02*
X117150000Y-62600000D01*
X139409275Y-44800000D02*
X143058314Y-48449039D01*
X143058314Y-48449039D02*
X143358313Y-48749038D01*
X127000000Y-44800000D02*
X139409275Y-44800000D01*
X120000000Y-52200000D02*
X120000000Y-47200000D01*
X120000000Y-47200000D02*
X120800000Y-46400000D01*
X130624044Y-53464189D02*
X125352198Y-53464189D01*
X125352198Y-53464189D02*
X125316374Y-53500013D01*
X131728189Y-52360044D02*
X130624044Y-53464189D01*
X125316374Y-53500013D02*
X125016375Y-53800012D01*
X140487437Y-54001545D02*
X140445079Y-53959187D01*
X140487437Y-55624953D02*
X140487437Y-54001545D01*
X122900001Y-62899999D02*
X123200000Y-62600000D01*
X114450000Y-62600000D02*
X114550000Y-62600000D01*
X115975012Y-64025012D02*
X121774988Y-64025012D01*
X114550000Y-62600000D02*
X115975012Y-64025012D01*
X121774988Y-64025012D02*
X122900001Y-62899999D01*
X128000000Y-62400000D02*
X125338357Y-65061643D01*
X125338357Y-65061643D02*
X114132945Y-65061643D01*
X114132945Y-65061643D02*
X112401920Y-63330618D01*
X112401920Y-63330618D02*
X112401920Y-61001920D01*
X112401920Y-61001920D02*
X112400000Y-61000000D01*
X128800000Y-62400000D02*
X128800000Y-62824264D01*
X128800000Y-62824264D02*
X126112610Y-65511654D01*
X126112610Y-65511654D02*
X111311654Y-65511654D01*
X111311654Y-65511654D02*
X107499999Y-61699999D01*
X107499999Y-61699999D02*
X107200000Y-61400000D01*
X109800000Y-56880000D02*
X109952400Y-56880000D01*
X109952400Y-56880000D02*
X113872400Y-60800000D01*
X121800000Y-60800000D02*
X122890098Y-59709902D01*
X113872400Y-60800000D02*
X121800000Y-60800000D01*
X126590096Y-59709902D02*
X126600000Y-59699998D01*
X122890098Y-59709902D02*
X126590096Y-59709902D01*
X128280000Y-49200000D02*
X128280000Y-49352400D01*
X128280000Y-49352400D02*
X129683033Y-50755433D01*
X129683033Y-50755433D02*
X129835433Y-50755433D01*
X129835433Y-50755433D02*
X141200000Y-50755433D01*
X121200000Y-52200000D02*
X121200000Y-48735398D01*
X121200000Y-48735398D02*
X122351700Y-47583698D01*
X122351700Y-47583698D02*
X139516098Y-47583698D01*
X139516098Y-47583698D02*
X140980000Y-49047600D01*
X140980000Y-49047600D02*
X140980000Y-49200000D01*
D22*
G36*
X174573000Y-67573000D02*
X94427000Y-67573000D01*
X94427000Y-64971720D01*
X95522675Y-64971720D01*
X95807829Y-65661846D01*
X96335376Y-66190316D01*
X97025004Y-66476674D01*
X97771720Y-66477325D01*
X98461846Y-66192171D01*
X98990316Y-65664624D01*
X99276674Y-64974996D01*
X99277325Y-64228280D01*
X98992171Y-63538154D01*
X98464624Y-63009684D01*
X97774996Y-62723326D01*
X97028280Y-62722675D01*
X96338154Y-63007829D01*
X95809684Y-63535376D01*
X95523326Y-64225004D01*
X95522675Y-64971720D01*
X94427000Y-64971720D01*
X94427000Y-61534073D01*
X106522883Y-61534073D01*
X106625733Y-61782989D01*
X106816010Y-61973598D01*
X107064746Y-62076882D01*
X107167035Y-62076971D01*
X110956684Y-65866619D01*
X110956686Y-65866622D01*
X111054314Y-65931854D01*
X111119546Y-65975442D01*
X111311654Y-66013654D01*
X126112605Y-66013654D01*
X126112610Y-66013655D01*
X126304717Y-65975442D01*
X126467578Y-65866622D01*
X127362479Y-64971720D01*
X169722675Y-64971720D01*
X170007829Y-65661846D01*
X170535376Y-66190316D01*
X171225004Y-66476674D01*
X171971720Y-66477325D01*
X172661846Y-66192171D01*
X173190316Y-65664624D01*
X173476674Y-64974996D01*
X173477325Y-64228280D01*
X173192171Y-63538154D01*
X172664624Y-63009684D01*
X171974996Y-62723326D01*
X171228280Y-62722675D01*
X170538154Y-63007829D01*
X170009684Y-63535376D01*
X169723326Y-64225004D01*
X169722675Y-64971720D01*
X127362479Y-64971720D01*
X129154965Y-63179234D01*
X129154968Y-63179232D01*
X129232105Y-63063788D01*
X129263788Y-63016372D01*
X129294257Y-62863193D01*
X129373598Y-62783990D01*
X129476882Y-62535254D01*
X129477117Y-62265927D01*
X129374267Y-62017011D01*
X129183990Y-61826402D01*
X128935254Y-61723118D01*
X128665927Y-61722883D01*
X128417011Y-61825733D01*
X128400137Y-61842577D01*
X128383990Y-61826402D01*
X128135254Y-61723118D01*
X127865927Y-61722883D01*
X127617011Y-61825733D01*
X127426402Y-62016010D01*
X127323118Y-62264746D01*
X127323029Y-62367036D01*
X125130421Y-64559643D01*
X114340881Y-64559643D01*
X112903920Y-63122682D01*
X112903920Y-61950000D01*
X113315615Y-61950000D01*
X113315615Y-63250000D01*
X113344875Y-63397098D01*
X113428199Y-63521801D01*
X113552902Y-63605125D01*
X113700000Y-63634385D01*
X114874449Y-63634385D01*
X115620042Y-64379977D01*
X115620044Y-64379980D01*
X115717672Y-64445212D01*
X115782904Y-64488800D01*
X115975012Y-64527012D01*
X121774983Y-64527012D01*
X121774988Y-64527013D01*
X121967095Y-64488800D01*
X122129956Y-64379980D01*
X123232906Y-63277029D01*
X123334073Y-63277117D01*
X123582989Y-63174267D01*
X123773598Y-62983990D01*
X123876882Y-62735254D01*
X123877117Y-62465927D01*
X123774267Y-62217011D01*
X123583990Y-62026402D01*
X123335254Y-61923118D01*
X123065927Y-61922883D01*
X122817011Y-62025733D01*
X122626402Y-62216010D01*
X122523118Y-62464746D01*
X122523029Y-62567036D01*
X121567052Y-63523012D01*
X118169989Y-63523012D01*
X118171801Y-63521801D01*
X118255125Y-63397098D01*
X118284385Y-63250000D01*
X118284385Y-63102000D01*
X118344537Y-63102000D01*
X118416010Y-63173598D01*
X118664746Y-63276882D01*
X118934073Y-63277117D01*
X119182989Y-63174267D01*
X119373598Y-62983990D01*
X119476882Y-62735254D01*
X119477117Y-62465927D01*
X119374267Y-62217011D01*
X119183990Y-62026402D01*
X118935254Y-61923118D01*
X118665927Y-61922883D01*
X118417011Y-62025733D01*
X118344618Y-62098000D01*
X118284385Y-62098000D01*
X118284385Y-61950000D01*
X118255125Y-61802902D01*
X118171801Y-61678199D01*
X118047098Y-61594875D01*
X117900000Y-61565615D01*
X116400000Y-61565615D01*
X116252902Y-61594875D01*
X116128199Y-61678199D01*
X116044875Y-61802902D01*
X116015615Y-61950000D01*
X116015615Y-63250000D01*
X116041856Y-63381921D01*
X115584385Y-62924449D01*
X115584385Y-61950000D01*
X115555125Y-61802902D01*
X115471801Y-61678199D01*
X115347098Y-61594875D01*
X115200000Y-61565615D01*
X113700000Y-61565615D01*
X113552902Y-61594875D01*
X113428199Y-61678199D01*
X113344875Y-61802902D01*
X113315615Y-61950000D01*
X112903920Y-61950000D01*
X112903920Y-61453547D01*
X112973598Y-61383990D01*
X113076882Y-61135254D01*
X113077117Y-60865927D01*
X112974267Y-60617011D01*
X112783990Y-60426402D01*
X112535254Y-60323118D01*
X112265927Y-60322883D01*
X112017011Y-60425733D01*
X111826402Y-60616010D01*
X111723118Y-60864746D01*
X111722883Y-61134073D01*
X111825733Y-61382989D01*
X111899920Y-61457305D01*
X111899920Y-63330613D01*
X111899919Y-63330618D01*
X111938132Y-63522725D01*
X112046952Y-63685586D01*
X113371020Y-65009654D01*
X111519589Y-65009654D01*
X107877029Y-61367093D01*
X107877117Y-61265927D01*
X107774267Y-61017011D01*
X107583990Y-60826402D01*
X107335254Y-60723118D01*
X107065927Y-60722883D01*
X106817011Y-60825733D01*
X106626402Y-61016010D01*
X106523118Y-61264746D01*
X106522883Y-61534073D01*
X94427000Y-61534073D01*
X94427000Y-51800000D01*
X101979710Y-51800000D01*
X102074145Y-52274757D01*
X102343073Y-52677237D01*
X102745553Y-52946165D01*
X103220310Y-53040600D01*
X103579690Y-53040600D01*
X104054447Y-52946165D01*
X104456927Y-52677237D01*
X104498000Y-52615767D01*
X104498000Y-53524233D01*
X104456927Y-53462763D01*
X104054447Y-53193835D01*
X103579690Y-53099400D01*
X103220310Y-53099400D01*
X102745553Y-53193835D01*
X102343073Y-53462763D01*
X102074145Y-53865243D01*
X101979710Y-54340000D01*
X102074145Y-54814757D01*
X102343073Y-55217237D01*
X102745553Y-55486165D01*
X103220310Y-55580600D01*
X103579690Y-55580600D01*
X104054447Y-55486165D01*
X104456927Y-55217237D01*
X104498000Y-55155767D01*
X104498000Y-56064233D01*
X104456927Y-56002763D01*
X104054447Y-55733835D01*
X103579690Y-55639400D01*
X103220310Y-55639400D01*
X102745553Y-55733835D01*
X102343073Y-56002763D01*
X102074145Y-56405243D01*
X101979710Y-56880000D01*
X102074145Y-57354757D01*
X102343073Y-57757237D01*
X102745553Y-58026165D01*
X103220310Y-58120600D01*
X103579690Y-58120600D01*
X104054447Y-58026165D01*
X104456927Y-57757237D01*
X104714036Y-57372446D01*
X104858107Y-57343788D01*
X105020968Y-57234968D01*
X105354965Y-56900970D01*
X105354968Y-56900968D01*
X105449602Y-56759338D01*
X105463788Y-56738108D01*
X105502000Y-56546000D01*
X105502000Y-51697934D01*
X105590615Y-51609319D01*
X105590615Y-52600000D01*
X105619875Y-52747098D01*
X105703199Y-52871801D01*
X105827902Y-52955125D01*
X105975000Y-52984385D01*
X106098000Y-52984385D01*
X106098000Y-56820581D01*
X106097999Y-56820586D01*
X106136212Y-57012693D01*
X106245032Y-57175554D01*
X108397922Y-59328443D01*
X108379710Y-59420000D01*
X108474145Y-59894757D01*
X108743073Y-60297237D01*
X109145553Y-60566165D01*
X109620310Y-60660600D01*
X109979690Y-60660600D01*
X110454447Y-60566165D01*
X110856927Y-60297237D01*
X111125855Y-59894757D01*
X111220290Y-59420000D01*
X111125855Y-58945243D01*
X110856927Y-58542763D01*
X110454447Y-58273835D01*
X109979690Y-58179400D01*
X109620310Y-58179400D01*
X109145553Y-58273835D01*
X108916340Y-58426990D01*
X107369350Y-56880000D01*
X108379710Y-56880000D01*
X108474145Y-57354757D01*
X108743073Y-57757237D01*
X109145553Y-58026165D01*
X109620310Y-58120600D01*
X109979690Y-58120600D01*
X110399549Y-58037085D01*
X113517430Y-61154965D01*
X113517432Y-61154968D01*
X113596640Y-61207893D01*
X113680292Y-61263788D01*
X113872400Y-61302000D01*
X121799995Y-61302000D01*
X121800000Y-61302001D01*
X121992107Y-61263788D01*
X122154968Y-61154968D01*
X123098033Y-60211902D01*
X126154423Y-60211902D01*
X126216010Y-60273596D01*
X126464746Y-60376880D01*
X126734073Y-60377115D01*
X126982989Y-60274265D01*
X127173598Y-60083988D01*
X127176748Y-60076400D01*
X164999615Y-60076400D01*
X164999615Y-61803600D01*
X165028875Y-61950698D01*
X165112199Y-62075401D01*
X165236902Y-62158725D01*
X165384000Y-62187985D01*
X167416000Y-62187985D01*
X167563098Y-62158725D01*
X167687801Y-62075401D01*
X167771125Y-61950698D01*
X167800385Y-61803600D01*
X167800385Y-60076400D01*
X167771125Y-59929302D01*
X167687801Y-59804599D01*
X167563098Y-59721275D01*
X167416000Y-59692015D01*
X165384000Y-59692015D01*
X165236902Y-59721275D01*
X165112199Y-59804599D01*
X165028875Y-59929302D01*
X164999615Y-60076400D01*
X127176748Y-60076400D01*
X127276882Y-59835252D01*
X127277117Y-59565925D01*
X127174267Y-59317009D01*
X126983990Y-59126400D01*
X126735254Y-59023116D01*
X126465927Y-59022881D01*
X126217011Y-59125731D01*
X126134697Y-59207902D01*
X122890098Y-59207902D01*
X122697990Y-59246114D01*
X122651412Y-59277237D01*
X122535130Y-59354934D01*
X122535128Y-59354937D01*
X121592064Y-60298000D01*
X114080335Y-60298000D01*
X111866408Y-58084073D01*
X122322883Y-58084073D01*
X122425733Y-58332989D01*
X122616010Y-58523598D01*
X122864746Y-58626882D01*
X123134073Y-58627117D01*
X123190615Y-58603754D01*
X123190615Y-58800000D01*
X123219875Y-58947098D01*
X123303199Y-59071801D01*
X123427902Y-59155125D01*
X123575000Y-59184385D01*
X124825000Y-59184385D01*
X124972098Y-59155125D01*
X125096801Y-59071801D01*
X125180125Y-58947098D01*
X125209385Y-58800000D01*
X125209385Y-57300000D01*
X126790615Y-57300000D01*
X126790615Y-58800000D01*
X126819875Y-58947098D01*
X126903199Y-59071801D01*
X127027902Y-59155125D01*
X127175000Y-59184385D01*
X128425000Y-59184385D01*
X128572098Y-59155125D01*
X128696801Y-59071801D01*
X128780125Y-58947098D01*
X128809385Y-58800000D01*
X128809385Y-58734073D01*
X131522883Y-58734073D01*
X131625733Y-58982989D01*
X131816010Y-59173598D01*
X132064746Y-59276882D01*
X132334073Y-59277117D01*
X132582989Y-59174267D01*
X132655382Y-59102000D01*
X133458432Y-59102000D01*
X133482312Y-59222051D01*
X133565636Y-59346754D01*
X133690339Y-59430078D01*
X133837437Y-59459338D01*
X135137437Y-59459338D01*
X135284535Y-59430078D01*
X135409238Y-59346754D01*
X135492562Y-59222051D01*
X135521822Y-59074953D01*
X135521822Y-58826953D01*
X139453052Y-58826953D01*
X139453052Y-59074953D01*
X139482312Y-59222051D01*
X139565636Y-59346754D01*
X139690339Y-59430078D01*
X139837437Y-59459338D01*
X141137437Y-59459338D01*
X141284535Y-59430078D01*
X141409238Y-59346754D01*
X141492562Y-59222051D01*
X141521822Y-59074953D01*
X141521822Y-58800223D01*
X141579544Y-58788741D01*
X141742405Y-58679921D01*
X142022326Y-58400000D01*
X164979710Y-58400000D01*
X165074145Y-58874757D01*
X165343073Y-59277237D01*
X165745553Y-59546165D01*
X166220310Y-59640600D01*
X166579690Y-59640600D01*
X167054447Y-59546165D01*
X167456927Y-59277237D01*
X167725855Y-58874757D01*
X167820290Y-58400000D01*
X167725855Y-57925243D01*
X167456927Y-57522763D01*
X167054447Y-57253835D01*
X166579690Y-57159400D01*
X166220310Y-57159400D01*
X165745553Y-57253835D01*
X165343073Y-57522763D01*
X165074145Y-57925243D01*
X164979710Y-58400000D01*
X142022326Y-58400000D01*
X143754968Y-56667358D01*
X143863788Y-56504497D01*
X143902001Y-56312390D01*
X143902000Y-56312385D01*
X143902000Y-55860000D01*
X164979710Y-55860000D01*
X165074145Y-56334757D01*
X165343073Y-56737237D01*
X165745553Y-57006165D01*
X166220310Y-57100600D01*
X166579690Y-57100600D01*
X167054447Y-57006165D01*
X167456927Y-56737237D01*
X167725855Y-56334757D01*
X167820290Y-55860000D01*
X167725855Y-55385243D01*
X167456927Y-54982763D01*
X167054447Y-54713835D01*
X166579690Y-54619400D01*
X166220310Y-54619400D01*
X165745553Y-54713835D01*
X165343073Y-54982763D01*
X165074145Y-55385243D01*
X164979710Y-55860000D01*
X143902000Y-55860000D01*
X143902000Y-53273936D01*
X146354965Y-50820970D01*
X146354968Y-50820968D01*
X146420200Y-50723340D01*
X146463788Y-50658108D01*
X146475270Y-50600385D01*
X147016000Y-50600385D01*
X147163098Y-50571125D01*
X147287801Y-50487801D01*
X147371125Y-50363098D01*
X147400385Y-50216000D01*
X147400385Y-49980892D01*
X147555000Y-50212290D01*
X148006922Y-50514254D01*
X148540000Y-50620290D01*
X149073078Y-50514254D01*
X149525000Y-50212290D01*
X149826964Y-49760368D01*
X149933000Y-49227290D01*
X149933000Y-49172710D01*
X149826964Y-48639632D01*
X149525000Y-48187710D01*
X149519448Y-48184000D01*
X162459615Y-48184000D01*
X162459615Y-50216000D01*
X162488875Y-50363098D01*
X162572199Y-50487801D01*
X162696902Y-50571125D01*
X162844000Y-50600385D01*
X164876000Y-50600385D01*
X165023098Y-50571125D01*
X165147801Y-50487801D01*
X165231125Y-50363098D01*
X165260385Y-50216000D01*
X165260385Y-48184000D01*
X165231125Y-48036902D01*
X165147801Y-47912199D01*
X165023098Y-47828875D01*
X164876000Y-47799615D01*
X162844000Y-47799615D01*
X162696902Y-47828875D01*
X162572199Y-47912199D01*
X162488875Y-48036902D01*
X162459615Y-48184000D01*
X149519448Y-48184000D01*
X149073078Y-47885746D01*
X148540000Y-47779710D01*
X148006922Y-47885746D01*
X147555000Y-48187710D01*
X147400385Y-48419108D01*
X147400385Y-48184000D01*
X147371125Y-48036902D01*
X147287801Y-47912199D01*
X147163098Y-47828875D01*
X147016000Y-47799615D01*
X144984000Y-47799615D01*
X144836902Y-47828875D01*
X144712199Y-47912199D01*
X144628875Y-48036902D01*
X144599615Y-48184000D01*
X144599615Y-50216000D01*
X144628875Y-50363098D01*
X144712199Y-50487801D01*
X144836902Y-50571125D01*
X144984000Y-50600385D01*
X145155680Y-50600385D01*
X143045032Y-52711032D01*
X142936212Y-52873893D01*
X142897999Y-53066000D01*
X142898000Y-53066005D01*
X142898000Y-56104454D01*
X141506173Y-57496281D01*
X141492562Y-57427855D01*
X141409238Y-57303152D01*
X141284535Y-57219828D01*
X141137437Y-57190568D01*
X139837437Y-57190568D01*
X139690339Y-57219828D01*
X139565636Y-57303152D01*
X139482312Y-57427855D01*
X139453052Y-57574953D01*
X139453052Y-57822953D01*
X135521822Y-57822953D01*
X135521822Y-57574953D01*
X135492562Y-57427855D01*
X135409238Y-57303152D01*
X135284535Y-57219828D01*
X135137437Y-57190568D01*
X133837437Y-57190568D01*
X133690339Y-57219828D01*
X133565636Y-57303152D01*
X133482312Y-57427855D01*
X133453052Y-57574953D01*
X133453052Y-58098000D01*
X132655463Y-58098000D01*
X132583990Y-58026402D01*
X132335254Y-57923118D01*
X132065927Y-57922883D01*
X131817011Y-58025733D01*
X131626402Y-58216010D01*
X131523118Y-58464746D01*
X131522883Y-58734073D01*
X128809385Y-58734073D01*
X128809385Y-57300000D01*
X128780125Y-57152902D01*
X128696801Y-57028199D01*
X128572098Y-56944875D01*
X128476890Y-56925937D01*
X128477117Y-56665927D01*
X128374267Y-56417011D01*
X128183990Y-56226402D01*
X127935254Y-56123118D01*
X127665927Y-56122883D01*
X127417011Y-56225733D01*
X127226402Y-56416010D01*
X127123118Y-56664746D01*
X127122890Y-56925980D01*
X127027902Y-56944875D01*
X126903199Y-57028199D01*
X126819875Y-57152902D01*
X126790615Y-57300000D01*
X125209385Y-57300000D01*
X125180125Y-57152902D01*
X125096801Y-57028199D01*
X124972098Y-56944875D01*
X124825000Y-56915615D01*
X123575000Y-56915615D01*
X123427902Y-56944875D01*
X123303199Y-57028199D01*
X123219875Y-57152902D01*
X123191331Y-57296403D01*
X123135254Y-57273118D01*
X122865927Y-57272883D01*
X122617011Y-57375733D01*
X122426402Y-57566010D01*
X122323118Y-57814746D01*
X122322883Y-58084073D01*
X111866408Y-58084073D01*
X111127719Y-57345384D01*
X111220290Y-56880000D01*
X111125855Y-56405243D01*
X110856927Y-56002763D01*
X110454447Y-55733835D01*
X109979690Y-55639400D01*
X109620310Y-55639400D01*
X109145553Y-55733835D01*
X108743073Y-56002763D01*
X108474145Y-56405243D01*
X108379710Y-56880000D01*
X107369350Y-56880000D01*
X107102000Y-56612650D01*
X107102000Y-52984385D01*
X107225000Y-52984385D01*
X107372098Y-52955125D01*
X107496801Y-52871801D01*
X107580125Y-52747098D01*
X107593736Y-52678672D01*
X108258640Y-53343575D01*
X108258642Y-53343578D01*
X108380014Y-53424676D01*
X108421503Y-53452398D01*
X108613610Y-53490611D01*
X108613615Y-53490610D01*
X108724466Y-53490610D01*
X108474145Y-53865243D01*
X108379710Y-54340000D01*
X108474145Y-54814757D01*
X108743073Y-55217237D01*
X109145553Y-55486165D01*
X109620310Y-55580600D01*
X109979690Y-55580600D01*
X110454447Y-55486165D01*
X110856927Y-55217237D01*
X111125855Y-54814757D01*
X111220290Y-54340000D01*
X111125855Y-53865243D01*
X110875534Y-53490610D01*
X122814678Y-53490610D01*
X124107435Y-54783367D01*
X124270295Y-54892187D01*
X124462403Y-54930399D01*
X128216156Y-54930399D01*
X128216161Y-54930400D01*
X128408268Y-54892187D01*
X128571129Y-54783367D01*
X128575909Y-54778587D01*
X128677075Y-54778675D01*
X128925991Y-54675825D01*
X128998384Y-54603558D01*
X133565365Y-54603558D01*
X133482312Y-54727855D01*
X133453052Y-54874953D01*
X133453052Y-56374953D01*
X133482312Y-56522051D01*
X133565636Y-56646754D01*
X133690339Y-56730078D01*
X133837437Y-56759338D01*
X135137437Y-56759338D01*
X135284535Y-56730078D01*
X135409238Y-56646754D01*
X135492562Y-56522051D01*
X135521822Y-56374953D01*
X135521822Y-54874953D01*
X139453052Y-54874953D01*
X139453052Y-56374953D01*
X139482312Y-56522051D01*
X139565636Y-56646754D01*
X139690339Y-56730078D01*
X139837437Y-56759338D01*
X141137437Y-56759338D01*
X141284535Y-56730078D01*
X141409238Y-56646754D01*
X141492562Y-56522051D01*
X141521822Y-56374953D01*
X141521822Y-54874953D01*
X141492562Y-54727855D01*
X141409238Y-54603152D01*
X141284535Y-54519828D01*
X141137437Y-54490568D01*
X140989437Y-54490568D01*
X140989437Y-54372366D01*
X141018677Y-54343177D01*
X141121961Y-54094441D01*
X141122196Y-53825114D01*
X141019346Y-53576198D01*
X140829069Y-53385589D01*
X140580333Y-53282305D01*
X140311006Y-53282070D01*
X140062090Y-53384920D01*
X139871481Y-53575197D01*
X139768197Y-53823933D01*
X139767962Y-54093260D01*
X139870812Y-54342176D01*
X139985437Y-54457001D01*
X139985437Y-54490568D01*
X139837437Y-54490568D01*
X139690339Y-54519828D01*
X139565636Y-54603152D01*
X139482312Y-54727855D01*
X139453052Y-54874953D01*
X135521822Y-54874953D01*
X135492562Y-54727855D01*
X135409238Y-54603152D01*
X135284535Y-54519828D01*
X135137437Y-54490568D01*
X134989437Y-54490568D01*
X134989437Y-54440253D01*
X135070600Y-54359231D01*
X135173884Y-54110495D01*
X135174119Y-53841168D01*
X135071269Y-53592252D01*
X134880992Y-53401643D01*
X134632256Y-53298359D01*
X134362929Y-53298124D01*
X134114013Y-53400974D01*
X133923404Y-53591251D01*
X133919955Y-53599558D01*
X131198611Y-53599558D01*
X131761096Y-53037073D01*
X131862262Y-53037161D01*
X132111178Y-52934311D01*
X132301787Y-52744034D01*
X132405071Y-52495298D01*
X132405306Y-52225971D01*
X132302456Y-51977055D01*
X132112179Y-51786446D01*
X131863443Y-51683162D01*
X131594116Y-51682927D01*
X131345200Y-51785777D01*
X131154591Y-51976054D01*
X131051307Y-52224790D01*
X131051218Y-52327080D01*
X130416108Y-52962189D01*
X125352203Y-52962189D01*
X125352198Y-52962188D01*
X125172101Y-52998012D01*
X125160091Y-53000401D01*
X124997230Y-53109221D01*
X124997228Y-53109224D01*
X124983468Y-53122983D01*
X124882302Y-53122895D01*
X124633386Y-53225745D01*
X124442777Y-53416022D01*
X124359798Y-53615858D01*
X123377582Y-52633642D01*
X123214721Y-52524822D01*
X123022614Y-52486609D01*
X123022609Y-52486610D01*
X121814034Y-52486610D01*
X121876882Y-52335254D01*
X121877117Y-52065927D01*
X121774267Y-51817011D01*
X121702000Y-51744618D01*
X121702000Y-48943334D01*
X121952015Y-48693319D01*
X121952015Y-50216000D01*
X121981275Y-50363098D01*
X122064599Y-50487801D01*
X122189302Y-50571125D01*
X122336400Y-50600385D01*
X124063600Y-50600385D01*
X124210698Y-50571125D01*
X124335401Y-50487801D01*
X124418725Y-50363098D01*
X124447985Y-50216000D01*
X124447985Y-48184000D01*
X124428431Y-48085698D01*
X127488631Y-48085698D01*
X127402763Y-48143073D01*
X127133835Y-48545553D01*
X127039400Y-49020310D01*
X127039400Y-49379690D01*
X127133835Y-49854447D01*
X127402763Y-50256927D01*
X127805243Y-50525855D01*
X128280000Y-50620290D01*
X128745384Y-50527719D01*
X129328063Y-51110398D01*
X129328065Y-51110401D01*
X129371500Y-51139423D01*
X129490925Y-51219221D01*
X129683033Y-51257433D01*
X140744537Y-51257433D01*
X140816010Y-51329031D01*
X141064746Y-51432315D01*
X141334073Y-51432550D01*
X141582989Y-51329700D01*
X141773598Y-51139423D01*
X141876882Y-50890687D01*
X141877117Y-50621360D01*
X141774267Y-50372444D01*
X141738290Y-50336405D01*
X141857237Y-50256927D01*
X142126165Y-49854447D01*
X142220600Y-49379690D01*
X142220600Y-49020310D01*
X142126165Y-48545553D01*
X141857237Y-48143073D01*
X141454757Y-47874145D01*
X140980000Y-47779710D01*
X140514616Y-47872280D01*
X139871066Y-47228730D01*
X139708205Y-47119910D01*
X139516098Y-47081697D01*
X139516093Y-47081698D01*
X122351705Y-47081698D01*
X122351700Y-47081697D01*
X122159593Y-47119910D01*
X121996732Y-47228730D01*
X121996730Y-47228733D01*
X120845032Y-48380430D01*
X120736212Y-48543291D01*
X120697999Y-48735398D01*
X120698000Y-48735403D01*
X120698000Y-51744537D01*
X120626402Y-51816010D01*
X120600063Y-51879442D01*
X120574267Y-51817011D01*
X120502000Y-51744618D01*
X120502000Y-47407936D01*
X120832907Y-47077029D01*
X120934073Y-47077117D01*
X121182989Y-46974267D01*
X121373598Y-46783990D01*
X121476882Y-46535254D01*
X121477117Y-46265927D01*
X121374267Y-46017011D01*
X121183990Y-45826402D01*
X120935254Y-45723118D01*
X120665927Y-45722883D01*
X120417011Y-45825733D01*
X120226402Y-46016010D01*
X120123118Y-46264746D01*
X120123029Y-46367036D01*
X119645032Y-46845032D01*
X119536212Y-47007893D01*
X119497999Y-47200000D01*
X119498000Y-47200005D01*
X119498000Y-51744537D01*
X119426402Y-51816010D01*
X119323118Y-52064746D01*
X119322883Y-52334073D01*
X119385910Y-52486610D01*
X110984300Y-52486610D01*
X111125855Y-52274757D01*
X111220290Y-51800000D01*
X111125855Y-51325243D01*
X110856927Y-50922763D01*
X110454447Y-50653835D01*
X109979690Y-50559400D01*
X109620310Y-50559400D01*
X109145553Y-50653835D01*
X108743073Y-50922763D01*
X108474145Y-51325243D01*
X108379710Y-51800000D01*
X108440488Y-52105553D01*
X107829968Y-51495032D01*
X107667107Y-51386212D01*
X107609385Y-51374730D01*
X107609385Y-51100000D01*
X107580125Y-50952902D01*
X107568473Y-50935463D01*
X108399615Y-50104320D01*
X108399615Y-50123600D01*
X108428875Y-50270698D01*
X108512199Y-50395401D01*
X108636902Y-50478725D01*
X108784000Y-50507985D01*
X110816000Y-50507985D01*
X110963098Y-50478725D01*
X111087801Y-50395401D01*
X111171125Y-50270698D01*
X111200385Y-50123600D01*
X111200385Y-49702000D01*
X113115615Y-49702000D01*
X113115615Y-49850000D01*
X113144875Y-49997098D01*
X113228199Y-50121801D01*
X113352902Y-50205125D01*
X113500000Y-50234385D01*
X115000000Y-50234385D01*
X115147098Y-50205125D01*
X115271801Y-50121801D01*
X115355125Y-49997098D01*
X115384385Y-49850000D01*
X115384385Y-48875551D01*
X115841856Y-48418080D01*
X115815615Y-48550000D01*
X115815615Y-49850000D01*
X115844875Y-49997098D01*
X115928199Y-50121801D01*
X116052902Y-50205125D01*
X116200000Y-50234385D01*
X117700000Y-50234385D01*
X117847098Y-50205125D01*
X117971801Y-50121801D01*
X118055125Y-49997098D01*
X118084385Y-49850000D01*
X118084385Y-49801990D01*
X118264746Y-49876882D01*
X118534073Y-49877117D01*
X118782989Y-49774267D01*
X118973598Y-49583990D01*
X119076882Y-49335254D01*
X119077117Y-49065927D01*
X118974267Y-48817011D01*
X118783990Y-48626402D01*
X118535254Y-48523118D01*
X118265927Y-48522883D01*
X118084385Y-48597895D01*
X118084385Y-48550000D01*
X118055125Y-48402902D01*
X117971801Y-48278199D01*
X117847098Y-48194875D01*
X117700000Y-48165615D01*
X116200000Y-48165615D01*
X116068080Y-48191856D01*
X117357936Y-46902000D01*
X118344537Y-46902000D01*
X118416010Y-46973598D01*
X118664746Y-47076882D01*
X118934073Y-47077117D01*
X119182989Y-46974267D01*
X119373598Y-46783990D01*
X119476882Y-46535254D01*
X119477117Y-46265927D01*
X119374267Y-46017011D01*
X119183990Y-45826402D01*
X118935254Y-45723118D01*
X118665927Y-45722883D01*
X118417011Y-45825733D01*
X118344618Y-45898000D01*
X117150005Y-45898000D01*
X117150000Y-45897999D01*
X116957893Y-45936212D01*
X116795032Y-46045032D01*
X114674449Y-48165615D01*
X113500000Y-48165615D01*
X113352902Y-48194875D01*
X113228199Y-48278199D01*
X113144875Y-48402902D01*
X113115615Y-48550000D01*
X113115615Y-48698000D01*
X111200385Y-48698000D01*
X111200385Y-48396400D01*
X111171125Y-48249302D01*
X111087801Y-48124599D01*
X110963098Y-48041275D01*
X110816000Y-48012015D01*
X108784000Y-48012015D01*
X108636902Y-48041275D01*
X108512199Y-48124599D01*
X108428875Y-48249302D01*
X108399615Y-48396400D01*
X108399615Y-48784730D01*
X108341892Y-48796212D01*
X108312263Y-48816010D01*
X108179032Y-48905032D01*
X108179030Y-48905035D01*
X107609385Y-49474680D01*
X107609385Y-48600000D01*
X107580125Y-48452902D01*
X107496801Y-48328199D01*
X107372098Y-48244875D01*
X107225000Y-48215615D01*
X105975000Y-48215615D01*
X105827902Y-48244875D01*
X105703199Y-48328199D01*
X105619875Y-48452902D01*
X105590615Y-48600000D01*
X105590615Y-48758000D01*
X104800385Y-48758000D01*
X104800385Y-48396400D01*
X104771125Y-48249302D01*
X104687801Y-48124599D01*
X104563098Y-48041275D01*
X104416000Y-48012015D01*
X102384000Y-48012015D01*
X102236902Y-48041275D01*
X102112199Y-48124599D01*
X102028875Y-48249302D01*
X101999615Y-48396400D01*
X101999615Y-50123600D01*
X102028875Y-50270698D01*
X102112199Y-50395401D01*
X102236902Y-50478725D01*
X102384000Y-50507985D01*
X104416000Y-50507985D01*
X104563098Y-50478725D01*
X104687801Y-50395401D01*
X104771125Y-50270698D01*
X104800385Y-50123600D01*
X104800385Y-49762000D01*
X105590615Y-49762000D01*
X105590615Y-50100000D01*
X105610231Y-50198616D01*
X105523480Y-50256582D01*
X104645032Y-51135030D01*
X104621895Y-51169656D01*
X104456927Y-50922763D01*
X104054447Y-50653835D01*
X103579690Y-50559400D01*
X103220310Y-50559400D01*
X102745553Y-50653835D01*
X102343073Y-50922763D01*
X102074145Y-51325243D01*
X101979710Y-51800000D01*
X94427000Y-51800000D01*
X94427000Y-46771720D01*
X95522675Y-46771720D01*
X95807829Y-47461846D01*
X96335376Y-47990316D01*
X97025004Y-48276674D01*
X97771720Y-48277325D01*
X98461846Y-47992171D01*
X98990316Y-47464624D01*
X99276674Y-46774996D01*
X99277325Y-46028280D01*
X98992171Y-45338154D01*
X98588796Y-44934073D01*
X126322883Y-44934073D01*
X126425733Y-45182989D01*
X126616010Y-45373598D01*
X126864746Y-45476882D01*
X127134073Y-45477117D01*
X127382989Y-45374267D01*
X127455382Y-45302000D01*
X139201339Y-45302000D01*
X142681284Y-48781944D01*
X142681196Y-48883111D01*
X142784046Y-49132027D01*
X142974323Y-49322636D01*
X143223059Y-49425920D01*
X143492386Y-49426155D01*
X143741302Y-49323305D01*
X143931911Y-49133028D01*
X144035195Y-48884292D01*
X144035430Y-48614965D01*
X143932580Y-48366049D01*
X143742303Y-48175440D01*
X143493567Y-48072156D01*
X143391277Y-48072067D01*
X142090931Y-46771720D01*
X169722675Y-46771720D01*
X170007829Y-47461846D01*
X170535376Y-47990316D01*
X171225004Y-48276674D01*
X171971720Y-48277325D01*
X172661846Y-47992171D01*
X173190316Y-47464624D01*
X173476674Y-46774996D01*
X173477325Y-46028280D01*
X173192171Y-45338154D01*
X172664624Y-44809684D01*
X171974996Y-44523326D01*
X171228280Y-44522675D01*
X170538154Y-44807829D01*
X170009684Y-45335376D01*
X169723326Y-46025004D01*
X169722675Y-46771720D01*
X142090931Y-46771720D01*
X139764243Y-44445032D01*
X139601382Y-44336212D01*
X139409275Y-44297999D01*
X139409270Y-44298000D01*
X127455463Y-44298000D01*
X127383990Y-44226402D01*
X127135254Y-44123118D01*
X126865927Y-44122883D01*
X126617011Y-44225733D01*
X126426402Y-44416010D01*
X126323118Y-44664746D01*
X126322883Y-44934073D01*
X98588796Y-44934073D01*
X98464624Y-44809684D01*
X97774996Y-44523326D01*
X97028280Y-44522675D01*
X96338154Y-44807829D01*
X95809684Y-45335376D01*
X95523326Y-46025004D01*
X95522675Y-46771720D01*
X94427000Y-46771720D01*
X94427000Y-43427000D01*
X174573000Y-43427000D01*
X174573000Y-67573000D01*
X174573000Y-67573000D01*
G37*
X174573000Y-67573000D02*
X94427000Y-67573000D01*
X94427000Y-64971720D01*
X95522675Y-64971720D01*
X95807829Y-65661846D01*
X96335376Y-66190316D01*
X97025004Y-66476674D01*
X97771720Y-66477325D01*
X98461846Y-66192171D01*
X98990316Y-65664624D01*
X99276674Y-64974996D01*
X99277325Y-64228280D01*
X98992171Y-63538154D01*
X98464624Y-63009684D01*
X97774996Y-62723326D01*
X97028280Y-62722675D01*
X96338154Y-63007829D01*
X95809684Y-63535376D01*
X95523326Y-64225004D01*
X95522675Y-64971720D01*
X94427000Y-64971720D01*
X94427000Y-61534073D01*
X106522883Y-61534073D01*
X106625733Y-61782989D01*
X106816010Y-61973598D01*
X107064746Y-62076882D01*
X107167035Y-62076971D01*
X110956684Y-65866619D01*
X110956686Y-65866622D01*
X111054314Y-65931854D01*
X111119546Y-65975442D01*
X111311654Y-66013654D01*
X126112605Y-66013654D01*
X126112610Y-66013655D01*
X126304717Y-65975442D01*
X126467578Y-65866622D01*
X127362479Y-64971720D01*
X169722675Y-64971720D01*
X170007829Y-65661846D01*
X170535376Y-66190316D01*
X171225004Y-66476674D01*
X171971720Y-66477325D01*
X172661846Y-66192171D01*
X173190316Y-65664624D01*
X173476674Y-64974996D01*
X173477325Y-64228280D01*
X173192171Y-63538154D01*
X172664624Y-63009684D01*
X171974996Y-62723326D01*
X171228280Y-62722675D01*
X170538154Y-63007829D01*
X170009684Y-63535376D01*
X169723326Y-64225004D01*
X169722675Y-64971720D01*
X127362479Y-64971720D01*
X129154965Y-63179234D01*
X129154968Y-63179232D01*
X129232105Y-63063788D01*
X129263788Y-63016372D01*
X129294257Y-62863193D01*
X129373598Y-62783990D01*
X129476882Y-62535254D01*
X129477117Y-62265927D01*
X129374267Y-62017011D01*
X129183990Y-61826402D01*
X128935254Y-61723118D01*
X128665927Y-61722883D01*
X128417011Y-61825733D01*
X128400137Y-61842577D01*
X128383990Y-61826402D01*
X128135254Y-61723118D01*
X127865927Y-61722883D01*
X127617011Y-61825733D01*
X127426402Y-62016010D01*
X127323118Y-62264746D01*
X127323029Y-62367036D01*
X125130421Y-64559643D01*
X114340881Y-64559643D01*
X112903920Y-63122682D01*
X112903920Y-61950000D01*
X113315615Y-61950000D01*
X113315615Y-63250000D01*
X113344875Y-63397098D01*
X113428199Y-63521801D01*
X113552902Y-63605125D01*
X113700000Y-63634385D01*
X114874449Y-63634385D01*
X115620042Y-64379977D01*
X115620044Y-64379980D01*
X115717672Y-64445212D01*
X115782904Y-64488800D01*
X115975012Y-64527012D01*
X121774983Y-64527012D01*
X121774988Y-64527013D01*
X121967095Y-64488800D01*
X122129956Y-64379980D01*
X123232906Y-63277029D01*
X123334073Y-63277117D01*
X123582989Y-63174267D01*
X123773598Y-62983990D01*
X123876882Y-62735254D01*
X123877117Y-62465927D01*
X123774267Y-62217011D01*
X123583990Y-62026402D01*
X123335254Y-61923118D01*
X123065927Y-61922883D01*
X122817011Y-62025733D01*
X122626402Y-62216010D01*
X122523118Y-62464746D01*
X122523029Y-62567036D01*
X121567052Y-63523012D01*
X118169989Y-63523012D01*
X118171801Y-63521801D01*
X118255125Y-63397098D01*
X118284385Y-63250000D01*
X118284385Y-63102000D01*
X118344537Y-63102000D01*
X118416010Y-63173598D01*
X118664746Y-63276882D01*
X118934073Y-63277117D01*
X119182989Y-63174267D01*
X119373598Y-62983990D01*
X119476882Y-62735254D01*
X119477117Y-62465927D01*
X119374267Y-62217011D01*
X119183990Y-62026402D01*
X118935254Y-61923118D01*
X118665927Y-61922883D01*
X118417011Y-62025733D01*
X118344618Y-62098000D01*
X118284385Y-62098000D01*
X118284385Y-61950000D01*
X118255125Y-61802902D01*
X118171801Y-61678199D01*
X118047098Y-61594875D01*
X117900000Y-61565615D01*
X116400000Y-61565615D01*
X116252902Y-61594875D01*
X116128199Y-61678199D01*
X116044875Y-61802902D01*
X116015615Y-61950000D01*
X116015615Y-63250000D01*
X116041856Y-63381921D01*
X115584385Y-62924449D01*
X115584385Y-61950000D01*
X115555125Y-61802902D01*
X115471801Y-61678199D01*
X115347098Y-61594875D01*
X115200000Y-61565615D01*
X113700000Y-61565615D01*
X113552902Y-61594875D01*
X113428199Y-61678199D01*
X113344875Y-61802902D01*
X113315615Y-61950000D01*
X112903920Y-61950000D01*
X112903920Y-61453547D01*
X112973598Y-61383990D01*
X113076882Y-61135254D01*
X113077117Y-60865927D01*
X112974267Y-60617011D01*
X112783990Y-60426402D01*
X112535254Y-60323118D01*
X112265927Y-60322883D01*
X112017011Y-60425733D01*
X111826402Y-60616010D01*
X111723118Y-60864746D01*
X111722883Y-61134073D01*
X111825733Y-61382989D01*
X111899920Y-61457305D01*
X111899920Y-63330613D01*
X111899919Y-63330618D01*
X111938132Y-63522725D01*
X112046952Y-63685586D01*
X113371020Y-65009654D01*
X111519589Y-65009654D01*
X107877029Y-61367093D01*
X107877117Y-61265927D01*
X107774267Y-61017011D01*
X107583990Y-60826402D01*
X107335254Y-60723118D01*
X107065927Y-60722883D01*
X106817011Y-60825733D01*
X106626402Y-61016010D01*
X106523118Y-61264746D01*
X106522883Y-61534073D01*
X94427000Y-61534073D01*
X94427000Y-51800000D01*
X101979710Y-51800000D01*
X102074145Y-52274757D01*
X102343073Y-52677237D01*
X102745553Y-52946165D01*
X103220310Y-53040600D01*
X103579690Y-53040600D01*
X104054447Y-52946165D01*
X104456927Y-52677237D01*
X104498000Y-52615767D01*
X104498000Y-53524233D01*
X104456927Y-53462763D01*
X104054447Y-53193835D01*
X103579690Y-53099400D01*
X103220310Y-53099400D01*
X102745553Y-53193835D01*
X102343073Y-53462763D01*
X102074145Y-53865243D01*
X101979710Y-54340000D01*
X102074145Y-54814757D01*
X102343073Y-55217237D01*
X102745553Y-55486165D01*
X103220310Y-55580600D01*
X103579690Y-55580600D01*
X104054447Y-55486165D01*
X104456927Y-55217237D01*
X104498000Y-55155767D01*
X104498000Y-56064233D01*
X104456927Y-56002763D01*
X104054447Y-55733835D01*
X103579690Y-55639400D01*
X103220310Y-55639400D01*
X102745553Y-55733835D01*
X102343073Y-56002763D01*
X102074145Y-56405243D01*
X101979710Y-56880000D01*
X102074145Y-57354757D01*
X102343073Y-57757237D01*
X102745553Y-58026165D01*
X103220310Y-58120600D01*
X103579690Y-58120600D01*
X104054447Y-58026165D01*
X104456927Y-57757237D01*
X104714036Y-57372446D01*
X104858107Y-57343788D01*
X105020968Y-57234968D01*
X105354965Y-56900970D01*
X105354968Y-56900968D01*
X105449602Y-56759338D01*
X105463788Y-56738108D01*
X105502000Y-56546000D01*
X105502000Y-51697934D01*
X105590615Y-51609319D01*
X105590615Y-52600000D01*
X105619875Y-52747098D01*
X105703199Y-52871801D01*
X105827902Y-52955125D01*
X105975000Y-52984385D01*
X106098000Y-52984385D01*
X106098000Y-56820581D01*
X106097999Y-56820586D01*
X106136212Y-57012693D01*
X106245032Y-57175554D01*
X108397922Y-59328443D01*
X108379710Y-59420000D01*
X108474145Y-59894757D01*
X108743073Y-60297237D01*
X109145553Y-60566165D01*
X109620310Y-60660600D01*
X109979690Y-60660600D01*
X110454447Y-60566165D01*
X110856927Y-60297237D01*
X111125855Y-59894757D01*
X111220290Y-59420000D01*
X111125855Y-58945243D01*
X110856927Y-58542763D01*
X110454447Y-58273835D01*
X109979690Y-58179400D01*
X109620310Y-58179400D01*
X109145553Y-58273835D01*
X108916340Y-58426990D01*
X107369350Y-56880000D01*
X108379710Y-56880000D01*
X108474145Y-57354757D01*
X108743073Y-57757237D01*
X109145553Y-58026165D01*
X109620310Y-58120600D01*
X109979690Y-58120600D01*
X110399549Y-58037085D01*
X113517430Y-61154965D01*
X113517432Y-61154968D01*
X113596640Y-61207893D01*
X113680292Y-61263788D01*
X113872400Y-61302000D01*
X121799995Y-61302000D01*
X121800000Y-61302001D01*
X121992107Y-61263788D01*
X122154968Y-61154968D01*
X123098033Y-60211902D01*
X126154423Y-60211902D01*
X126216010Y-60273596D01*
X126464746Y-60376880D01*
X126734073Y-60377115D01*
X126982989Y-60274265D01*
X127173598Y-60083988D01*
X127176748Y-60076400D01*
X164999615Y-60076400D01*
X164999615Y-61803600D01*
X165028875Y-61950698D01*
X165112199Y-62075401D01*
X165236902Y-62158725D01*
X165384000Y-62187985D01*
X167416000Y-62187985D01*
X167563098Y-62158725D01*
X167687801Y-62075401D01*
X167771125Y-61950698D01*
X167800385Y-61803600D01*
X167800385Y-60076400D01*
X167771125Y-59929302D01*
X167687801Y-59804599D01*
X167563098Y-59721275D01*
X167416000Y-59692015D01*
X165384000Y-59692015D01*
X165236902Y-59721275D01*
X165112199Y-59804599D01*
X165028875Y-59929302D01*
X164999615Y-60076400D01*
X127176748Y-60076400D01*
X127276882Y-59835252D01*
X127277117Y-59565925D01*
X127174267Y-59317009D01*
X126983990Y-59126400D01*
X126735254Y-59023116D01*
X126465927Y-59022881D01*
X126217011Y-59125731D01*
X126134697Y-59207902D01*
X122890098Y-59207902D01*
X122697990Y-59246114D01*
X122651412Y-59277237D01*
X122535130Y-59354934D01*
X122535128Y-59354937D01*
X121592064Y-60298000D01*
X114080335Y-60298000D01*
X111866408Y-58084073D01*
X122322883Y-58084073D01*
X122425733Y-58332989D01*
X122616010Y-58523598D01*
X122864746Y-58626882D01*
X123134073Y-58627117D01*
X123190615Y-58603754D01*
X123190615Y-58800000D01*
X123219875Y-58947098D01*
X123303199Y-59071801D01*
X123427902Y-59155125D01*
X123575000Y-59184385D01*
X124825000Y-59184385D01*
X124972098Y-59155125D01*
X125096801Y-59071801D01*
X125180125Y-58947098D01*
X125209385Y-58800000D01*
X125209385Y-57300000D01*
X126790615Y-57300000D01*
X126790615Y-58800000D01*
X126819875Y-58947098D01*
X126903199Y-59071801D01*
X127027902Y-59155125D01*
X127175000Y-59184385D01*
X128425000Y-59184385D01*
X128572098Y-59155125D01*
X128696801Y-59071801D01*
X128780125Y-58947098D01*
X128809385Y-58800000D01*
X128809385Y-58734073D01*
X131522883Y-58734073D01*
X131625733Y-58982989D01*
X131816010Y-59173598D01*
X132064746Y-59276882D01*
X132334073Y-59277117D01*
X132582989Y-59174267D01*
X132655382Y-59102000D01*
X133458432Y-59102000D01*
X133482312Y-59222051D01*
X133565636Y-59346754D01*
X133690339Y-59430078D01*
X133837437Y-59459338D01*
X135137437Y-59459338D01*
X135284535Y-59430078D01*
X135409238Y-59346754D01*
X135492562Y-59222051D01*
X135521822Y-59074953D01*
X135521822Y-58826953D01*
X139453052Y-58826953D01*
X139453052Y-59074953D01*
X139482312Y-59222051D01*
X139565636Y-59346754D01*
X139690339Y-59430078D01*
X139837437Y-59459338D01*
X141137437Y-59459338D01*
X141284535Y-59430078D01*
X141409238Y-59346754D01*
X141492562Y-59222051D01*
X141521822Y-59074953D01*
X141521822Y-58800223D01*
X141579544Y-58788741D01*
X141742405Y-58679921D01*
X142022326Y-58400000D01*
X164979710Y-58400000D01*
X165074145Y-58874757D01*
X165343073Y-59277237D01*
X165745553Y-59546165D01*
X166220310Y-59640600D01*
X166579690Y-59640600D01*
X167054447Y-59546165D01*
X167456927Y-59277237D01*
X167725855Y-58874757D01*
X167820290Y-58400000D01*
X167725855Y-57925243D01*
X167456927Y-57522763D01*
X167054447Y-57253835D01*
X166579690Y-57159400D01*
X166220310Y-57159400D01*
X165745553Y-57253835D01*
X165343073Y-57522763D01*
X165074145Y-57925243D01*
X164979710Y-58400000D01*
X142022326Y-58400000D01*
X143754968Y-56667358D01*
X143863788Y-56504497D01*
X143902001Y-56312390D01*
X143902000Y-56312385D01*
X143902000Y-55860000D01*
X164979710Y-55860000D01*
X165074145Y-56334757D01*
X165343073Y-56737237D01*
X165745553Y-57006165D01*
X166220310Y-57100600D01*
X166579690Y-57100600D01*
X167054447Y-57006165D01*
X167456927Y-56737237D01*
X167725855Y-56334757D01*
X167820290Y-55860000D01*
X167725855Y-55385243D01*
X167456927Y-54982763D01*
X167054447Y-54713835D01*
X166579690Y-54619400D01*
X166220310Y-54619400D01*
X165745553Y-54713835D01*
X165343073Y-54982763D01*
X165074145Y-55385243D01*
X164979710Y-55860000D01*
X143902000Y-55860000D01*
X143902000Y-53273936D01*
X146354965Y-50820970D01*
X146354968Y-50820968D01*
X146420200Y-50723340D01*
X146463788Y-50658108D01*
X146475270Y-50600385D01*
X147016000Y-50600385D01*
X147163098Y-50571125D01*
X147287801Y-50487801D01*
X147371125Y-50363098D01*
X147400385Y-50216000D01*
X147400385Y-49980892D01*
X147555000Y-50212290D01*
X148006922Y-50514254D01*
X148540000Y-50620290D01*
X149073078Y-50514254D01*
X149525000Y-50212290D01*
X149826964Y-49760368D01*
X149933000Y-49227290D01*
X149933000Y-49172710D01*
X149826964Y-48639632D01*
X149525000Y-48187710D01*
X149519448Y-48184000D01*
X162459615Y-48184000D01*
X162459615Y-50216000D01*
X162488875Y-50363098D01*
X162572199Y-50487801D01*
X162696902Y-50571125D01*
X162844000Y-50600385D01*
X164876000Y-50600385D01*
X165023098Y-50571125D01*
X165147801Y-50487801D01*
X165231125Y-50363098D01*
X165260385Y-50216000D01*
X165260385Y-48184000D01*
X165231125Y-48036902D01*
X165147801Y-47912199D01*
X165023098Y-47828875D01*
X164876000Y-47799615D01*
X162844000Y-47799615D01*
X162696902Y-47828875D01*
X162572199Y-47912199D01*
X162488875Y-48036902D01*
X162459615Y-48184000D01*
X149519448Y-48184000D01*
X149073078Y-47885746D01*
X148540000Y-47779710D01*
X148006922Y-47885746D01*
X147555000Y-48187710D01*
X147400385Y-48419108D01*
X147400385Y-48184000D01*
X147371125Y-48036902D01*
X147287801Y-47912199D01*
X147163098Y-47828875D01*
X147016000Y-47799615D01*
X144984000Y-47799615D01*
X144836902Y-47828875D01*
X144712199Y-47912199D01*
X144628875Y-48036902D01*
X144599615Y-48184000D01*
X144599615Y-50216000D01*
X144628875Y-50363098D01*
X144712199Y-50487801D01*
X144836902Y-50571125D01*
X144984000Y-50600385D01*
X145155680Y-50600385D01*
X143045032Y-52711032D01*
X142936212Y-52873893D01*
X142897999Y-53066000D01*
X142898000Y-53066005D01*
X142898000Y-56104454D01*
X141506173Y-57496281D01*
X141492562Y-57427855D01*
X141409238Y-57303152D01*
X141284535Y-57219828D01*
X141137437Y-57190568D01*
X139837437Y-57190568D01*
X139690339Y-57219828D01*
X139565636Y-57303152D01*
X139482312Y-57427855D01*
X139453052Y-57574953D01*
X139453052Y-57822953D01*
X135521822Y-57822953D01*
X135521822Y-57574953D01*
X135492562Y-57427855D01*
X135409238Y-57303152D01*
X135284535Y-57219828D01*
X135137437Y-57190568D01*
X133837437Y-57190568D01*
X133690339Y-57219828D01*
X133565636Y-57303152D01*
X133482312Y-57427855D01*
X133453052Y-57574953D01*
X133453052Y-58098000D01*
X132655463Y-58098000D01*
X132583990Y-58026402D01*
X132335254Y-57923118D01*
X132065927Y-57922883D01*
X131817011Y-58025733D01*
X131626402Y-58216010D01*
X131523118Y-58464746D01*
X131522883Y-58734073D01*
X128809385Y-58734073D01*
X128809385Y-57300000D01*
X128780125Y-57152902D01*
X128696801Y-57028199D01*
X128572098Y-56944875D01*
X128476890Y-56925937D01*
X128477117Y-56665927D01*
X128374267Y-56417011D01*
X128183990Y-56226402D01*
X127935254Y-56123118D01*
X127665927Y-56122883D01*
X127417011Y-56225733D01*
X127226402Y-56416010D01*
X127123118Y-56664746D01*
X127122890Y-56925980D01*
X127027902Y-56944875D01*
X126903199Y-57028199D01*
X126819875Y-57152902D01*
X126790615Y-57300000D01*
X125209385Y-57300000D01*
X125180125Y-57152902D01*
X125096801Y-57028199D01*
X124972098Y-56944875D01*
X124825000Y-56915615D01*
X123575000Y-56915615D01*
X123427902Y-56944875D01*
X123303199Y-57028199D01*
X123219875Y-57152902D01*
X123191331Y-57296403D01*
X123135254Y-57273118D01*
X122865927Y-57272883D01*
X122617011Y-57375733D01*
X122426402Y-57566010D01*
X122323118Y-57814746D01*
X122322883Y-58084073D01*
X111866408Y-58084073D01*
X111127719Y-57345384D01*
X111220290Y-56880000D01*
X111125855Y-56405243D01*
X110856927Y-56002763D01*
X110454447Y-55733835D01*
X109979690Y-55639400D01*
X109620310Y-55639400D01*
X109145553Y-55733835D01*
X108743073Y-56002763D01*
X108474145Y-56405243D01*
X108379710Y-56880000D01*
X107369350Y-56880000D01*
X107102000Y-56612650D01*
X107102000Y-52984385D01*
X107225000Y-52984385D01*
X107372098Y-52955125D01*
X107496801Y-52871801D01*
X107580125Y-52747098D01*
X107593736Y-52678672D01*
X108258640Y-53343575D01*
X108258642Y-53343578D01*
X108380014Y-53424676D01*
X108421503Y-53452398D01*
X108613610Y-53490611D01*
X108613615Y-53490610D01*
X108724466Y-53490610D01*
X108474145Y-53865243D01*
X108379710Y-54340000D01*
X108474145Y-54814757D01*
X108743073Y-55217237D01*
X109145553Y-55486165D01*
X109620310Y-55580600D01*
X109979690Y-55580600D01*
X110454447Y-55486165D01*
X110856927Y-55217237D01*
X111125855Y-54814757D01*
X111220290Y-54340000D01*
X111125855Y-53865243D01*
X110875534Y-53490610D01*
X122814678Y-53490610D01*
X124107435Y-54783367D01*
X124270295Y-54892187D01*
X124462403Y-54930399D01*
X128216156Y-54930399D01*
X128216161Y-54930400D01*
X128408268Y-54892187D01*
X128571129Y-54783367D01*
X128575909Y-54778587D01*
X128677075Y-54778675D01*
X128925991Y-54675825D01*
X128998384Y-54603558D01*
X133565365Y-54603558D01*
X133482312Y-54727855D01*
X133453052Y-54874953D01*
X133453052Y-56374953D01*
X133482312Y-56522051D01*
X133565636Y-56646754D01*
X133690339Y-56730078D01*
X133837437Y-56759338D01*
X135137437Y-56759338D01*
X135284535Y-56730078D01*
X135409238Y-56646754D01*
X135492562Y-56522051D01*
X135521822Y-56374953D01*
X135521822Y-54874953D01*
X139453052Y-54874953D01*
X139453052Y-56374953D01*
X139482312Y-56522051D01*
X139565636Y-56646754D01*
X139690339Y-56730078D01*
X139837437Y-56759338D01*
X141137437Y-56759338D01*
X141284535Y-56730078D01*
X141409238Y-56646754D01*
X141492562Y-56522051D01*
X141521822Y-56374953D01*
X141521822Y-54874953D01*
X141492562Y-54727855D01*
X141409238Y-54603152D01*
X141284535Y-54519828D01*
X141137437Y-54490568D01*
X140989437Y-54490568D01*
X140989437Y-54372366D01*
X141018677Y-54343177D01*
X141121961Y-54094441D01*
X141122196Y-53825114D01*
X141019346Y-53576198D01*
X140829069Y-53385589D01*
X140580333Y-53282305D01*
X140311006Y-53282070D01*
X140062090Y-53384920D01*
X139871481Y-53575197D01*
X139768197Y-53823933D01*
X139767962Y-54093260D01*
X139870812Y-54342176D01*
X139985437Y-54457001D01*
X139985437Y-54490568D01*
X139837437Y-54490568D01*
X139690339Y-54519828D01*
X139565636Y-54603152D01*
X139482312Y-54727855D01*
X139453052Y-54874953D01*
X135521822Y-54874953D01*
X135492562Y-54727855D01*
X135409238Y-54603152D01*
X135284535Y-54519828D01*
X135137437Y-54490568D01*
X134989437Y-54490568D01*
X134989437Y-54440253D01*
X135070600Y-54359231D01*
X135173884Y-54110495D01*
X135174119Y-53841168D01*
X135071269Y-53592252D01*
X134880992Y-53401643D01*
X134632256Y-53298359D01*
X134362929Y-53298124D01*
X134114013Y-53400974D01*
X133923404Y-53591251D01*
X133919955Y-53599558D01*
X131198611Y-53599558D01*
X131761096Y-53037073D01*
X131862262Y-53037161D01*
X132111178Y-52934311D01*
X132301787Y-52744034D01*
X132405071Y-52495298D01*
X132405306Y-52225971D01*
X132302456Y-51977055D01*
X132112179Y-51786446D01*
X131863443Y-51683162D01*
X131594116Y-51682927D01*
X131345200Y-51785777D01*
X131154591Y-51976054D01*
X131051307Y-52224790D01*
X131051218Y-52327080D01*
X130416108Y-52962189D01*
X125352203Y-52962189D01*
X125352198Y-52962188D01*
X125172101Y-52998012D01*
X125160091Y-53000401D01*
X124997230Y-53109221D01*
X124997228Y-53109224D01*
X124983468Y-53122983D01*
X124882302Y-53122895D01*
X124633386Y-53225745D01*
X124442777Y-53416022D01*
X124359798Y-53615858D01*
X123377582Y-52633642D01*
X123214721Y-52524822D01*
X123022614Y-52486609D01*
X123022609Y-52486610D01*
X121814034Y-52486610D01*
X121876882Y-52335254D01*
X121877117Y-52065927D01*
X121774267Y-51817011D01*
X121702000Y-51744618D01*
X121702000Y-48943334D01*
X121952015Y-48693319D01*
X121952015Y-50216000D01*
X121981275Y-50363098D01*
X122064599Y-50487801D01*
X122189302Y-50571125D01*
X122336400Y-50600385D01*
X124063600Y-50600385D01*
X124210698Y-50571125D01*
X124335401Y-50487801D01*
X124418725Y-50363098D01*
X124447985Y-50216000D01*
X124447985Y-48184000D01*
X124428431Y-48085698D01*
X127488631Y-48085698D01*
X127402763Y-48143073D01*
X127133835Y-48545553D01*
X127039400Y-49020310D01*
X127039400Y-49379690D01*
X127133835Y-49854447D01*
X127402763Y-50256927D01*
X127805243Y-50525855D01*
X128280000Y-50620290D01*
X128745384Y-50527719D01*
X129328063Y-51110398D01*
X129328065Y-51110401D01*
X129371500Y-51139423D01*
X129490925Y-51219221D01*
X129683033Y-51257433D01*
X140744537Y-51257433D01*
X140816010Y-51329031D01*
X141064746Y-51432315D01*
X141334073Y-51432550D01*
X141582989Y-51329700D01*
X141773598Y-51139423D01*
X141876882Y-50890687D01*
X141877117Y-50621360D01*
X141774267Y-50372444D01*
X141738290Y-50336405D01*
X141857237Y-50256927D01*
X142126165Y-49854447D01*
X142220600Y-49379690D01*
X142220600Y-49020310D01*
X142126165Y-48545553D01*
X141857237Y-48143073D01*
X141454757Y-47874145D01*
X140980000Y-47779710D01*
X140514616Y-47872280D01*
X139871066Y-47228730D01*
X139708205Y-47119910D01*
X139516098Y-47081697D01*
X139516093Y-47081698D01*
X122351705Y-47081698D01*
X122351700Y-47081697D01*
X122159593Y-47119910D01*
X121996732Y-47228730D01*
X121996730Y-47228733D01*
X120845032Y-48380430D01*
X120736212Y-48543291D01*
X120697999Y-48735398D01*
X120698000Y-48735403D01*
X120698000Y-51744537D01*
X120626402Y-51816010D01*
X120600063Y-51879442D01*
X120574267Y-51817011D01*
X120502000Y-51744618D01*
X120502000Y-47407936D01*
X120832907Y-47077029D01*
X120934073Y-47077117D01*
X121182989Y-46974267D01*
X121373598Y-46783990D01*
X121476882Y-46535254D01*
X121477117Y-46265927D01*
X121374267Y-46017011D01*
X121183990Y-45826402D01*
X120935254Y-45723118D01*
X120665927Y-45722883D01*
X120417011Y-45825733D01*
X120226402Y-46016010D01*
X120123118Y-46264746D01*
X120123029Y-46367036D01*
X119645032Y-46845032D01*
X119536212Y-47007893D01*
X119497999Y-47200000D01*
X119498000Y-47200005D01*
X119498000Y-51744537D01*
X119426402Y-51816010D01*
X119323118Y-52064746D01*
X119322883Y-52334073D01*
X119385910Y-52486610D01*
X110984300Y-52486610D01*
X111125855Y-52274757D01*
X111220290Y-51800000D01*
X111125855Y-51325243D01*
X110856927Y-50922763D01*
X110454447Y-50653835D01*
X109979690Y-50559400D01*
X109620310Y-50559400D01*
X109145553Y-50653835D01*
X108743073Y-50922763D01*
X108474145Y-51325243D01*
X108379710Y-51800000D01*
X108440488Y-52105553D01*
X107829968Y-51495032D01*
X107667107Y-51386212D01*
X107609385Y-51374730D01*
X107609385Y-51100000D01*
X107580125Y-50952902D01*
X107568473Y-50935463D01*
X108399615Y-50104320D01*
X108399615Y-50123600D01*
X108428875Y-50270698D01*
X108512199Y-50395401D01*
X108636902Y-50478725D01*
X108784000Y-50507985D01*
X110816000Y-50507985D01*
X110963098Y-50478725D01*
X111087801Y-50395401D01*
X111171125Y-50270698D01*
X111200385Y-50123600D01*
X111200385Y-49702000D01*
X113115615Y-49702000D01*
X113115615Y-49850000D01*
X113144875Y-49997098D01*
X113228199Y-50121801D01*
X113352902Y-50205125D01*
X113500000Y-50234385D01*
X115000000Y-50234385D01*
X115147098Y-50205125D01*
X115271801Y-50121801D01*
X115355125Y-49997098D01*
X115384385Y-49850000D01*
X115384385Y-48875551D01*
X115841856Y-48418080D01*
X115815615Y-48550000D01*
X115815615Y-49850000D01*
X115844875Y-49997098D01*
X115928199Y-50121801D01*
X116052902Y-50205125D01*
X116200000Y-50234385D01*
X117700000Y-50234385D01*
X117847098Y-50205125D01*
X117971801Y-50121801D01*
X118055125Y-49997098D01*
X118084385Y-49850000D01*
X118084385Y-49801990D01*
X118264746Y-49876882D01*
X118534073Y-49877117D01*
X118782989Y-49774267D01*
X118973598Y-49583990D01*
X119076882Y-49335254D01*
X119077117Y-49065927D01*
X118974267Y-48817011D01*
X118783990Y-48626402D01*
X118535254Y-48523118D01*
X118265927Y-48522883D01*
X118084385Y-48597895D01*
X118084385Y-48550000D01*
X118055125Y-48402902D01*
X117971801Y-48278199D01*
X117847098Y-48194875D01*
X117700000Y-48165615D01*
X116200000Y-48165615D01*
X116068080Y-48191856D01*
X117357936Y-46902000D01*
X118344537Y-46902000D01*
X118416010Y-46973598D01*
X118664746Y-47076882D01*
X118934073Y-47077117D01*
X119182989Y-46974267D01*
X119373598Y-46783990D01*
X119476882Y-46535254D01*
X119477117Y-46265927D01*
X119374267Y-46017011D01*
X119183990Y-45826402D01*
X118935254Y-45723118D01*
X118665927Y-45722883D01*
X118417011Y-45825733D01*
X118344618Y-45898000D01*
X117150005Y-45898000D01*
X117150000Y-45897999D01*
X116957893Y-45936212D01*
X116795032Y-46045032D01*
X114674449Y-48165615D01*
X113500000Y-48165615D01*
X113352902Y-48194875D01*
X113228199Y-48278199D01*
X113144875Y-48402902D01*
X113115615Y-48550000D01*
X113115615Y-48698000D01*
X111200385Y-48698000D01*
X111200385Y-48396400D01*
X111171125Y-48249302D01*
X111087801Y-48124599D01*
X110963098Y-48041275D01*
X110816000Y-48012015D01*
X108784000Y-48012015D01*
X108636902Y-48041275D01*
X108512199Y-48124599D01*
X108428875Y-48249302D01*
X108399615Y-48396400D01*
X108399615Y-48784730D01*
X108341892Y-48796212D01*
X108312263Y-48816010D01*
X108179032Y-48905032D01*
X108179030Y-48905035D01*
X107609385Y-49474680D01*
X107609385Y-48600000D01*
X107580125Y-48452902D01*
X107496801Y-48328199D01*
X107372098Y-48244875D01*
X107225000Y-48215615D01*
X105975000Y-48215615D01*
X105827902Y-48244875D01*
X105703199Y-48328199D01*
X105619875Y-48452902D01*
X105590615Y-48600000D01*
X105590615Y-48758000D01*
X104800385Y-48758000D01*
X104800385Y-48396400D01*
X104771125Y-48249302D01*
X104687801Y-48124599D01*
X104563098Y-48041275D01*
X104416000Y-48012015D01*
X102384000Y-48012015D01*
X102236902Y-48041275D01*
X102112199Y-48124599D01*
X102028875Y-48249302D01*
X101999615Y-48396400D01*
X101999615Y-50123600D01*
X102028875Y-50270698D01*
X102112199Y-50395401D01*
X102236902Y-50478725D01*
X102384000Y-50507985D01*
X104416000Y-50507985D01*
X104563098Y-50478725D01*
X104687801Y-50395401D01*
X104771125Y-50270698D01*
X104800385Y-50123600D01*
X104800385Y-49762000D01*
X105590615Y-49762000D01*
X105590615Y-50100000D01*
X105610231Y-50198616D01*
X105523480Y-50256582D01*
X104645032Y-51135030D01*
X104621895Y-51169656D01*
X104456927Y-50922763D01*
X104054447Y-50653835D01*
X103579690Y-50559400D01*
X103220310Y-50559400D01*
X102745553Y-50653835D01*
X102343073Y-50922763D01*
X102074145Y-51325243D01*
X101979710Y-51800000D01*
X94427000Y-51800000D01*
X94427000Y-46771720D01*
X95522675Y-46771720D01*
X95807829Y-47461846D01*
X96335376Y-47990316D01*
X97025004Y-48276674D01*
X97771720Y-48277325D01*
X98461846Y-47992171D01*
X98990316Y-47464624D01*
X99276674Y-46774996D01*
X99277325Y-46028280D01*
X98992171Y-45338154D01*
X98588796Y-44934073D01*
X126322883Y-44934073D01*
X126425733Y-45182989D01*
X126616010Y-45373598D01*
X126864746Y-45476882D01*
X127134073Y-45477117D01*
X127382989Y-45374267D01*
X127455382Y-45302000D01*
X139201339Y-45302000D01*
X142681284Y-48781944D01*
X142681196Y-48883111D01*
X142784046Y-49132027D01*
X142974323Y-49322636D01*
X143223059Y-49425920D01*
X143492386Y-49426155D01*
X143741302Y-49323305D01*
X143931911Y-49133028D01*
X144035195Y-48884292D01*
X144035430Y-48614965D01*
X143932580Y-48366049D01*
X143742303Y-48175440D01*
X143493567Y-48072156D01*
X143391277Y-48072067D01*
X142090931Y-46771720D01*
X169722675Y-46771720D01*
X170007829Y-47461846D01*
X170535376Y-47990316D01*
X171225004Y-48276674D01*
X171971720Y-48277325D01*
X172661846Y-47992171D01*
X173190316Y-47464624D01*
X173476674Y-46774996D01*
X173477325Y-46028280D01*
X173192171Y-45338154D01*
X172664624Y-44809684D01*
X171974996Y-44523326D01*
X171228280Y-44522675D01*
X170538154Y-44807829D01*
X170009684Y-45335376D01*
X169723326Y-46025004D01*
X169722675Y-46771720D01*
X142090931Y-46771720D01*
X139764243Y-44445032D01*
X139601382Y-44336212D01*
X139409275Y-44297999D01*
X139409270Y-44298000D01*
X127455463Y-44298000D01*
X127383990Y-44226402D01*
X127135254Y-44123118D01*
X126865927Y-44122883D01*
X126617011Y-44225733D01*
X126426402Y-44416010D01*
X126323118Y-44664746D01*
X126322883Y-44934073D01*
X98588796Y-44934073D01*
X98464624Y-44809684D01*
X97774996Y-44523326D01*
X97028280Y-44522675D01*
X96338154Y-44807829D01*
X95809684Y-45335376D01*
X95523326Y-46025004D01*
X95522675Y-46771720D01*
X94427000Y-46771720D01*
X94427000Y-43427000D01*
X174573000Y-43427000D01*
X174573000Y-67573000D01*
M02*
