M48
;DRILL file {KiCad 0.201602181416+6564~42~ubuntu15.04.1-product} date Mon 22 Feb 2016 02:26:11 PM EST
;FORMAT={3:3/ absolute / metric / keep zeros}
FMAT,2
METRIC,TZ
T1C0.400
T2C1.016
T3C3.000
%
G90
G05
M71
T1
X112602Y-044777
X115866Y-044791
X120600Y-037800
X121000Y-051000
X123000Y-036200
X123000Y-043600
X123080Y-056391
X126200Y-051000
X126265Y-047143
X126367Y-048753
X127200Y-045403
X130925Y-045528
X131286Y-048427
X131767Y-046953
X131767Y-050353
X134800Y-058000
X134800Y-061000
X135600Y-065800
X136000Y-030800
X138600Y-050000
X140657Y-040230
X140800Y-042400
X146600Y-054000
X156000Y-059200
X157600Y-055800
X165400Y-056800
X166800Y-054800
X167200Y-048200
X167200Y-050800
X168000Y-047400
X168000Y-049600
X168000Y-051800
X168800Y-048200
X168800Y-050800
X169212Y-032524
X169229Y-031392
X169245Y-033753
T2
X107600Y-041980
X107600Y-044520
X107600Y-047060
X107600Y-049600
X107600Y-052140
X107600Y-054680
X141240Y-033800
X142027Y-045613
X142027Y-048153
X142027Y-050693
X143780Y-033800
X144567Y-045613
X144567Y-048153
X144567Y-050693
X146320Y-033800
X148860Y-033800
X151400Y-033800
X153940Y-033800
X154460Y-041000
X156480Y-033800
X157000Y-041000
X159020Y-033800
X176400Y-034260
X176400Y-036800
X176400Y-047060
X176400Y-049600
X176400Y-052140
T3
X104000Y-029000
X104000Y-066000
X175000Y-029000
X175000Y-066000
T0
M30
