G04 #@! TF.FileFunction,Legend,Top*
%FSLAX46Y46*%
G04 Gerber Fmt 4.6, Leading zero omitted, Abs format (unit mm)*
G04 Created by KiCad (PCBNEW 0.201602181416+6564~42~ubuntu15.04.1-product) date Mon 22 Feb 2016 02:25:23 PM EST*
%MOMM*%
G01*
G04 APERTURE LIST*
%ADD10C,0.100000*%
%ADD11C,0.300000*%
%ADD12C,0.200000*%
%ADD13C,0.150000*%
G04 APERTURE END LIST*
D10*
D11*
X173707143Y-34571428D02*
X173707143Y-33428571D01*
X173028572Y-37307143D02*
X174171429Y-37307143D01*
X173600000Y-37878571D02*
X173600000Y-36735714D01*
D12*
X139800000Y-45600000D02*
G75*
G03X139800000Y-45600000I-200000J0D01*
G01*
X123282843Y-45400000D02*
G75*
G03X123282843Y-45400000I-282843J0D01*
G01*
X163800000Y-46000000D02*
G75*
G03X163800000Y-46000000I-200000J0D01*
G01*
D13*
X144466667Y-65302381D02*
X143895238Y-65302381D01*
X144180952Y-65302381D02*
X144180952Y-64302381D01*
X144085714Y-64445238D01*
X143990476Y-64540476D01*
X143895238Y-64588095D01*
X144895238Y-64921429D02*
X145657143Y-64921429D01*
X146133333Y-65302381D02*
X146133333Y-64302381D01*
X146371428Y-64302381D01*
X146514286Y-64350000D01*
X146609524Y-64445238D01*
X146657143Y-64540476D01*
X146704762Y-64730952D01*
X146704762Y-64873810D01*
X146657143Y-65064286D01*
X146609524Y-65159524D01*
X146514286Y-65254762D01*
X146371428Y-65302381D01*
X146133333Y-65302381D01*
X148419048Y-64350000D02*
X148323810Y-64302381D01*
X148180953Y-64302381D01*
X148038095Y-64350000D01*
X147942857Y-64445238D01*
X147895238Y-64540476D01*
X147847619Y-64730952D01*
X147847619Y-64873810D01*
X147895238Y-65064286D01*
X147942857Y-65159524D01*
X148038095Y-65254762D01*
X148180953Y-65302381D01*
X148276191Y-65302381D01*
X148419048Y-65254762D01*
X148466667Y-65207143D01*
X148466667Y-64873810D01*
X148276191Y-64873810D01*
X148895238Y-65302381D02*
X148895238Y-64635714D01*
X148895238Y-64302381D02*
X148847619Y-64350000D01*
X148895238Y-64397619D01*
X148942857Y-64350000D01*
X148895238Y-64302381D01*
X148895238Y-64397619D01*
X149371428Y-65302381D02*
X149371428Y-64635714D01*
X149371428Y-64730952D02*
X149419047Y-64683333D01*
X149514285Y-64635714D01*
X149657143Y-64635714D01*
X149752381Y-64683333D01*
X149800000Y-64778571D01*
X149800000Y-65302381D01*
X149800000Y-64778571D02*
X149847619Y-64683333D01*
X149942857Y-64635714D01*
X150085714Y-64635714D01*
X150180952Y-64683333D01*
X150228571Y-64778571D01*
X150228571Y-65302381D01*
X150704761Y-65302381D02*
X150704761Y-64302381D01*
X150704761Y-64683333D02*
X150799999Y-64635714D01*
X150990476Y-64635714D01*
X151085714Y-64683333D01*
X151133333Y-64730952D01*
X151180952Y-64826190D01*
X151180952Y-65111905D01*
X151133333Y-65207143D01*
X151085714Y-65254762D01*
X150990476Y-65302381D01*
X150799999Y-65302381D01*
X150704761Y-65254762D01*
X152038095Y-65302381D02*
X152038095Y-64778571D01*
X151990476Y-64683333D01*
X151895238Y-64635714D01*
X151704761Y-64635714D01*
X151609523Y-64683333D01*
X152038095Y-65254762D02*
X151942857Y-65302381D01*
X151704761Y-65302381D01*
X151609523Y-65254762D01*
X151561904Y-65159524D01*
X151561904Y-65064286D01*
X151609523Y-64969048D01*
X151704761Y-64921429D01*
X151942857Y-64921429D01*
X152038095Y-64873810D01*
X152657142Y-65302381D02*
X152561904Y-65254762D01*
X152514285Y-65159524D01*
X152514285Y-64302381D01*
X154133334Y-64778571D02*
X154276191Y-64826190D01*
X154323810Y-64873810D01*
X154371429Y-64969048D01*
X154371429Y-65111905D01*
X154323810Y-65207143D01*
X154276191Y-65254762D01*
X154180953Y-65302381D01*
X153800000Y-65302381D01*
X153800000Y-64302381D01*
X154133334Y-64302381D01*
X154228572Y-64350000D01*
X154276191Y-64397619D01*
X154323810Y-64492857D01*
X154323810Y-64588095D01*
X154276191Y-64683333D01*
X154228572Y-64730952D01*
X154133334Y-64778571D01*
X153800000Y-64778571D01*
X154942857Y-65302381D02*
X154847619Y-65254762D01*
X154800000Y-65207143D01*
X154752381Y-65111905D01*
X154752381Y-64826190D01*
X154800000Y-64730952D01*
X154847619Y-64683333D01*
X154942857Y-64635714D01*
X155085715Y-64635714D01*
X155180953Y-64683333D01*
X155228572Y-64730952D01*
X155276191Y-64826190D01*
X155276191Y-65111905D01*
X155228572Y-65207143D01*
X155180953Y-65254762D01*
X155085715Y-65302381D01*
X154942857Y-65302381D01*
X156133334Y-65302381D02*
X156133334Y-64778571D01*
X156085715Y-64683333D01*
X155990477Y-64635714D01*
X155800000Y-64635714D01*
X155704762Y-64683333D01*
X156133334Y-65254762D02*
X156038096Y-65302381D01*
X155800000Y-65302381D01*
X155704762Y-65254762D01*
X155657143Y-65159524D01*
X155657143Y-65064286D01*
X155704762Y-64969048D01*
X155800000Y-64921429D01*
X156038096Y-64921429D01*
X156133334Y-64873810D01*
X156609524Y-65302381D02*
X156609524Y-64635714D01*
X156609524Y-64826190D02*
X156657143Y-64730952D01*
X156704762Y-64683333D01*
X156800000Y-64635714D01*
X156895239Y-64635714D01*
X157657144Y-65302381D02*
X157657144Y-64302381D01*
X157657144Y-65254762D02*
X157561906Y-65302381D01*
X157371429Y-65302381D01*
X157276191Y-65254762D01*
X157228572Y-65207143D01*
X157180953Y-65111905D01*
X157180953Y-64826190D01*
X157228572Y-64730952D01*
X157276191Y-64683333D01*
X157371429Y-64635714D01*
X157561906Y-64635714D01*
X157657144Y-64683333D01*
X146085713Y-66852381D02*
X146085713Y-65852381D01*
X146466666Y-65852381D01*
X146561904Y-65900000D01*
X146609523Y-65947619D01*
X146657142Y-66042857D01*
X146657142Y-66185714D01*
X146609523Y-66280952D01*
X146561904Y-66328571D01*
X146466666Y-66376190D01*
X146085713Y-66376190D01*
X147514285Y-66852381D02*
X147514285Y-66328571D01*
X147466666Y-66233333D01*
X147371428Y-66185714D01*
X147180951Y-66185714D01*
X147085713Y-66233333D01*
X147514285Y-66804762D02*
X147419047Y-66852381D01*
X147180951Y-66852381D01*
X147085713Y-66804762D01*
X147038094Y-66709524D01*
X147038094Y-66614286D01*
X147085713Y-66519048D01*
X147180951Y-66471429D01*
X147419047Y-66471429D01*
X147514285Y-66423810D01*
X147847618Y-66185714D02*
X148228570Y-66185714D01*
X147990475Y-65852381D02*
X147990475Y-66709524D01*
X148038094Y-66804762D01*
X148133332Y-66852381D01*
X148228570Y-66852381D01*
X148561904Y-66852381D02*
X148561904Y-66185714D01*
X148561904Y-66376190D02*
X148609523Y-66280952D01*
X148657142Y-66233333D01*
X148752380Y-66185714D01*
X148847619Y-66185714D01*
X149180952Y-66852381D02*
X149180952Y-66185714D01*
X149180952Y-65852381D02*
X149133333Y-65900000D01*
X149180952Y-65947619D01*
X149228571Y-65900000D01*
X149180952Y-65852381D01*
X149180952Y-65947619D01*
X150085714Y-66804762D02*
X149990476Y-66852381D01*
X149799999Y-66852381D01*
X149704761Y-66804762D01*
X149657142Y-66757143D01*
X149609523Y-66661905D01*
X149609523Y-66376190D01*
X149657142Y-66280952D01*
X149704761Y-66233333D01*
X149799999Y-66185714D01*
X149990476Y-66185714D01*
X150085714Y-66233333D01*
X150514285Y-66852381D02*
X150514285Y-65852381D01*
X150609523Y-66471429D02*
X150895238Y-66852381D01*
X150895238Y-66185714D02*
X150514285Y-66566667D01*
X152561905Y-66852381D02*
X152085714Y-66852381D01*
X152085714Y-65852381D01*
X153038095Y-66852381D02*
X152942857Y-66804762D01*
X152895238Y-66709524D01*
X152895238Y-65852381D01*
X153561905Y-66852381D02*
X153466667Y-66804762D01*
X153419048Y-66757143D01*
X153371429Y-66661905D01*
X153371429Y-66376190D01*
X153419048Y-66280952D01*
X153466667Y-66233333D01*
X153561905Y-66185714D01*
X153704763Y-66185714D01*
X153800001Y-66233333D01*
X153847620Y-66280952D01*
X153895239Y-66376190D01*
X153895239Y-66661905D01*
X153847620Y-66757143D01*
X153800001Y-66804762D01*
X153704763Y-66852381D01*
X153561905Y-66852381D01*
X154228572Y-66185714D02*
X154466667Y-66852381D01*
X154704763Y-66185714D02*
X154466667Y-66852381D01*
X154371429Y-67090476D01*
X154323810Y-67138095D01*
X154228572Y-67185714D01*
X155514287Y-66852381D02*
X155514287Y-65852381D01*
X155514287Y-66804762D02*
X155419049Y-66852381D01*
X155228572Y-66852381D01*
X155133334Y-66804762D01*
X155085715Y-66757143D01*
X155038096Y-66661905D01*
X155038096Y-66376190D01*
X155085715Y-66280952D01*
X155133334Y-66233333D01*
X155228572Y-66185714D01*
X155419049Y-66185714D01*
X155514287Y-66233333D01*
X149085714Y-67497619D02*
X149133333Y-67450000D01*
X149228571Y-67402381D01*
X149466667Y-67402381D01*
X149561905Y-67450000D01*
X149609524Y-67497619D01*
X149657143Y-67592857D01*
X149657143Y-67688095D01*
X149609524Y-67830952D01*
X149038095Y-68402381D01*
X149657143Y-68402381D01*
X150276190Y-67402381D02*
X150371429Y-67402381D01*
X150466667Y-67450000D01*
X150514286Y-67497619D01*
X150561905Y-67592857D01*
X150609524Y-67783333D01*
X150609524Y-68021429D01*
X150561905Y-68211905D01*
X150514286Y-68307143D01*
X150466667Y-68354762D01*
X150371429Y-68402381D01*
X150276190Y-68402381D01*
X150180952Y-68354762D01*
X150133333Y-68307143D01*
X150085714Y-68211905D01*
X150038095Y-68021429D01*
X150038095Y-67783333D01*
X150085714Y-67592857D01*
X150133333Y-67497619D01*
X150180952Y-67450000D01*
X150276190Y-67402381D01*
X151561905Y-68402381D02*
X150990476Y-68402381D01*
X151276190Y-68402381D02*
X151276190Y-67402381D01*
X151180952Y-67545238D01*
X151085714Y-67640476D01*
X150990476Y-67688095D01*
X152419048Y-67402381D02*
X152228571Y-67402381D01*
X152133333Y-67450000D01*
X152085714Y-67497619D01*
X151990476Y-67640476D01*
X151942857Y-67830952D01*
X151942857Y-68211905D01*
X151990476Y-68307143D01*
X152038095Y-68354762D01*
X152133333Y-68402381D01*
X152323810Y-68402381D01*
X152419048Y-68354762D01*
X152466667Y-68307143D01*
X152514286Y-68211905D01*
X152514286Y-67973810D01*
X152466667Y-67878571D01*
X152419048Y-67830952D01*
X152323810Y-67783333D01*
X152133333Y-67783333D01*
X152038095Y-67830952D01*
X151990476Y-67878571D01*
X151942857Y-67973810D01*
X162052381Y-34704762D02*
X161052381Y-34704762D01*
X162052381Y-34228572D02*
X161052381Y-34228572D01*
X162052381Y-33657143D01*
X161052381Y-33657143D01*
X161052381Y-33323810D02*
X161052381Y-32752381D01*
X162052381Y-33038096D02*
X161052381Y-33038096D01*
X149204762Y-38414286D02*
X149252381Y-38271429D01*
X149252381Y-38033333D01*
X149204762Y-37938095D01*
X149157143Y-37890476D01*
X149061905Y-37842857D01*
X148966667Y-37842857D01*
X148871429Y-37890476D01*
X148823810Y-37938095D01*
X148776190Y-38033333D01*
X148728571Y-38223810D01*
X148680952Y-38319048D01*
X148633333Y-38366667D01*
X148538095Y-38414286D01*
X148442857Y-38414286D01*
X148347619Y-38366667D01*
X148300000Y-38319048D01*
X148252381Y-38223810D01*
X148252381Y-37985714D01*
X148300000Y-37842857D01*
X149252381Y-37414286D02*
X148252381Y-37414286D01*
X148252381Y-37176191D01*
X148300000Y-37033333D01*
X148395238Y-36938095D01*
X148490476Y-36890476D01*
X148680952Y-36842857D01*
X148823810Y-36842857D01*
X149014286Y-36890476D01*
X149109524Y-36938095D01*
X149204762Y-37033333D01*
X149252381Y-37176191D01*
X149252381Y-37414286D01*
X148966667Y-36461905D02*
X148966667Y-35985714D01*
X149252381Y-36557143D02*
X148252381Y-36223810D01*
X149252381Y-35890476D01*
X146804762Y-38390476D02*
X146852381Y-38247619D01*
X146852381Y-38009523D01*
X146804762Y-37914285D01*
X146757143Y-37866666D01*
X146661905Y-37819047D01*
X146566667Y-37819047D01*
X146471429Y-37866666D01*
X146423810Y-37914285D01*
X146376190Y-38009523D01*
X146328571Y-38200000D01*
X146280952Y-38295238D01*
X146233333Y-38342857D01*
X146138095Y-38390476D01*
X146042857Y-38390476D01*
X145947619Y-38342857D01*
X145900000Y-38295238D01*
X145852381Y-38200000D01*
X145852381Y-37961904D01*
X145900000Y-37819047D01*
X146757143Y-36819047D02*
X146804762Y-36866666D01*
X146852381Y-37009523D01*
X146852381Y-37104761D01*
X146804762Y-37247619D01*
X146709524Y-37342857D01*
X146614286Y-37390476D01*
X146423810Y-37438095D01*
X146280952Y-37438095D01*
X146090476Y-37390476D01*
X145995238Y-37342857D01*
X145900000Y-37247619D01*
X145852381Y-37104761D01*
X145852381Y-37009523D01*
X145900000Y-36866666D01*
X145947619Y-36819047D01*
X146852381Y-35914285D02*
X146852381Y-36390476D01*
X145852381Y-36390476D01*
X143300000Y-38161904D02*
X143252381Y-38257142D01*
X143252381Y-38399999D01*
X143300000Y-38542857D01*
X143395238Y-38638095D01*
X143490476Y-38685714D01*
X143680952Y-38733333D01*
X143823810Y-38733333D01*
X144014286Y-38685714D01*
X144109524Y-38638095D01*
X144204762Y-38542857D01*
X144252381Y-38399999D01*
X144252381Y-38304761D01*
X144204762Y-38161904D01*
X144157143Y-38114285D01*
X143823810Y-38114285D01*
X143823810Y-38304761D01*
X144252381Y-37685714D02*
X143252381Y-37685714D01*
X144252381Y-37114285D01*
X143252381Y-37114285D01*
X144252381Y-36638095D02*
X143252381Y-36638095D01*
X143252381Y-36400000D01*
X143300000Y-36257142D01*
X143395238Y-36161904D01*
X143490476Y-36114285D01*
X143680952Y-36066666D01*
X143823810Y-36066666D01*
X144014286Y-36114285D01*
X144109524Y-36161904D01*
X144204762Y-36257142D01*
X144252381Y-36400000D01*
X144252381Y-36638095D01*
X140652381Y-38733333D02*
X141652381Y-38400000D01*
X140652381Y-38066666D01*
X141557143Y-37161904D02*
X141604762Y-37209523D01*
X141652381Y-37352380D01*
X141652381Y-37447618D01*
X141604762Y-37590476D01*
X141509524Y-37685714D01*
X141414286Y-37733333D01*
X141223810Y-37780952D01*
X141080952Y-37780952D01*
X140890476Y-37733333D01*
X140795238Y-37685714D01*
X140700000Y-37590476D01*
X140652381Y-37447618D01*
X140652381Y-37352380D01*
X140700000Y-37209523D01*
X140747619Y-37161904D01*
X141557143Y-36161904D02*
X141604762Y-36209523D01*
X141652381Y-36352380D01*
X141652381Y-36447618D01*
X141604762Y-36590476D01*
X141509524Y-36685714D01*
X141414286Y-36733333D01*
X141223810Y-36780952D01*
X141080952Y-36780952D01*
X140890476Y-36733333D01*
X140795238Y-36685714D01*
X140700000Y-36590476D01*
X140652381Y-36447618D01*
X140652381Y-36352380D01*
X140700000Y-36209523D01*
X140747619Y-36161904D01*
X103200000Y-44052381D02*
X103771429Y-44052381D01*
X103485714Y-45052381D02*
X103485714Y-44052381D01*
X104009524Y-44052381D02*
X104676191Y-45052381D01*
X104676191Y-44052381D02*
X104009524Y-45052381D01*
X105057143Y-45052381D02*
X105057143Y-44052381D01*
X103795239Y-47652381D02*
X103461905Y-47176190D01*
X103223810Y-47652381D02*
X103223810Y-46652381D01*
X103604763Y-46652381D01*
X103700001Y-46700000D01*
X103747620Y-46747619D01*
X103795239Y-46842857D01*
X103795239Y-46985714D01*
X103747620Y-47080952D01*
X103700001Y-47128571D01*
X103604763Y-47176190D01*
X103223810Y-47176190D01*
X104128572Y-46652381D02*
X104795239Y-47652381D01*
X104795239Y-46652381D02*
X104128572Y-47652381D01*
X105176191Y-47652381D02*
X105176191Y-46652381D01*
X102866667Y-49052381D02*
X103200000Y-50052381D01*
X103533334Y-49052381D01*
X104438096Y-49957143D02*
X104390477Y-50004762D01*
X104247620Y-50052381D01*
X104152382Y-50052381D01*
X104009524Y-50004762D01*
X103914286Y-49909524D01*
X103866667Y-49814286D01*
X103819048Y-49623810D01*
X103819048Y-49480952D01*
X103866667Y-49290476D01*
X103914286Y-49195238D01*
X104009524Y-49100000D01*
X104152382Y-49052381D01*
X104247620Y-49052381D01*
X104390477Y-49100000D01*
X104438096Y-49147619D01*
X105438096Y-49957143D02*
X105390477Y-50004762D01*
X105247620Y-50052381D01*
X105152382Y-50052381D01*
X105009524Y-50004762D01*
X104914286Y-49909524D01*
X104866667Y-49814286D01*
X104819048Y-49623810D01*
X104819048Y-49480952D01*
X104866667Y-49290476D01*
X104914286Y-49195238D01*
X105009524Y-49100000D01*
X105152382Y-49052381D01*
X105247620Y-49052381D01*
X105390477Y-49100000D01*
X105438096Y-49147619D01*
X103438096Y-51500000D02*
X103342858Y-51452381D01*
X103200001Y-51452381D01*
X103057143Y-51500000D01*
X102961905Y-51595238D01*
X102914286Y-51690476D01*
X102866667Y-51880952D01*
X102866667Y-52023810D01*
X102914286Y-52214286D01*
X102961905Y-52309524D01*
X103057143Y-52404762D01*
X103200001Y-52452381D01*
X103295239Y-52452381D01*
X103438096Y-52404762D01*
X103485715Y-52357143D01*
X103485715Y-52023810D01*
X103295239Y-52023810D01*
X103914286Y-52452381D02*
X103914286Y-51452381D01*
X104485715Y-52452381D01*
X104485715Y-51452381D01*
X104961905Y-52452381D02*
X104961905Y-51452381D01*
X105200000Y-51452381D01*
X105342858Y-51500000D01*
X105438096Y-51595238D01*
X105485715Y-51690476D01*
X105533334Y-51880952D01*
X105533334Y-52023810D01*
X105485715Y-52214286D01*
X105438096Y-52309524D01*
X105342858Y-52404762D01*
X105200000Y-52452381D01*
X104961905Y-52452381D01*
X106838096Y-38700000D02*
X106742858Y-38652381D01*
X106600001Y-38652381D01*
X106457143Y-38700000D01*
X106361905Y-38795238D01*
X106314286Y-38890476D01*
X106266667Y-39080952D01*
X106266667Y-39223810D01*
X106314286Y-39414286D01*
X106361905Y-39509524D01*
X106457143Y-39604762D01*
X106600001Y-39652381D01*
X106695239Y-39652381D01*
X106838096Y-39604762D01*
X106885715Y-39557143D01*
X106885715Y-39223810D01*
X106695239Y-39223810D01*
X107885715Y-39652381D02*
X107552381Y-39176190D01*
X107314286Y-39652381D02*
X107314286Y-38652381D01*
X107695239Y-38652381D01*
X107790477Y-38700000D01*
X107838096Y-38747619D01*
X107885715Y-38842857D01*
X107885715Y-38985714D01*
X107838096Y-39080952D01*
X107790477Y-39128571D01*
X107695239Y-39176190D01*
X107314286Y-39176190D01*
X108314286Y-39652381D02*
X108314286Y-38652381D01*
X108885715Y-39652381D01*
X108885715Y-38652381D01*
X106766667Y-57328571D02*
X106909524Y-57376190D01*
X106957143Y-57423810D01*
X107004762Y-57519048D01*
X107004762Y-57661905D01*
X106957143Y-57757143D01*
X106909524Y-57804762D01*
X106814286Y-57852381D01*
X106433333Y-57852381D01*
X106433333Y-56852381D01*
X106766667Y-56852381D01*
X106861905Y-56900000D01*
X106909524Y-56947619D01*
X106957143Y-57042857D01*
X106957143Y-57138095D01*
X106909524Y-57233333D01*
X106861905Y-57280952D01*
X106766667Y-57328571D01*
X106433333Y-57328571D01*
X107909524Y-57852381D02*
X107433333Y-57852381D01*
X107433333Y-56852381D01*
X108242857Y-57852381D02*
X108242857Y-56852381D01*
X108814286Y-57852381D02*
X108385714Y-57280952D01*
X108814286Y-56852381D02*
X108242857Y-57423810D01*
X100000000Y-25000000D02*
X100000000Y-70000000D01*
X179000000Y-25000000D02*
X179000000Y-70000000D01*
X179000000Y-25000000D02*
X100000000Y-25000000D01*
X100000000Y-70000000D02*
X179000000Y-70000000D01*
X172398880Y-38200960D02*
X172398880Y-32999040D01*
X170001120Y-32999040D02*
X170001120Y-38200960D01*
X168901300Y-40199940D02*
X170001120Y-40199940D01*
X169401680Y-40799380D02*
X169401680Y-39600500D01*
X170001120Y-39595420D02*
X172398880Y-39595420D01*
X160950000Y-44500000D02*
X160950000Y-45500000D01*
X162650000Y-45500000D02*
X162650000Y-44500000D01*
X168300000Y-42950000D02*
X167300000Y-42950000D01*
X167300000Y-44650000D02*
X168300000Y-44650000D01*
X162650000Y-52100000D02*
X162650000Y-51100000D01*
X160950000Y-51100000D02*
X160950000Y-52100000D01*
X158150000Y-56650000D02*
X158150000Y-57650000D01*
X159850000Y-57650000D02*
X159850000Y-56650000D01*
X123917363Y-37052527D02*
X123917363Y-38052527D01*
X125617363Y-38052527D02*
X125617363Y-37052527D01*
X153001120Y-53599040D02*
X153001120Y-58800960D01*
X155398880Y-58800960D02*
X155398880Y-53599040D01*
X156498700Y-51600060D02*
X155398880Y-51600060D01*
X155998320Y-51000620D02*
X155998320Y-52199500D01*
X155398880Y-52204580D02*
X153001120Y-52204580D01*
X131167363Y-60077527D02*
X132367363Y-60077527D01*
X132367363Y-61827527D02*
X131167363Y-61827527D01*
X125342363Y-44727527D02*
X125342363Y-45052527D01*
X132592363Y-44727527D02*
X132592363Y-45052527D01*
X132592363Y-51977527D02*
X132592363Y-51652527D01*
X125342363Y-51977527D02*
X125342363Y-51652527D01*
X125342363Y-44727527D02*
X125667363Y-44727527D01*
X125342363Y-51977527D02*
X125667363Y-51977527D01*
X132592363Y-51977527D02*
X132267363Y-51977527D01*
X132592363Y-44727527D02*
X132267363Y-44727527D01*
X125342363Y-45052527D02*
X123917363Y-45052527D01*
X159150000Y-46400000D02*
X159150000Y-47050000D01*
X158400000Y-46400000D02*
X159150000Y-46400000D01*
X154300000Y-46400000D02*
X157300000Y-46400000D01*
X157300000Y-49600000D02*
X154300000Y-49600000D01*
X140757363Y-46882527D02*
X140757363Y-51962527D01*
X140477363Y-44062527D02*
X142027363Y-44062527D01*
X143297363Y-44342527D02*
X143297363Y-46882527D01*
X143297363Y-46882527D02*
X140757363Y-46882527D01*
X140757363Y-51962527D02*
X145837363Y-51962527D01*
X145837363Y-51962527D02*
X145837363Y-46882527D01*
X140477363Y-44062527D02*
X140477363Y-45612527D01*
X145837363Y-44342527D02*
X143297363Y-44342527D01*
X145837363Y-46882527D02*
X145837363Y-44342527D01*
X175130000Y-35530000D02*
X175130000Y-32990000D01*
X174850000Y-38350000D02*
X174850000Y-36800000D01*
X175130000Y-35530000D02*
X177670000Y-35530000D01*
X177950000Y-36800000D02*
X177950000Y-38350000D01*
X177950000Y-38350000D02*
X174850000Y-38350000D01*
X177670000Y-35530000D02*
X177670000Y-32990000D01*
X177670000Y-32990000D02*
X175130000Y-32990000D01*
X177670000Y-50870000D02*
X177670000Y-45790000D01*
X177670000Y-45790000D02*
X175130000Y-45790000D01*
X175130000Y-45790000D02*
X175130000Y-50870000D01*
X174850000Y-53690000D02*
X174850000Y-52140000D01*
X175130000Y-50870000D02*
X177670000Y-50870000D01*
X177950000Y-52140000D02*
X177950000Y-53690000D01*
X177950000Y-53690000D02*
X174850000Y-53690000D01*
X142510000Y-32530000D02*
X160290000Y-32530000D01*
X160290000Y-32530000D02*
X160290000Y-35070000D01*
X160290000Y-35070000D02*
X142510000Y-35070000D01*
X139690000Y-32250000D02*
X141240000Y-32250000D01*
X142510000Y-32530000D02*
X142510000Y-35070000D01*
X141240000Y-35350000D02*
X139690000Y-35350000D01*
X139690000Y-35350000D02*
X139690000Y-32250000D01*
X108870000Y-43250000D02*
X108870000Y-55950000D01*
X108870000Y-55950000D02*
X106330000Y-55950000D01*
X106330000Y-55950000D02*
X106330000Y-43250000D01*
X109150000Y-40430000D02*
X109150000Y-41980000D01*
X108870000Y-43250000D02*
X106330000Y-43250000D01*
X106050000Y-41980000D02*
X106050000Y-40430000D01*
X106050000Y-40430000D02*
X109150000Y-40430000D01*
X155730000Y-39730000D02*
X158270000Y-39730000D01*
X152910000Y-39450000D02*
X154460000Y-39450000D01*
X155730000Y-39730000D02*
X155730000Y-42270000D01*
X154460000Y-42550000D02*
X152910000Y-42550000D01*
X152910000Y-42550000D02*
X152910000Y-39450000D01*
X155730000Y-42270000D02*
X158270000Y-42270000D01*
X158270000Y-42270000D02*
X158270000Y-39730000D01*
X126717363Y-61827527D02*
X125517363Y-61827527D01*
X125517363Y-60077527D02*
X126717363Y-60077527D01*
X128242363Y-36952527D02*
X128242363Y-38152527D01*
X126492363Y-38152527D02*
X126492363Y-36952527D01*
X117567363Y-42077527D02*
X118767363Y-42077527D01*
X118767363Y-43827527D02*
X117567363Y-43827527D01*
X131967363Y-34325000D02*
X133167363Y-34325000D01*
X133167363Y-36075000D02*
X131967363Y-36075000D01*
X131967363Y-38277527D02*
X133167363Y-38277527D01*
X133167363Y-40027527D02*
X131967363Y-40027527D01*
X160925000Y-57600000D02*
X160925000Y-56400000D01*
X162675000Y-56400000D02*
X162675000Y-57600000D01*
X128160110Y-30249780D02*
X130660110Y-30249780D01*
X130660110Y-30249780D02*
X130660110Y-31349780D01*
X130660110Y-31349780D02*
X128160110Y-31349780D01*
X128160110Y-31349780D02*
X128160110Y-30249780D01*
X127910110Y-31599780D02*
X130910110Y-31599780D01*
X127910110Y-29999780D02*
X130910110Y-29999780D01*
X130910110Y-29999780D02*
X130910110Y-31599780D01*
X127910110Y-29999780D02*
X127910110Y-31599780D01*
X126410110Y-32549780D02*
X132410110Y-32549780D01*
X126410110Y-29049780D02*
X132410110Y-29049780D01*
X126410110Y-29049780D02*
X126410110Y-32549780D01*
X132410110Y-29049780D02*
X132410110Y-32549780D01*
X127727473Y-65249780D02*
X130227473Y-65249780D01*
X130227473Y-65249780D02*
X130227473Y-66349780D01*
X130227473Y-66349780D02*
X127727473Y-66349780D01*
X127727473Y-66349780D02*
X127727473Y-65249780D01*
X127477473Y-66599780D02*
X130477473Y-66599780D01*
X127477473Y-64999780D02*
X130477473Y-64999780D01*
X130477473Y-64999780D02*
X130477473Y-66599780D01*
X127477473Y-64999780D02*
X127477473Y-66599780D01*
X125977473Y-67549780D02*
X131977473Y-67549780D01*
X125977473Y-64049780D02*
X131977473Y-64049780D01*
X125977473Y-64049780D02*
X125977473Y-67549780D01*
X131977473Y-64049780D02*
X131977473Y-67549780D01*
X165675000Y-45575000D02*
X165675000Y-45600000D01*
X170325000Y-45575000D02*
X170325000Y-45600000D01*
X170325000Y-53625000D02*
X170325000Y-53600000D01*
X165675000Y-53625000D02*
X165675000Y-53600000D01*
X165675000Y-45575000D02*
X170325000Y-45575000D01*
X165675000Y-53625000D02*
X170325000Y-53625000D01*
X165675000Y-45600000D02*
X164600000Y-45600000D01*
X131167363Y-57077527D02*
X132367363Y-57077527D01*
X132367363Y-58827527D02*
X131167363Y-58827527D01*
X126767363Y-58827527D02*
X125567363Y-58827527D01*
X125567363Y-57077527D02*
X126767363Y-57077527D01*
X116967363Y-54552527D02*
X118767363Y-54552527D01*
X116467363Y-53952527D02*
X116467363Y-54252527D01*
X116467363Y-51552527D02*
X116467363Y-52352527D01*
X116467363Y-48952527D02*
X116467363Y-49752527D01*
X116467363Y-47052527D02*
X116467363Y-47352527D01*
X119467363Y-47352527D02*
X119467363Y-47052527D01*
X119467363Y-49752527D02*
X119467363Y-48952527D01*
X119467363Y-52352527D02*
X119467363Y-51552527D01*
X119467363Y-54252527D02*
X119467363Y-53952527D01*
X116467363Y-47052527D02*
X119467363Y-47052527D01*
X116467363Y-54252527D02*
X119467363Y-54252527D01*
X171033334Y-41157143D02*
X170985715Y-41204762D01*
X170842858Y-41252381D01*
X170747620Y-41252381D01*
X170604762Y-41204762D01*
X170509524Y-41109524D01*
X170461905Y-41014286D01*
X170414286Y-40823810D01*
X170414286Y-40680952D01*
X170461905Y-40490476D01*
X170509524Y-40395238D01*
X170604762Y-40300000D01*
X170747620Y-40252381D01*
X170842858Y-40252381D01*
X170985715Y-40300000D01*
X171033334Y-40347619D01*
X171938096Y-40252381D02*
X171461905Y-40252381D01*
X171414286Y-40728571D01*
X171461905Y-40680952D01*
X171557143Y-40633333D01*
X171795239Y-40633333D01*
X171890477Y-40680952D01*
X171938096Y-40728571D01*
X171985715Y-40823810D01*
X171985715Y-41061905D01*
X171938096Y-41157143D01*
X171890477Y-41204762D01*
X171795239Y-41252381D01*
X171557143Y-41252381D01*
X171461905Y-41204762D01*
X171414286Y-41157143D01*
X161633334Y-41957143D02*
X161585715Y-42004762D01*
X161442858Y-42052381D01*
X161347620Y-42052381D01*
X161204762Y-42004762D01*
X161109524Y-41909524D01*
X161061905Y-41814286D01*
X161014286Y-41623810D01*
X161014286Y-41480952D01*
X161061905Y-41290476D01*
X161109524Y-41195238D01*
X161204762Y-41100000D01*
X161347620Y-41052381D01*
X161442858Y-41052381D01*
X161585715Y-41100000D01*
X161633334Y-41147619D01*
X162490477Y-41052381D02*
X162300000Y-41052381D01*
X162204762Y-41100000D01*
X162157143Y-41147619D01*
X162061905Y-41290476D01*
X162014286Y-41480952D01*
X162014286Y-41861905D01*
X162061905Y-41957143D01*
X162109524Y-42004762D01*
X162204762Y-42052381D01*
X162395239Y-42052381D01*
X162490477Y-42004762D01*
X162538096Y-41957143D01*
X162585715Y-41861905D01*
X162585715Y-41623810D01*
X162538096Y-41528571D01*
X162490477Y-41480952D01*
X162395239Y-41433333D01*
X162204762Y-41433333D01*
X162109524Y-41480952D01*
X162061905Y-41528571D01*
X162014286Y-41623810D01*
X167633334Y-42357143D02*
X167585715Y-42404762D01*
X167442858Y-42452381D01*
X167347620Y-42452381D01*
X167204762Y-42404762D01*
X167109524Y-42309524D01*
X167061905Y-42214286D01*
X167014286Y-42023810D01*
X167014286Y-41880952D01*
X167061905Y-41690476D01*
X167109524Y-41595238D01*
X167204762Y-41500000D01*
X167347620Y-41452381D01*
X167442858Y-41452381D01*
X167585715Y-41500000D01*
X167633334Y-41547619D01*
X167966667Y-41452381D02*
X168633334Y-41452381D01*
X168204762Y-42452381D01*
X159233334Y-51957143D02*
X159185715Y-52004762D01*
X159042858Y-52052381D01*
X158947620Y-52052381D01*
X158804762Y-52004762D01*
X158709524Y-51909524D01*
X158661905Y-51814286D01*
X158614286Y-51623810D01*
X158614286Y-51480952D01*
X158661905Y-51290476D01*
X158709524Y-51195238D01*
X158804762Y-51100000D01*
X158947620Y-51052381D01*
X159042858Y-51052381D01*
X159185715Y-51100000D01*
X159233334Y-51147619D01*
X159804762Y-51480952D02*
X159709524Y-51433333D01*
X159661905Y-51385714D01*
X159614286Y-51290476D01*
X159614286Y-51242857D01*
X159661905Y-51147619D01*
X159709524Y-51100000D01*
X159804762Y-51052381D01*
X159995239Y-51052381D01*
X160090477Y-51100000D01*
X160138096Y-51147619D01*
X160185715Y-51242857D01*
X160185715Y-51290476D01*
X160138096Y-51385714D01*
X160090477Y-51433333D01*
X159995239Y-51480952D01*
X159804762Y-51480952D01*
X159709524Y-51528571D01*
X159661905Y-51576190D01*
X159614286Y-51671429D01*
X159614286Y-51861905D01*
X159661905Y-51957143D01*
X159709524Y-52004762D01*
X159804762Y-52052381D01*
X159995239Y-52052381D01*
X160090477Y-52004762D01*
X160138096Y-51957143D01*
X160185715Y-51861905D01*
X160185715Y-51671429D01*
X160138096Y-51576190D01*
X160090477Y-51528571D01*
X159995239Y-51480952D01*
X158833334Y-61557143D02*
X158785715Y-61604762D01*
X158642858Y-61652381D01*
X158547620Y-61652381D01*
X158404762Y-61604762D01*
X158309524Y-61509524D01*
X158261905Y-61414286D01*
X158214286Y-61223810D01*
X158214286Y-61080952D01*
X158261905Y-60890476D01*
X158309524Y-60795238D01*
X158404762Y-60700000D01*
X158547620Y-60652381D01*
X158642858Y-60652381D01*
X158785715Y-60700000D01*
X158833334Y-60747619D01*
X159309524Y-61652381D02*
X159500000Y-61652381D01*
X159595239Y-61604762D01*
X159642858Y-61557143D01*
X159738096Y-61414286D01*
X159785715Y-61223810D01*
X159785715Y-60842857D01*
X159738096Y-60747619D01*
X159690477Y-60700000D01*
X159595239Y-60652381D01*
X159404762Y-60652381D01*
X159309524Y-60700000D01*
X159261905Y-60747619D01*
X159214286Y-60842857D01*
X159214286Y-61080952D01*
X159261905Y-61176190D01*
X159309524Y-61223810D01*
X159404762Y-61271429D01*
X159595239Y-61271429D01*
X159690477Y-61223810D01*
X159738096Y-61176190D01*
X159785715Y-61080952D01*
X123024506Y-38195384D02*
X123072125Y-38243003D01*
X123119744Y-38385860D01*
X123119744Y-38481098D01*
X123072125Y-38623956D01*
X122976887Y-38719194D01*
X122881649Y-38766813D01*
X122691173Y-38814432D01*
X122548315Y-38814432D01*
X122357839Y-38766813D01*
X122262601Y-38719194D01*
X122167363Y-38623956D01*
X122119744Y-38481098D01*
X122119744Y-38385860D01*
X122167363Y-38243003D01*
X122214982Y-38195384D01*
X123119744Y-37243003D02*
X123119744Y-37814432D01*
X123119744Y-37528718D02*
X122119744Y-37528718D01*
X122262601Y-37623956D01*
X122357839Y-37719194D01*
X122405458Y-37814432D01*
X122119744Y-36623956D02*
X122119744Y-36528717D01*
X122167363Y-36433479D01*
X122214982Y-36385860D01*
X122310220Y-36338241D01*
X122500696Y-36290622D01*
X122738792Y-36290622D01*
X122929268Y-36338241D01*
X123024506Y-36385860D01*
X123072125Y-36433479D01*
X123119744Y-36528717D01*
X123119744Y-36623956D01*
X123072125Y-36719194D01*
X123024506Y-36766813D01*
X122929268Y-36814432D01*
X122738792Y-36862051D01*
X122500696Y-36862051D01*
X122310220Y-36814432D01*
X122214982Y-36766813D01*
X122167363Y-36719194D01*
X122119744Y-36623956D01*
X153357143Y-61557143D02*
X153309524Y-61604762D01*
X153166667Y-61652381D01*
X153071429Y-61652381D01*
X152928571Y-61604762D01*
X152833333Y-61509524D01*
X152785714Y-61414286D01*
X152738095Y-61223810D01*
X152738095Y-61080952D01*
X152785714Y-60890476D01*
X152833333Y-60795238D01*
X152928571Y-60700000D01*
X153071429Y-60652381D01*
X153166667Y-60652381D01*
X153309524Y-60700000D01*
X153357143Y-60747619D01*
X154309524Y-61652381D02*
X153738095Y-61652381D01*
X154023809Y-61652381D02*
X154023809Y-60652381D01*
X153928571Y-60795238D01*
X153833333Y-60890476D01*
X153738095Y-60938095D01*
X155261905Y-61652381D02*
X154690476Y-61652381D01*
X154976190Y-61652381D02*
X154976190Y-60652381D01*
X154880952Y-60795238D01*
X154785714Y-60890476D01*
X154690476Y-60938095D01*
X135261905Y-61404908D02*
X135261905Y-60404908D01*
X135500000Y-60404908D01*
X135642858Y-60452527D01*
X135738096Y-60547765D01*
X135785715Y-60643003D01*
X135833334Y-60833479D01*
X135833334Y-60976337D01*
X135785715Y-61166813D01*
X135738096Y-61262051D01*
X135642858Y-61357289D01*
X135500000Y-61404908D01*
X135261905Y-61404908D01*
X136785715Y-61404908D02*
X136214286Y-61404908D01*
X136500000Y-61404908D02*
X136500000Y-60404908D01*
X136404762Y-60547765D01*
X136309524Y-60643003D01*
X136214286Y-60690622D01*
X122423810Y-43052381D02*
X122423810Y-42052381D01*
X123471429Y-42957143D02*
X123423810Y-43004762D01*
X123280953Y-43052381D01*
X123185715Y-43052381D01*
X123042857Y-43004762D01*
X122947619Y-42909524D01*
X122900000Y-42814286D01*
X122852381Y-42623810D01*
X122852381Y-42480952D01*
X122900000Y-42290476D01*
X122947619Y-42195238D01*
X123042857Y-42100000D01*
X123185715Y-42052381D01*
X123280953Y-42052381D01*
X123423810Y-42100000D01*
X123471429Y-42147619D01*
X124423810Y-43052381D02*
X123852381Y-43052381D01*
X124138095Y-43052381D02*
X124138095Y-42052381D01*
X124042857Y-42195238D01*
X123947619Y-42290476D01*
X123852381Y-42338095D01*
X155633334Y-45702381D02*
X155157143Y-45702381D01*
X155157143Y-44702381D01*
X156490477Y-45702381D02*
X155919048Y-45702381D01*
X156204762Y-45702381D02*
X156204762Y-44702381D01*
X156109524Y-44845238D01*
X156014286Y-44940476D01*
X155919048Y-44988095D01*
X142661905Y-43452381D02*
X142661905Y-42452381D01*
X143042858Y-42452381D01*
X143138096Y-42500000D01*
X143185715Y-42547619D01*
X143233334Y-42642857D01*
X143233334Y-42785714D01*
X143185715Y-42880952D01*
X143138096Y-42928571D01*
X143042858Y-42976190D01*
X142661905Y-42976190D01*
X144185715Y-43452381D02*
X143614286Y-43452381D01*
X143900000Y-43452381D02*
X143900000Y-42452381D01*
X143804762Y-42595238D01*
X143709524Y-42690476D01*
X143614286Y-42738095D01*
X175661905Y-40052381D02*
X175661905Y-39052381D01*
X176042858Y-39052381D01*
X176138096Y-39100000D01*
X176185715Y-39147619D01*
X176233334Y-39242857D01*
X176233334Y-39385714D01*
X176185715Y-39480952D01*
X176138096Y-39528571D01*
X176042858Y-39576190D01*
X175661905Y-39576190D01*
X176614286Y-39147619D02*
X176661905Y-39100000D01*
X176757143Y-39052381D01*
X176995239Y-39052381D01*
X177090477Y-39100000D01*
X177138096Y-39147619D01*
X177185715Y-39242857D01*
X177185715Y-39338095D01*
X177138096Y-39480952D01*
X176566667Y-40052381D01*
X177185715Y-40052381D01*
X175061905Y-55452381D02*
X175061905Y-54452381D01*
X175442858Y-54452381D01*
X175538096Y-54500000D01*
X175585715Y-54547619D01*
X175633334Y-54642857D01*
X175633334Y-54785714D01*
X175585715Y-54880952D01*
X175538096Y-54928571D01*
X175442858Y-54976190D01*
X175061905Y-54976190D01*
X175966667Y-54452381D02*
X176585715Y-54452381D01*
X176252381Y-54833333D01*
X176395239Y-54833333D01*
X176490477Y-54880952D01*
X176538096Y-54928571D01*
X176585715Y-55023810D01*
X176585715Y-55261905D01*
X176538096Y-55357143D01*
X176490477Y-55404762D01*
X176395239Y-55452381D01*
X176109524Y-55452381D01*
X176014286Y-55404762D01*
X175966667Y-55357143D01*
X150061905Y-31852381D02*
X150061905Y-30852381D01*
X150442858Y-30852381D01*
X150538096Y-30900000D01*
X150585715Y-30947619D01*
X150633334Y-31042857D01*
X150633334Y-31185714D01*
X150585715Y-31280952D01*
X150538096Y-31328571D01*
X150442858Y-31376190D01*
X150061905Y-31376190D01*
X151490477Y-31185714D02*
X151490477Y-31852381D01*
X151252381Y-30804762D02*
X151014286Y-31519048D01*
X151633334Y-31519048D01*
X155261905Y-38852381D02*
X155261905Y-37852381D01*
X155642858Y-37852381D01*
X155738096Y-37900000D01*
X155785715Y-37947619D01*
X155833334Y-38042857D01*
X155833334Y-38185714D01*
X155785715Y-38280952D01*
X155738096Y-38328571D01*
X155642858Y-38376190D01*
X155261905Y-38376190D01*
X156690477Y-37852381D02*
X156500000Y-37852381D01*
X156404762Y-37900000D01*
X156357143Y-37947619D01*
X156261905Y-38090476D01*
X156214286Y-38280952D01*
X156214286Y-38661905D01*
X156261905Y-38757143D01*
X156309524Y-38804762D01*
X156404762Y-38852381D01*
X156595239Y-38852381D01*
X156690477Y-38804762D01*
X156738096Y-38757143D01*
X156785715Y-38661905D01*
X156785715Y-38423810D01*
X156738096Y-38328571D01*
X156690477Y-38280952D01*
X156595239Y-38233333D01*
X156404762Y-38233333D01*
X156309524Y-38280952D01*
X156261905Y-38328571D01*
X156214286Y-38423810D01*
X122200697Y-61204908D02*
X121867363Y-60728717D01*
X121629268Y-61204908D02*
X121629268Y-60204908D01*
X122010221Y-60204908D01*
X122105459Y-60252527D01*
X122153078Y-60300146D01*
X122200697Y-60395384D01*
X122200697Y-60538241D01*
X122153078Y-60633479D01*
X122105459Y-60681098D01*
X122010221Y-60728717D01*
X121629268Y-60728717D01*
X123153078Y-61204908D02*
X122581649Y-61204908D01*
X122867363Y-61204908D02*
X122867363Y-60204908D01*
X122772125Y-60347765D01*
X122676887Y-60443003D01*
X122581649Y-60490622D01*
X125719744Y-37719193D02*
X125243553Y-38052527D01*
X125719744Y-38290622D02*
X124719744Y-38290622D01*
X124719744Y-37909669D01*
X124767363Y-37814431D01*
X124814982Y-37766812D01*
X124910220Y-37719193D01*
X125053077Y-37719193D01*
X125148315Y-37766812D01*
X125195934Y-37814431D01*
X125243553Y-37909669D01*
X125243553Y-38290622D01*
X124814982Y-37338241D02*
X124767363Y-37290622D01*
X124719744Y-37195384D01*
X124719744Y-36957288D01*
X124767363Y-36862050D01*
X124814982Y-36814431D01*
X124910220Y-36766812D01*
X125005458Y-36766812D01*
X125148315Y-36814431D01*
X125719744Y-37385860D01*
X125719744Y-36766812D01*
X117833334Y-41652381D02*
X117500000Y-41176190D01*
X117261905Y-41652381D02*
X117261905Y-40652381D01*
X117642858Y-40652381D01*
X117738096Y-40700000D01*
X117785715Y-40747619D01*
X117833334Y-40842857D01*
X117833334Y-40985714D01*
X117785715Y-41080952D01*
X117738096Y-41128571D01*
X117642858Y-41176190D01*
X117261905Y-41176190D01*
X118166667Y-40652381D02*
X118785715Y-40652381D01*
X118452381Y-41033333D01*
X118595239Y-41033333D01*
X118690477Y-41080952D01*
X118738096Y-41128571D01*
X118785715Y-41223810D01*
X118785715Y-41461905D01*
X118738096Y-41557143D01*
X118690477Y-41604762D01*
X118595239Y-41652381D01*
X118309524Y-41652381D01*
X118214286Y-41604762D01*
X118166667Y-41557143D01*
X136233334Y-35852381D02*
X135900000Y-35376190D01*
X135661905Y-35852381D02*
X135661905Y-34852381D01*
X136042858Y-34852381D01*
X136138096Y-34900000D01*
X136185715Y-34947619D01*
X136233334Y-35042857D01*
X136233334Y-35185714D01*
X136185715Y-35280952D01*
X136138096Y-35328571D01*
X136042858Y-35376190D01*
X135661905Y-35376190D01*
X137090477Y-35185714D02*
X137090477Y-35852381D01*
X136852381Y-34804762D02*
X136614286Y-35519048D01*
X137233334Y-35519048D01*
X136233334Y-39452381D02*
X135900000Y-38976190D01*
X135661905Y-39452381D02*
X135661905Y-38452381D01*
X136042858Y-38452381D01*
X136138096Y-38500000D01*
X136185715Y-38547619D01*
X136233334Y-38642857D01*
X136233334Y-38785714D01*
X136185715Y-38880952D01*
X136138096Y-38928571D01*
X136042858Y-38976190D01*
X135661905Y-38976190D01*
X137138096Y-38452381D02*
X136661905Y-38452381D01*
X136614286Y-38928571D01*
X136661905Y-38880952D01*
X136757143Y-38833333D01*
X136995239Y-38833333D01*
X137090477Y-38880952D01*
X137138096Y-38928571D01*
X137185715Y-39023810D01*
X137185715Y-39261905D01*
X137138096Y-39357143D01*
X137090477Y-39404762D01*
X136995239Y-39452381D01*
X136757143Y-39452381D01*
X136661905Y-39404762D01*
X136614286Y-39357143D01*
X161633334Y-61652381D02*
X161300000Y-61176190D01*
X161061905Y-61652381D02*
X161061905Y-60652381D01*
X161442858Y-60652381D01*
X161538096Y-60700000D01*
X161585715Y-60747619D01*
X161633334Y-60842857D01*
X161633334Y-60985714D01*
X161585715Y-61080952D01*
X161538096Y-61128571D01*
X161442858Y-61176190D01*
X161061905Y-61176190D01*
X162490477Y-60652381D02*
X162300000Y-60652381D01*
X162204762Y-60700000D01*
X162157143Y-60747619D01*
X162061905Y-60890476D01*
X162014286Y-61080952D01*
X162014286Y-61461905D01*
X162061905Y-61557143D01*
X162109524Y-61604762D01*
X162204762Y-61652381D01*
X162395239Y-61652381D01*
X162490477Y-61604762D01*
X162538096Y-61557143D01*
X162585715Y-61461905D01*
X162585715Y-61223810D01*
X162538096Y-61128571D01*
X162490477Y-61080952D01*
X162395239Y-61033333D01*
X162204762Y-61033333D01*
X162109524Y-61080952D01*
X162061905Y-61128571D01*
X162014286Y-61223810D01*
X128076777Y-28604542D02*
X128219634Y-28652161D01*
X128457730Y-28652161D01*
X128552968Y-28604542D01*
X128600587Y-28556923D01*
X128648206Y-28461685D01*
X128648206Y-28366447D01*
X128600587Y-28271209D01*
X128552968Y-28223590D01*
X128457730Y-28175970D01*
X128267253Y-28128351D01*
X128172015Y-28080732D01*
X128124396Y-28033113D01*
X128076777Y-27937875D01*
X128076777Y-27842637D01*
X128124396Y-27747399D01*
X128172015Y-27699780D01*
X128267253Y-27652161D01*
X128505349Y-27652161D01*
X128648206Y-27699780D01*
X128981539Y-27652161D02*
X129219634Y-28652161D01*
X129410111Y-27937875D01*
X129600587Y-28652161D01*
X129838682Y-27652161D01*
X130743444Y-28652161D02*
X130172015Y-28652161D01*
X130457729Y-28652161D02*
X130457729Y-27652161D01*
X130362491Y-27795018D01*
X130267253Y-27890256D01*
X130172015Y-27937875D01*
X127666667Y-69204762D02*
X127809524Y-69252381D01*
X128047620Y-69252381D01*
X128142858Y-69204762D01*
X128190477Y-69157143D01*
X128238096Y-69061905D01*
X128238096Y-68966667D01*
X128190477Y-68871429D01*
X128142858Y-68823810D01*
X128047620Y-68776190D01*
X127857143Y-68728571D01*
X127761905Y-68680952D01*
X127714286Y-68633333D01*
X127666667Y-68538095D01*
X127666667Y-68442857D01*
X127714286Y-68347619D01*
X127761905Y-68300000D01*
X127857143Y-68252381D01*
X128095239Y-68252381D01*
X128238096Y-68300000D01*
X128571429Y-68252381D02*
X128809524Y-69252381D01*
X129000001Y-68538095D01*
X129190477Y-69252381D01*
X129428572Y-68252381D01*
X129761905Y-68347619D02*
X129809524Y-68300000D01*
X129904762Y-68252381D01*
X130142858Y-68252381D01*
X130238096Y-68300000D01*
X130285715Y-68347619D01*
X130333334Y-68442857D01*
X130333334Y-68538095D01*
X130285715Y-68680952D01*
X129714286Y-69252381D01*
X130333334Y-69252381D01*
X167238095Y-54252381D02*
X167238095Y-55061905D01*
X167285714Y-55157143D01*
X167333333Y-55204762D01*
X167428571Y-55252381D01*
X167619048Y-55252381D01*
X167714286Y-55204762D01*
X167761905Y-55157143D01*
X167809524Y-55061905D01*
X167809524Y-54252381D01*
X168809524Y-55252381D02*
X168238095Y-55252381D01*
X168523809Y-55252381D02*
X168523809Y-54252381D01*
X168428571Y-54395238D01*
X168333333Y-54490476D01*
X168238095Y-54538095D01*
X135261905Y-58452381D02*
X135261905Y-57452381D01*
X135500000Y-57452381D01*
X135642858Y-57500000D01*
X135738096Y-57595238D01*
X135785715Y-57690476D01*
X135833334Y-57880952D01*
X135833334Y-58023810D01*
X135785715Y-58214286D01*
X135738096Y-58309524D01*
X135642858Y-58404762D01*
X135500000Y-58452381D01*
X135261905Y-58452381D01*
X136214286Y-57547619D02*
X136261905Y-57500000D01*
X136357143Y-57452381D01*
X136595239Y-57452381D01*
X136690477Y-57500000D01*
X136738096Y-57547619D01*
X136785715Y-57642857D01*
X136785715Y-57738095D01*
X136738096Y-57880952D01*
X136166667Y-58452381D01*
X136785715Y-58452381D01*
X122200697Y-58404908D02*
X121867363Y-57928717D01*
X121629268Y-58404908D02*
X121629268Y-57404908D01*
X122010221Y-57404908D01*
X122105459Y-57452527D01*
X122153078Y-57500146D01*
X122200697Y-57595384D01*
X122200697Y-57738241D01*
X122153078Y-57833479D01*
X122105459Y-57881098D01*
X122010221Y-57928717D01*
X121629268Y-57928717D01*
X122534030Y-57404908D02*
X123200697Y-57404908D01*
X122772125Y-58404908D01*
X117523809Y-55776190D02*
X117523809Y-56252381D01*
X117190476Y-55252381D02*
X117523809Y-55776190D01*
X117857143Y-55252381D01*
X118714286Y-56252381D02*
X118142857Y-56252381D01*
X118428571Y-56252381D02*
X118428571Y-55252381D01*
X118333333Y-55395238D01*
X118238095Y-55490476D01*
X118142857Y-55538095D01*
M02*
