G04 #@! TF.FileFunction,Soldermask,Bot*
%FSLAX46Y46*%
G04 Gerber Fmt 4.6, Leading zero omitted, Abs format (unit mm)*
G04 Created by KiCad (PCBNEW 0.201602181416+6564~42~ubuntu15.04.1-product) date Mon 22 Feb 2016 02:25:23 PM EST*
%MOMM*%
G01*
G04 APERTURE LIST*
%ADD10C,0.100000*%
%ADD11C,0.150000*%
%ADD12R,1.900000X1.650000*%
%ADD13R,2.127200X2.127200*%
%ADD14O,2.127200X2.127200*%
%ADD15R,2.432000X2.432000*%
%ADD16O,2.432000X2.432000*%
%ADD17R,2.432000X2.127200*%
%ADD18O,2.432000X2.127200*%
%ADD19R,2.127200X2.432000*%
%ADD20O,2.127200X2.432000*%
%ADD21C,3.400000*%
G04 APERTURE END LIST*
D10*
D11*
X100000000Y-25000000D02*
X100000000Y-70000000D01*
X179000000Y-25000000D02*
X179000000Y-70000000D01*
X179000000Y-25000000D02*
X100000000Y-25000000D01*
X100000000Y-70000000D02*
X179000000Y-70000000D01*
D12*
X130217363Y-50000000D03*
X127717363Y-50000000D03*
X130217363Y-46800000D03*
X127717363Y-46800000D03*
D13*
X142027363Y-45612527D03*
D14*
X144567363Y-45612527D03*
X142027363Y-48152527D03*
X144567363Y-48152527D03*
X142027363Y-50692527D03*
X144567363Y-50692527D03*
D15*
X176400000Y-36800000D03*
D16*
X176400000Y-34260000D03*
D17*
X176400000Y-52140000D03*
D18*
X176400000Y-49600000D03*
X176400000Y-47060000D03*
D19*
X141240000Y-33800000D03*
D20*
X143780000Y-33800000D03*
X146320000Y-33800000D03*
X148860000Y-33800000D03*
X151400000Y-33800000D03*
X153940000Y-33800000D03*
X156480000Y-33800000D03*
X159020000Y-33800000D03*
D17*
X107600000Y-41980000D03*
D18*
X107600000Y-44520000D03*
X107600000Y-47060000D03*
X107600000Y-49600000D03*
X107600000Y-52140000D03*
X107600000Y-54680000D03*
D15*
X154460000Y-41000000D03*
D16*
X157000000Y-41000000D03*
D21*
X175000000Y-66000000D03*
X104000000Y-66000000D03*
X175000000Y-29000000D03*
X104000000Y-29000000D03*
M02*
