G04 #@! TF.FileFunction,Copper,L1,Top,Signal*
%FSLAX46Y46*%
G04 Gerber Fmt 4.6, Leading zero omitted, Abs format (unit mm)*
G04 Created by KiCad (PCBNEW 0.201602221446+6578~42~ubuntu15.04.1-product) date Mon 22 Feb 2016 07:23:46 PM EST*
%MOMM*%
G01*
G04 APERTURE LIST*
%ADD10C,0.100000*%
%ADD11R,1.250000X1.500000*%
%ADD12R,1.500000X1.250000*%
%ADD13R,1.500000X1.300000*%
%ADD14R,1.600000X0.550000*%
%ADD15R,0.550000X1.600000*%
%ADD16R,2.500000X2.500000*%
%ADD17R,2.032000X1.727200*%
%ADD18O,2.032000X1.727200*%
%ADD19R,2.032000X2.032000*%
%ADD20O,2.032000X2.032000*%
%ADD21R,1.727200X2.032000*%
%ADD22O,1.727200X2.032000*%
%ADD23R,1.600000X2.180000*%
%ADD24R,1.100000X0.400000*%
%ADD25R,2.400000X5.160000*%
%ADD26R,4.000000X1.200000*%
%ADD27R,4.000000X1.400000*%
%ADD28R,2.999740X1.501140*%
%ADD29R,1.501140X2.999740*%
%ADD30C,0.600000*%
%ADD31C,0.250000*%
%ADD32C,0.500000*%
%ADD33C,0.254000*%
G04 APERTURE END LIST*
D10*
X94000000Y-68000000D02*
X94000000Y-43000000D01*
X175000000Y-68000000D02*
X94000000Y-68000000D01*
X175000000Y-43000000D02*
X175000000Y-68000000D01*
X94000000Y-43000000D02*
X175000000Y-43000000D01*
D11*
X154400000Y-55450000D03*
X154400000Y-52950000D03*
D12*
X158350000Y-52800000D03*
X160850000Y-52800000D03*
X154850000Y-59600000D03*
X152350000Y-59600000D03*
X154850000Y-61800000D03*
X152350000Y-61800000D03*
D13*
X114250000Y-49200000D03*
X116950000Y-49200000D03*
X114450000Y-62600000D03*
X117150000Y-62600000D03*
D14*
X121750000Y-53950000D03*
X121750000Y-54750000D03*
X121750000Y-55550000D03*
X121750000Y-56350000D03*
X121750000Y-57150000D03*
X121750000Y-57950000D03*
X121750000Y-58750000D03*
X121750000Y-59550000D03*
D15*
X123200000Y-61000000D03*
X124000000Y-61000000D03*
X124800000Y-61000000D03*
X125600000Y-61000000D03*
X126400000Y-61000000D03*
X127200000Y-61000000D03*
X128000000Y-61000000D03*
X128800000Y-61000000D03*
D14*
X130250000Y-59550000D03*
X130250000Y-58750000D03*
X130250000Y-57950000D03*
X130250000Y-57150000D03*
X130250000Y-56350000D03*
X130250000Y-55550000D03*
X130250000Y-54750000D03*
X130250000Y-53950000D03*
D15*
X128800000Y-52500000D03*
X128000000Y-52500000D03*
X127200000Y-52500000D03*
X126400000Y-52500000D03*
X125600000Y-52500000D03*
X124800000Y-52500000D03*
X124000000Y-52500000D03*
X123200000Y-52500000D03*
D16*
X149200000Y-56050000D03*
X149200000Y-59550000D03*
D17*
X109800000Y-49260000D03*
D18*
X109800000Y-51800000D03*
X109800000Y-54340000D03*
X109800000Y-56880000D03*
X109800000Y-59420000D03*
X109800000Y-61960000D03*
D19*
X163860000Y-49200000D03*
D20*
X166400000Y-49200000D03*
D17*
X166400000Y-60940000D03*
D18*
X166400000Y-58400000D03*
X166400000Y-55860000D03*
D21*
X123200000Y-49200000D03*
D22*
X125740000Y-49200000D03*
X128280000Y-49200000D03*
X130820000Y-49200000D03*
X133360000Y-49200000D03*
X135900000Y-49200000D03*
X138440000Y-49200000D03*
X140980000Y-49200000D03*
D17*
X103400000Y-49260000D03*
D18*
X103400000Y-51800000D03*
X103400000Y-54340000D03*
X103400000Y-56880000D03*
X103400000Y-59420000D03*
X103400000Y-61960000D03*
D19*
X146000000Y-49200000D03*
D20*
X148540000Y-49200000D03*
D13*
X127600000Y-46200000D03*
X130300000Y-46200000D03*
X132800000Y-46200000D03*
X135500000Y-46200000D03*
X125150000Y-46200000D03*
X122450000Y-46200000D03*
D23*
X134513223Y-52345435D03*
X134508583Y-61550295D03*
X140413223Y-52345435D03*
X140408583Y-61550295D03*
D24*
X157000000Y-54700000D03*
X157000000Y-55350000D03*
X157000000Y-56000000D03*
X157000000Y-56650000D03*
X157000000Y-57300000D03*
X157000000Y-57950000D03*
X157000000Y-58600000D03*
X157000000Y-59250000D03*
X157000000Y-59900000D03*
X157000000Y-60550000D03*
X157000000Y-61200000D03*
X157000000Y-61850000D03*
X162700000Y-61850000D03*
X162700000Y-61200000D03*
X162700000Y-60550000D03*
X162700000Y-59900000D03*
X162700000Y-59250000D03*
X162700000Y-58600000D03*
X162700000Y-57950000D03*
X162700000Y-57300000D03*
X162700000Y-56650000D03*
X162700000Y-56000000D03*
X162700000Y-55350000D03*
X162700000Y-54700000D03*
D25*
X159850000Y-58275000D03*
D26*
X116000000Y-58400000D03*
D27*
X116000000Y-55900000D03*
D26*
X116000000Y-53400000D03*
D28*
X153401020Y-49200000D03*
X157398980Y-49200000D03*
D29*
X145200000Y-55601020D03*
X145200000Y-59598980D03*
D30*
X132200000Y-58600000D03*
X118800000Y-46400000D03*
X123000000Y-57950000D03*
X112400000Y-50200000D03*
X160400000Y-59200000D03*
X160400000Y-60200000D03*
X159200000Y-60200000D03*
X159200000Y-59200000D03*
X159200000Y-57400000D03*
X160400000Y-57400000D03*
X160400000Y-56400000D03*
X159200000Y-56400000D03*
X159850000Y-58275000D03*
X144292999Y-53391693D03*
X150800000Y-62199980D03*
X145156621Y-53362326D03*
X146120822Y-53396587D03*
X152400000Y-50800000D03*
X154400000Y-50800000D03*
X153400000Y-50800000D03*
X141800000Y-61600000D03*
X139000000Y-61600000D03*
X136000000Y-61600000D03*
X133200000Y-61600000D03*
X129000000Y-56400000D03*
X123000217Y-55552457D03*
X113025010Y-55800000D03*
X118974990Y-56000000D03*
X113026930Y-62600000D03*
X127800000Y-56800000D03*
X128543002Y-54101558D03*
X134497002Y-53975241D03*
X118400000Y-49200000D03*
X118800000Y-62600000D03*
X143358313Y-48749038D03*
X127000000Y-44800000D03*
X120800000Y-46400000D03*
X120000000Y-52200000D03*
X125016375Y-53800012D03*
X131728189Y-52360044D03*
X140445079Y-53959187D03*
X123200000Y-62600000D03*
X112400000Y-61000000D03*
X128000000Y-62400000D03*
X107200000Y-61400000D03*
X128800000Y-62400000D03*
X126600000Y-59699998D03*
X141200000Y-50755433D03*
X121200000Y-52200000D03*
D31*
X132800000Y-46200000D02*
X132900000Y-46200000D01*
X132900000Y-46200000D02*
X133875001Y-45224999D01*
X133875001Y-45224999D02*
X143290999Y-45224999D01*
X143290999Y-45224999D02*
X146000000Y-47934000D01*
X146000000Y-47934000D02*
X146000000Y-49200000D01*
X127600000Y-46200000D02*
X127700000Y-46200000D01*
X128675001Y-45224999D02*
X131724999Y-45224999D01*
X127700000Y-46200000D02*
X128675001Y-45224999D01*
X131724999Y-45224999D02*
X132700000Y-46200000D01*
X132700000Y-46200000D02*
X132800000Y-46200000D01*
X130250000Y-58750000D02*
X132050000Y-58750000D01*
X132050000Y-58750000D02*
X132200000Y-58600000D01*
X125150000Y-46200000D02*
X127600000Y-46200000D01*
X123200000Y-49200000D02*
X123200000Y-49047600D01*
X123200000Y-49047600D02*
X125150000Y-47097600D01*
X125150000Y-47097600D02*
X125150000Y-46200000D01*
X118800000Y-46400000D02*
X121600000Y-49200000D01*
X121600000Y-49200000D02*
X123200000Y-49200000D01*
X123000000Y-57950000D02*
X125383932Y-57950000D01*
X121750000Y-57950000D02*
X123000000Y-57950000D01*
X120400000Y-57650000D02*
X120400000Y-56650000D01*
X120400000Y-56650000D02*
X120700000Y-56350000D01*
X120700000Y-56350000D02*
X121750000Y-56350000D01*
X121750000Y-57950000D02*
X120700000Y-57950000D01*
X120700000Y-57950000D02*
X120400000Y-57650000D01*
X129200000Y-58750000D02*
X130250000Y-58750000D01*
X126183932Y-58750000D02*
X129200000Y-58750000D01*
X125383932Y-57950000D02*
X126183932Y-58750000D01*
X121750000Y-57150000D02*
X122800000Y-57150000D01*
X122800000Y-57150000D02*
X123000217Y-56949783D01*
X123000217Y-56949783D02*
X123000217Y-55976721D01*
X123000217Y-55976721D02*
X123000217Y-55552457D01*
D32*
X114250000Y-49200000D02*
X113400000Y-49200000D01*
X113400000Y-49200000D02*
X112400000Y-50200000D01*
X159200000Y-56400000D02*
X159200000Y-57400000D01*
X159200000Y-56400000D02*
X160400000Y-56400000D01*
X160400000Y-57400000D02*
X160400000Y-56400000D01*
X159850000Y-58275000D02*
X159850000Y-57950000D01*
X159850000Y-57950000D02*
X160400000Y-57400000D01*
X159200000Y-59200000D02*
X159200000Y-58925000D01*
X159200000Y-58925000D02*
X159850000Y-58275000D01*
X160400000Y-59200000D02*
X159200000Y-59200000D01*
X160400000Y-60200000D02*
X160400000Y-59200000D01*
X159200000Y-60200000D02*
X160400000Y-60200000D01*
D31*
X144592998Y-53691692D02*
X144292999Y-53391693D01*
X152350000Y-61800000D02*
X151199980Y-61800000D01*
X151099999Y-61899981D02*
X150800000Y-62199980D01*
X145200000Y-53851150D02*
X144752456Y-53851150D01*
X151199980Y-61800000D02*
X151099999Y-61899981D01*
X144752456Y-53851150D02*
X144592998Y-53691692D01*
X145200000Y-53405705D02*
X145156621Y-53362326D01*
X145200000Y-55601020D02*
X145200000Y-53405705D01*
X145820823Y-53696586D02*
X146120822Y-53396587D01*
X145666259Y-53851150D02*
X145820823Y-53696586D01*
X145200000Y-53851150D02*
X145666259Y-53851150D01*
X145200000Y-55601020D02*
X145200000Y-53851150D01*
X153401020Y-49200000D02*
X153401020Y-49798980D01*
X153401020Y-49798980D02*
X152400000Y-50800000D01*
X153401020Y-49200000D02*
X153401020Y-49801020D01*
X153401020Y-49801020D02*
X154400000Y-50800000D01*
X153401020Y-49200000D02*
X153401020Y-50798980D01*
X153401020Y-50798980D02*
X153400000Y-50800000D01*
X162700000Y-60550000D02*
X161900000Y-60550000D01*
X161900000Y-60550000D02*
X159850000Y-58500000D01*
X159850000Y-58500000D02*
X159850000Y-58275000D01*
X162700000Y-59900000D02*
X161475000Y-59900000D01*
X161475000Y-59900000D02*
X159850000Y-58275000D01*
X157000000Y-57300000D02*
X158875000Y-57300000D01*
X158875000Y-57300000D02*
X159850000Y-58275000D01*
X157000000Y-59250000D02*
X158875000Y-59250000D01*
X158875000Y-59250000D02*
X159850000Y-58275000D01*
X152350000Y-59600000D02*
X152350000Y-61800000D01*
X140408583Y-61550295D02*
X141750295Y-61550295D01*
X141750295Y-61550295D02*
X141800000Y-61600000D01*
X140408583Y-61550295D02*
X139049705Y-61550295D01*
X139049705Y-61550295D02*
X139000000Y-61600000D01*
X134508583Y-61550295D02*
X135950295Y-61550295D01*
X135950295Y-61550295D02*
X136000000Y-61600000D01*
X134508583Y-61550295D02*
X133249705Y-61550295D01*
X133249705Y-61550295D02*
X133200000Y-61600000D01*
X130250000Y-56350000D02*
X129050000Y-56350000D01*
X129050000Y-56350000D02*
X129000000Y-56400000D01*
X122997760Y-55550000D02*
X123000217Y-55552457D01*
X121750000Y-55550000D02*
X122997760Y-55550000D01*
X116000000Y-55900000D02*
X113125010Y-55900000D01*
X113125010Y-55900000D02*
X113025010Y-55800000D01*
X116000000Y-55900000D02*
X118874990Y-55900000D01*
X118874990Y-55900000D02*
X118974990Y-56000000D01*
X114450000Y-62600000D02*
X113026930Y-62600000D01*
X127800000Y-56800000D02*
X128150000Y-57150000D01*
X128150000Y-57150000D02*
X130250000Y-57150000D01*
X162700000Y-54700000D02*
X162350000Y-54700000D01*
X160850000Y-53200000D02*
X160850000Y-52800000D01*
X162350000Y-54700000D02*
X160850000Y-53200000D01*
X162700000Y-55350000D02*
X162700000Y-54700000D01*
X157398980Y-49200000D02*
X158148280Y-49200000D01*
X158148280Y-49200000D02*
X160850000Y-51901720D01*
X160850000Y-51901720D02*
X160850000Y-51925000D01*
X160850000Y-51925000D02*
X160850000Y-52800000D01*
X163860000Y-49200000D02*
X163860000Y-50466000D01*
X163860000Y-50466000D02*
X161526000Y-52800000D01*
X161526000Y-52800000D02*
X160850000Y-52800000D01*
X154400000Y-55450000D02*
X155275000Y-55450000D01*
X155275000Y-55450000D02*
X155825000Y-56000000D01*
X155825000Y-56000000D02*
X156200000Y-56000000D01*
X156200000Y-56000000D02*
X157000000Y-56000000D01*
X157000000Y-55350000D02*
X156023198Y-55350000D01*
X156023198Y-55350000D02*
X155421408Y-54748210D01*
X155421408Y-54748210D02*
X155421408Y-54053679D01*
X155421408Y-54053679D02*
X154400000Y-53032271D01*
X154400000Y-53032271D02*
X154400000Y-52950000D01*
X157000000Y-54700000D02*
X157000000Y-54025000D01*
X157000000Y-54025000D02*
X158225000Y-52800000D01*
X158225000Y-52800000D02*
X158350000Y-52800000D01*
X154850000Y-59600000D02*
X155200000Y-59600000D01*
X155200000Y-59600000D02*
X156200000Y-58600000D01*
X156200000Y-58600000D02*
X157000000Y-58600000D01*
X154850000Y-61800000D02*
X156033698Y-60616302D01*
X156033698Y-60616302D02*
X156033698Y-60066302D01*
X156033698Y-60066302D02*
X156200000Y-59900000D01*
X156200000Y-59900000D02*
X157000000Y-59900000D01*
X125600000Y-52500000D02*
X125600000Y-53550000D01*
X125600000Y-53550000D02*
X126476342Y-54426342D01*
X128213847Y-54426342D02*
X128538631Y-54101558D01*
X126476342Y-54426342D02*
X128213847Y-54426342D01*
X128538631Y-54101558D02*
X128543002Y-54101558D01*
X134513223Y-53959020D02*
X134497002Y-53975241D01*
X134513223Y-52345435D02*
X134513223Y-53959020D01*
D32*
X145200000Y-59598980D02*
X145200000Y-59183598D01*
X145200000Y-59183598D02*
X147000000Y-57383598D01*
X147000000Y-57383598D02*
X147000000Y-53600000D01*
X148540000Y-52060000D02*
X148540000Y-49200000D01*
X147000000Y-53600000D02*
X148540000Y-52060000D01*
X145200000Y-59598980D02*
X149151020Y-59598980D01*
X149151020Y-59598980D02*
X149200000Y-59550000D01*
X149200000Y-59550000D02*
X150214998Y-59550000D01*
X150214998Y-59550000D02*
X151814998Y-57950000D01*
X151814998Y-57950000D02*
X155950000Y-57950000D01*
X155950000Y-57950000D02*
X157000000Y-57950000D01*
D31*
X116950000Y-49200000D02*
X118400000Y-49200000D01*
X117150000Y-62600000D02*
X118800000Y-62600000D01*
X143658312Y-49049037D02*
X143358313Y-48749038D01*
X143667979Y-49058704D02*
X143658312Y-49049037D01*
X143667979Y-60902401D02*
X143667979Y-49058704D01*
X145590578Y-62825000D02*
X143667979Y-60902401D01*
X155675000Y-62825000D02*
X145590578Y-62825000D01*
X157000000Y-61850000D02*
X156650000Y-61850000D01*
X156650000Y-61850000D02*
X155675000Y-62825000D01*
X122450000Y-46200000D02*
X122550000Y-46200000D01*
X122550000Y-46200000D02*
X123950000Y-44800000D01*
X123950000Y-44800000D02*
X127000000Y-44800000D01*
X120800000Y-46400000D02*
X122250000Y-46400000D01*
X122250000Y-46400000D02*
X122450000Y-46200000D01*
X121750000Y-53950000D02*
X121225000Y-53950000D01*
X121225000Y-53950000D02*
X120000000Y-52725000D01*
X120000000Y-52725000D02*
X120000000Y-52200000D01*
X124716376Y-54100011D02*
X125016375Y-53800012D01*
X124066387Y-54750000D02*
X124716376Y-54100011D01*
X121750000Y-54750000D02*
X124066387Y-54750000D01*
X140413223Y-52345435D02*
X139363223Y-52345435D01*
X139363223Y-52345435D02*
X137816141Y-50798353D01*
X137816141Y-50798353D02*
X133289880Y-50798353D01*
X133289880Y-50798353D02*
X132028188Y-52060045D01*
X132028188Y-52060045D02*
X131728189Y-52360044D01*
X140413223Y-53927331D02*
X140445079Y-53959187D01*
X140413223Y-52345435D02*
X140413223Y-53927331D01*
X119600000Y-55600000D02*
X119600000Y-57650000D01*
X119600000Y-57650000D02*
X120700000Y-58750000D01*
X120700000Y-58750000D02*
X121750000Y-58750000D01*
X116000000Y-53400000D02*
X117400000Y-53400000D01*
X117400000Y-53400000D02*
X119600000Y-55600000D01*
X116000000Y-58400000D02*
X118250000Y-58400000D01*
X118250000Y-58400000D02*
X119400000Y-59550000D01*
X119400000Y-59550000D02*
X120700000Y-59550000D01*
X120700000Y-59550000D02*
X121750000Y-59550000D01*
X123200000Y-62600000D02*
X123200000Y-61000000D01*
X125600000Y-61000000D02*
X125600000Y-62632663D01*
X163800000Y-61500000D02*
X163500000Y-61200000D01*
X125600000Y-62632663D02*
X128592161Y-65624824D01*
X128592161Y-65624824D02*
X160375176Y-65624824D01*
X160375176Y-65624824D02*
X163800000Y-62200000D01*
X163800000Y-62200000D02*
X163800000Y-61500000D01*
X163500000Y-61200000D02*
X162700000Y-61200000D01*
X126400000Y-61000000D02*
X126400000Y-62050000D01*
X161900000Y-61850000D02*
X162700000Y-61850000D01*
X126400000Y-62050000D02*
X129417329Y-65067329D01*
X129417329Y-65067329D02*
X158682671Y-65067329D01*
X158682671Y-65067329D02*
X161900000Y-61850000D01*
X112400000Y-61000000D02*
X112400000Y-53134000D01*
X112400000Y-53134000D02*
X111066000Y-51800000D01*
X111066000Y-51800000D02*
X109800000Y-51800000D01*
X128000000Y-61000000D02*
X128000000Y-62400000D01*
X107200000Y-61400000D02*
X107199999Y-61399999D01*
X107199999Y-61399999D02*
X107199999Y-56203097D01*
X107199999Y-56203097D02*
X109063096Y-54340000D01*
X109063096Y-54340000D02*
X109800000Y-54340000D01*
X128800000Y-61000000D02*
X128800000Y-62400000D01*
X126600000Y-59699998D02*
X130100002Y-59699998D01*
X130100002Y-59699998D02*
X130250000Y-59550000D01*
X157000000Y-61200000D02*
X157685002Y-61200000D01*
X157685002Y-61200000D02*
X157875001Y-61389999D01*
X157875001Y-61389999D02*
X157875001Y-62310001D01*
X157875001Y-62310001D02*
X156909991Y-63275011D01*
X156909991Y-63275011D02*
X145404178Y-63275010D01*
X145404178Y-63275010D02*
X143217968Y-61088800D01*
X143217968Y-61088800D02*
X143217968Y-49604620D01*
X143217968Y-49604620D02*
X139813348Y-46200000D01*
X139813348Y-46200000D02*
X136500000Y-46200000D01*
X136500000Y-46200000D02*
X135500000Y-46200000D01*
X131154000Y-47600000D02*
X134000000Y-47600000D01*
X134000000Y-47600000D02*
X135400000Y-46200000D01*
X135400000Y-46200000D02*
X135500000Y-46200000D01*
X130820000Y-49200000D02*
X130820000Y-47934000D01*
X130820000Y-47934000D02*
X131154000Y-47600000D01*
X127839998Y-51000000D02*
X129172400Y-51000000D01*
X129172400Y-51000000D02*
X130820000Y-49352400D01*
X130820000Y-49352400D02*
X130820000Y-49200000D01*
X127200000Y-52500000D02*
X127200000Y-51639998D01*
X127200000Y-51639998D02*
X127839998Y-51000000D01*
X142699980Y-51600000D02*
X142699980Y-61338413D01*
X141200000Y-50755433D02*
X141855413Y-50755433D01*
X141855413Y-50755433D02*
X142699980Y-51600000D01*
X142699980Y-61338413D02*
X145086587Y-63725020D01*
X145086587Y-63725020D02*
X157096390Y-63725020D01*
X157096390Y-63725020D02*
X158325010Y-62496402D01*
X158325010Y-62496402D02*
X158325010Y-61190008D01*
X158325010Y-61190008D02*
X157685002Y-60550000D01*
X157685002Y-60550000D02*
X157000000Y-60550000D01*
X128280000Y-49200000D02*
X128280000Y-49047600D01*
X128280000Y-49047600D02*
X130300000Y-47027600D01*
X130300000Y-47027600D02*
X130300000Y-46200000D01*
X126400000Y-52500000D02*
X126400000Y-51080000D01*
X126400000Y-51080000D02*
X127014000Y-50466000D01*
X127014000Y-50466000D02*
X127166400Y-50466000D01*
X127166400Y-50466000D02*
X128280000Y-49352400D01*
X128280000Y-49352400D02*
X128280000Y-49200000D01*
X124800000Y-52500000D02*
X124800000Y-51639998D01*
X124800000Y-51639998D02*
X123780772Y-50620770D01*
X123780772Y-50620770D02*
X121336965Y-50620770D01*
X121336965Y-50620770D02*
X118303434Y-47587239D01*
X118303434Y-47587239D02*
X102219247Y-47587239D01*
X102219247Y-47587239D02*
X101450618Y-48355868D01*
X101450618Y-48355868D02*
X101450618Y-53656618D01*
X101450618Y-53656618D02*
X102134000Y-54340000D01*
X102134000Y-54340000D02*
X103400000Y-54340000D01*
X124000000Y-52500000D02*
X124000000Y-51639998D01*
X111134811Y-51301463D02*
X110444738Y-50611390D01*
X124000000Y-51639998D02*
X123661465Y-51301463D01*
X123661465Y-51301463D02*
X111134811Y-51301463D01*
X104666000Y-51800000D02*
X103400000Y-51800000D01*
X110444738Y-50611390D02*
X105854610Y-50611390D01*
X105854610Y-50611390D02*
X104666000Y-51800000D01*
X123200000Y-52500000D02*
X121500000Y-52500000D01*
X121500000Y-52500000D02*
X121200000Y-52200000D01*
D32*
X157000000Y-56650000D02*
X149800000Y-56650000D01*
X149800000Y-56650000D02*
X149200000Y-56050000D01*
D31*
X162700000Y-59250000D02*
X164202700Y-59250000D01*
X164202700Y-59250000D02*
X165892700Y-60940000D01*
X165892700Y-60940000D02*
X166400000Y-60940000D01*
X162700000Y-58600000D02*
X162700000Y-59250000D01*
X162700000Y-57950000D02*
X165950000Y-57950000D01*
X165950000Y-57950000D02*
X166400000Y-58400000D01*
X162700000Y-57300000D02*
X162700000Y-57950000D01*
X162700000Y-56000000D02*
X166260000Y-56000000D01*
X166260000Y-56000000D02*
X166400000Y-55860000D01*
X162700000Y-56650000D02*
X162700000Y-56000000D01*
D33*
G36*
X164673000Y-51153019D02*
X163503574Y-52517349D01*
X163479285Y-52560541D01*
X163473000Y-52600000D01*
X163473000Y-55473000D01*
X163439190Y-55473000D01*
X163397098Y-55444875D01*
X163250000Y-55415615D01*
X162195221Y-55415615D01*
X160127000Y-53347394D01*
X160127000Y-51200000D01*
X160117333Y-51151399D01*
X160089803Y-51110197D01*
X160048601Y-51082667D01*
X160000000Y-51073000D01*
X155927000Y-51073000D01*
X155927000Y-47527000D01*
X164673000Y-47527000D01*
X164673000Y-51153019D01*
X164673000Y-51153019D01*
G37*
X164673000Y-51153019D02*
X163503574Y-52517349D01*
X163479285Y-52560541D01*
X163473000Y-52600000D01*
X163473000Y-55473000D01*
X163439190Y-55473000D01*
X163397098Y-55444875D01*
X163250000Y-55415615D01*
X162195221Y-55415615D01*
X160127000Y-53347394D01*
X160127000Y-51200000D01*
X160117333Y-51151399D01*
X160089803Y-51110197D01*
X160048601Y-51082667D01*
X160000000Y-51073000D01*
X155927000Y-51073000D01*
X155927000Y-47527000D01*
X164673000Y-47527000D01*
X164673000Y-51153019D01*
G36*
X167273000Y-56673000D02*
X162327000Y-56673000D01*
X162327000Y-55934385D01*
X163250000Y-55934385D01*
X163287126Y-55927000D01*
X164800000Y-55927000D01*
X164848601Y-55917333D01*
X164889803Y-55889803D01*
X165289803Y-55489803D01*
X165317333Y-55448601D01*
X165327000Y-55400000D01*
X165327000Y-54927000D01*
X167273000Y-54927000D01*
X167273000Y-56673000D01*
X167273000Y-56673000D01*
G37*
X167273000Y-56673000D02*
X162327000Y-56673000D01*
X162327000Y-55934385D01*
X163250000Y-55934385D01*
X163287126Y-55927000D01*
X164800000Y-55927000D01*
X164848601Y-55917333D01*
X164889803Y-55889803D01*
X165289803Y-55489803D01*
X165317333Y-55448601D01*
X165327000Y-55400000D01*
X165327000Y-54927000D01*
X167273000Y-54927000D01*
X167273000Y-56673000D01*
G36*
X167473000Y-59273000D02*
X165867968Y-59273000D01*
X165105670Y-58129553D01*
X165070668Y-58094477D01*
X165024907Y-58075466D01*
X165000000Y-58073000D01*
X163439190Y-58073000D01*
X163397098Y-58044875D01*
X163250000Y-58015615D01*
X162327000Y-58015615D01*
X162327000Y-57327000D01*
X167473000Y-57327000D01*
X167473000Y-59273000D01*
X167473000Y-59273000D01*
G37*
X167473000Y-59273000D02*
X165867968Y-59273000D01*
X165105670Y-58129553D01*
X165070668Y-58094477D01*
X165024907Y-58075466D01*
X165000000Y-58073000D01*
X163439190Y-58073000D01*
X163397098Y-58044875D01*
X163250000Y-58015615D01*
X162327000Y-58015615D01*
X162327000Y-57327000D01*
X167473000Y-57327000D01*
X167473000Y-59273000D01*
G36*
X165492304Y-60067310D02*
X165526260Y-60103400D01*
X165571443Y-60123748D01*
X165600000Y-60127000D01*
X167473000Y-60127000D01*
X167473000Y-61873000D01*
X165470967Y-61873000D01*
X163908161Y-59333440D01*
X163874456Y-59297115D01*
X163829416Y-59276454D01*
X163800000Y-59273000D01*
X162326454Y-59273000D01*
X162323273Y-58534385D01*
X163250000Y-58534385D01*
X163287126Y-58527000D01*
X164529610Y-58527000D01*
X165492304Y-60067310D01*
X165492304Y-60067310D01*
G37*
X165492304Y-60067310D02*
X165526260Y-60103400D01*
X165571443Y-60123748D01*
X165600000Y-60127000D01*
X167473000Y-60127000D01*
X167473000Y-61873000D01*
X165470967Y-61873000D01*
X163908161Y-59333440D01*
X163874456Y-59297115D01*
X163829416Y-59276454D01*
X163800000Y-59273000D01*
X162326454Y-59273000D01*
X162323273Y-58534385D01*
X163250000Y-58534385D01*
X163287126Y-58527000D01*
X164529610Y-58527000D01*
X165492304Y-60067310D01*
G36*
X174573000Y-67573000D02*
X94427000Y-67573000D01*
X94427000Y-64971720D01*
X95522675Y-64971720D01*
X95807829Y-65661846D01*
X96335376Y-66190316D01*
X97025004Y-66476674D01*
X97771720Y-66477325D01*
X98461846Y-66192171D01*
X98990316Y-65664624D01*
X99276674Y-64974996D01*
X99277325Y-64228280D01*
X98992171Y-63538154D01*
X98464624Y-63009684D01*
X97774996Y-62723326D01*
X97028280Y-62722675D01*
X96338154Y-63007829D01*
X95809684Y-63535376D01*
X95523326Y-64225004D01*
X95522675Y-64971720D01*
X94427000Y-64971720D01*
X94427000Y-61534073D01*
X106522883Y-61534073D01*
X106625733Y-61782989D01*
X106816010Y-61973598D01*
X107064746Y-62076882D01*
X107334073Y-62077117D01*
X107582989Y-61974267D01*
X107607298Y-61950000D01*
X116015615Y-61950000D01*
X116015615Y-63250000D01*
X116044875Y-63397098D01*
X116128199Y-63521801D01*
X116252902Y-63605125D01*
X116400000Y-63634385D01*
X117900000Y-63634385D01*
X118047098Y-63605125D01*
X118171801Y-63521801D01*
X118255125Y-63397098D01*
X118284385Y-63250000D01*
X118284385Y-63102000D01*
X118344537Y-63102000D01*
X118416010Y-63173598D01*
X118664746Y-63276882D01*
X118934073Y-63277117D01*
X119182989Y-63174267D01*
X119373598Y-62983990D01*
X119476882Y-62735254D01*
X119477117Y-62465927D01*
X119374267Y-62217011D01*
X119183990Y-62026402D01*
X118935254Y-61923118D01*
X118665927Y-61922883D01*
X118417011Y-62025733D01*
X118344618Y-62098000D01*
X118284385Y-62098000D01*
X118284385Y-61950000D01*
X118255125Y-61802902D01*
X118171801Y-61678199D01*
X118047098Y-61594875D01*
X117900000Y-61565615D01*
X116400000Y-61565615D01*
X116252902Y-61594875D01*
X116128199Y-61678199D01*
X116044875Y-61802902D01*
X116015615Y-61950000D01*
X107607298Y-61950000D01*
X107773598Y-61783990D01*
X107876882Y-61535254D01*
X107877117Y-61265927D01*
X107774267Y-61017011D01*
X107701999Y-60944617D01*
X107701999Y-59420000D01*
X108379710Y-59420000D01*
X108474145Y-59894757D01*
X108743073Y-60297237D01*
X109145553Y-60566165D01*
X109620310Y-60660600D01*
X109979690Y-60660600D01*
X110454447Y-60566165D01*
X110856927Y-60297237D01*
X111125855Y-59894757D01*
X111220290Y-59420000D01*
X111125855Y-58945243D01*
X110856927Y-58542763D01*
X110454447Y-58273835D01*
X109979690Y-58179400D01*
X109620310Y-58179400D01*
X109145553Y-58273835D01*
X108743073Y-58542763D01*
X108474145Y-58945243D01*
X108379710Y-59420000D01*
X107701999Y-59420000D01*
X107701999Y-56880000D01*
X108379710Y-56880000D01*
X108474145Y-57354757D01*
X108743073Y-57757237D01*
X109145553Y-58026165D01*
X109620310Y-58120600D01*
X109979690Y-58120600D01*
X110454447Y-58026165D01*
X110856927Y-57757237D01*
X111125855Y-57354757D01*
X111220290Y-56880000D01*
X111125855Y-56405243D01*
X110856927Y-56002763D01*
X110454447Y-55733835D01*
X109979690Y-55639400D01*
X109620310Y-55639400D01*
X109145553Y-55733835D01*
X108743073Y-56002763D01*
X108474145Y-56405243D01*
X108379710Y-56880000D01*
X107701999Y-56880000D01*
X107701999Y-56411033D01*
X108834623Y-55278409D01*
X109145553Y-55486165D01*
X109620310Y-55580600D01*
X109979690Y-55580600D01*
X110454447Y-55486165D01*
X110856927Y-55217237D01*
X111125855Y-54814757D01*
X111220290Y-54340000D01*
X111125855Y-53865243D01*
X110856927Y-53462763D01*
X110454447Y-53193835D01*
X109979690Y-53099400D01*
X109620310Y-53099400D01*
X109145553Y-53193835D01*
X108743073Y-53462763D01*
X108474145Y-53865243D01*
X108386302Y-54306858D01*
X106845031Y-55848129D01*
X106736211Y-56010990D01*
X106697998Y-56203097D01*
X106697999Y-56203102D01*
X106697999Y-60944538D01*
X106626402Y-61016010D01*
X106523118Y-61264746D01*
X106522883Y-61534073D01*
X94427000Y-61534073D01*
X94427000Y-56880000D01*
X101979710Y-56880000D01*
X102074145Y-57354757D01*
X102343073Y-57757237D01*
X102745553Y-58026165D01*
X103220310Y-58120600D01*
X103579690Y-58120600D01*
X104054447Y-58026165D01*
X104456927Y-57757237D01*
X104725855Y-57354757D01*
X104820290Y-56880000D01*
X104725855Y-56405243D01*
X104456927Y-56002763D01*
X104054447Y-55733835D01*
X103579690Y-55639400D01*
X103220310Y-55639400D01*
X102745553Y-55733835D01*
X102343073Y-56002763D01*
X102074145Y-56405243D01*
X101979710Y-56880000D01*
X94427000Y-56880000D01*
X94427000Y-48355868D01*
X100948617Y-48355868D01*
X100948618Y-48355873D01*
X100948618Y-53656613D01*
X100948617Y-53656618D01*
X100986830Y-53848725D01*
X101095650Y-54011586D01*
X101779032Y-54694968D01*
X101941892Y-54803788D01*
X102085964Y-54832445D01*
X102343073Y-55217237D01*
X102745553Y-55486165D01*
X103220310Y-55580600D01*
X103579690Y-55580600D01*
X104054447Y-55486165D01*
X104456927Y-55217237D01*
X104725855Y-54814757D01*
X104820290Y-54340000D01*
X104725855Y-53865243D01*
X104456927Y-53462763D01*
X104054447Y-53193835D01*
X103579690Y-53099400D01*
X103220310Y-53099400D01*
X102745553Y-53193835D01*
X102343073Y-53462763D01*
X102192319Y-53688383D01*
X101952618Y-53448682D01*
X101952618Y-48563804D01*
X101999615Y-48516807D01*
X101999615Y-50123600D01*
X102028875Y-50270698D01*
X102112199Y-50395401D01*
X102236902Y-50478725D01*
X102384000Y-50507985D01*
X104416000Y-50507985D01*
X104563098Y-50478725D01*
X104687801Y-50395401D01*
X104771125Y-50270698D01*
X104800385Y-50123600D01*
X104800385Y-48396400D01*
X104771125Y-48249302D01*
X104687801Y-48124599D01*
X104634881Y-48089239D01*
X108565119Y-48089239D01*
X108512199Y-48124599D01*
X108428875Y-48249302D01*
X108399615Y-48396400D01*
X108399615Y-50109390D01*
X105854610Y-50109390D01*
X105662502Y-50147602D01*
X105597270Y-50191190D01*
X105499642Y-50256422D01*
X105499640Y-50256425D01*
X104607681Y-51148383D01*
X104456927Y-50922763D01*
X104054447Y-50653835D01*
X103579690Y-50559400D01*
X103220310Y-50559400D01*
X102745553Y-50653835D01*
X102343073Y-50922763D01*
X102074145Y-51325243D01*
X101979710Y-51800000D01*
X102074145Y-52274757D01*
X102343073Y-52677237D01*
X102745553Y-52946165D01*
X103220310Y-53040600D01*
X103579690Y-53040600D01*
X104054447Y-52946165D01*
X104456927Y-52677237D01*
X104714036Y-52292446D01*
X104858107Y-52263788D01*
X105020968Y-52154968D01*
X106062545Y-51113390D01*
X108615700Y-51113390D01*
X108474145Y-51325243D01*
X108379710Y-51800000D01*
X108474145Y-52274757D01*
X108743073Y-52677237D01*
X109145553Y-52946165D01*
X109620310Y-53040600D01*
X109979690Y-53040600D01*
X110454447Y-52946165D01*
X110856927Y-52677237D01*
X111007681Y-52451617D01*
X111898000Y-53341936D01*
X111898000Y-60544537D01*
X111826402Y-60616010D01*
X111723118Y-60864746D01*
X111722883Y-61134073D01*
X111825733Y-61382989D01*
X112016010Y-61573598D01*
X112264746Y-61676882D01*
X112534073Y-61677117D01*
X112782989Y-61574267D01*
X112973598Y-61383990D01*
X113076882Y-61135254D01*
X113077117Y-60865927D01*
X112974267Y-60617011D01*
X112902000Y-60544618D01*
X112902000Y-53134005D01*
X112902001Y-53134000D01*
X112863788Y-52941893D01*
X112768979Y-52800000D01*
X113615615Y-52800000D01*
X113615615Y-54000000D01*
X113644875Y-54147098D01*
X113728199Y-54271801D01*
X113852902Y-54355125D01*
X114000000Y-54384385D01*
X117674449Y-54384385D01*
X119098000Y-55807935D01*
X119098000Y-57649995D01*
X119097999Y-57650000D01*
X119136212Y-57842107D01*
X119245032Y-58004968D01*
X120288064Y-59048000D01*
X119607935Y-59048000D01*
X118604968Y-58045032D01*
X118442107Y-57936212D01*
X118384385Y-57924730D01*
X118384385Y-57800000D01*
X118355125Y-57652902D01*
X118271801Y-57528199D01*
X118147098Y-57444875D01*
X118000000Y-57415615D01*
X114000000Y-57415615D01*
X113852902Y-57444875D01*
X113728199Y-57528199D01*
X113644875Y-57652902D01*
X113615615Y-57800000D01*
X113615615Y-59000000D01*
X113644875Y-59147098D01*
X113728199Y-59271801D01*
X113852902Y-59355125D01*
X114000000Y-59384385D01*
X118000000Y-59384385D01*
X118147098Y-59355125D01*
X118271801Y-59271801D01*
X118327903Y-59187839D01*
X119045030Y-59904965D01*
X119045032Y-59904968D01*
X119177314Y-59993356D01*
X119207893Y-60013788D01*
X119400000Y-60052001D01*
X119400005Y-60052000D01*
X120648264Y-60052000D01*
X120678199Y-60096801D01*
X120802902Y-60180125D01*
X120950000Y-60209385D01*
X122540615Y-60209385D01*
X122540615Y-61800000D01*
X122569875Y-61947098D01*
X122653199Y-62071801D01*
X122698000Y-62101736D01*
X122698000Y-62144537D01*
X122626402Y-62216010D01*
X122523118Y-62464746D01*
X122522883Y-62734073D01*
X122625733Y-62982989D01*
X122816010Y-63173598D01*
X123064746Y-63276882D01*
X123334073Y-63277117D01*
X123582989Y-63174267D01*
X123773598Y-62983990D01*
X123876882Y-62735254D01*
X123877117Y-62465927D01*
X123774267Y-62217011D01*
X123741698Y-62184385D01*
X124275000Y-62184385D01*
X124400000Y-62159521D01*
X124525000Y-62184385D01*
X125075000Y-62184385D01*
X125098000Y-62179810D01*
X125098000Y-62632658D01*
X125097999Y-62632663D01*
X125136212Y-62824770D01*
X125245032Y-62987631D01*
X128237191Y-65979789D01*
X128237193Y-65979792D01*
X128400054Y-66088612D01*
X128592161Y-66126825D01*
X128592166Y-66126824D01*
X160375171Y-66126824D01*
X160375176Y-66126825D01*
X160567283Y-66088612D01*
X160730144Y-65979792D01*
X161738215Y-64971720D01*
X169722675Y-64971720D01*
X170007829Y-65661846D01*
X170535376Y-66190316D01*
X171225004Y-66476674D01*
X171971720Y-66477325D01*
X172661846Y-66192171D01*
X173190316Y-65664624D01*
X173476674Y-64974996D01*
X173477325Y-64228280D01*
X173192171Y-63538154D01*
X172664624Y-63009684D01*
X171974996Y-62723326D01*
X171228280Y-62722675D01*
X170538154Y-63007829D01*
X170009684Y-63535376D01*
X169723326Y-64225004D01*
X169722675Y-64971720D01*
X161738215Y-64971720D01*
X164154965Y-62554970D01*
X164154968Y-62554968D01*
X164263788Y-62392107D01*
X164277773Y-62321801D01*
X164302001Y-62200000D01*
X164302000Y-62199995D01*
X164302000Y-61500005D01*
X164302001Y-61500000D01*
X164263788Y-61307892D01*
X164154968Y-61145032D01*
X163854968Y-60845032D01*
X163692107Y-60736212D01*
X163500000Y-60697999D01*
X163499995Y-60698000D01*
X163476605Y-60698000D01*
X163397098Y-60644875D01*
X163250000Y-60615615D01*
X162150000Y-60615615D01*
X162002902Y-60644875D01*
X161878199Y-60728199D01*
X161794875Y-60852902D01*
X161765615Y-61000000D01*
X161765615Y-61374730D01*
X161707892Y-61386212D01*
X161680671Y-61404401D01*
X161545032Y-61495032D01*
X161545030Y-61495035D01*
X158474735Y-64565329D01*
X129625264Y-64565329D01*
X128136181Y-63076246D01*
X128382989Y-62974267D01*
X128399863Y-62957423D01*
X128416010Y-62973598D01*
X128664746Y-63076882D01*
X128934073Y-63077117D01*
X129182989Y-62974267D01*
X129373598Y-62783990D01*
X129476882Y-62535254D01*
X129477117Y-62265927D01*
X129377761Y-62025467D01*
X129430125Y-61947098D01*
X129459385Y-61800000D01*
X129459385Y-60209385D01*
X131050000Y-60209385D01*
X131197098Y-60180125D01*
X131321801Y-60096801D01*
X131405125Y-59972098D01*
X131434385Y-59825000D01*
X131434385Y-59275000D01*
X131429810Y-59252000D01*
X132004823Y-59252000D01*
X132064746Y-59276882D01*
X132334073Y-59277117D01*
X132582989Y-59174267D01*
X132773598Y-58983990D01*
X132876882Y-58735254D01*
X132877117Y-58465927D01*
X132774267Y-58217011D01*
X132583990Y-58026402D01*
X132335254Y-57923118D01*
X132065927Y-57922883D01*
X131817011Y-58025733D01*
X131626402Y-58216010D01*
X131613119Y-58248000D01*
X131429810Y-58248000D01*
X131434385Y-58225000D01*
X131434385Y-57675000D01*
X131409521Y-57550000D01*
X131434385Y-57425000D01*
X131434385Y-56875000D01*
X131405125Y-56727902D01*
X131321801Y-56603199D01*
X131197098Y-56519875D01*
X131050000Y-56490615D01*
X129450000Y-56490615D01*
X129302902Y-56519875D01*
X129178199Y-56603199D01*
X129148264Y-56648000D01*
X128469710Y-56648000D01*
X128374267Y-56417011D01*
X128183990Y-56226402D01*
X127935254Y-56123118D01*
X127665927Y-56122883D01*
X127417011Y-56225733D01*
X127226402Y-56416010D01*
X127123118Y-56664746D01*
X127122883Y-56934073D01*
X127225733Y-57182989D01*
X127416010Y-57373598D01*
X127664746Y-57476882D01*
X127767036Y-57476971D01*
X127795030Y-57504965D01*
X127795032Y-57504968D01*
X127929823Y-57595032D01*
X127957893Y-57613788D01*
X128150000Y-57652001D01*
X128150005Y-57652000D01*
X129070190Y-57652000D01*
X129065615Y-57675000D01*
X129065615Y-58225000D01*
X129070190Y-58248000D01*
X126391867Y-58248000D01*
X125738900Y-57595032D01*
X125576039Y-57486212D01*
X125383932Y-57447999D01*
X125383927Y-57448000D01*
X123455463Y-57448000D01*
X123383990Y-57376402D01*
X123135254Y-57273118D01*
X122865927Y-57272883D01*
X122718152Y-57333943D01*
X122697098Y-57319875D01*
X122550000Y-57290615D01*
X120950000Y-57290615D01*
X120902000Y-57300163D01*
X120902000Y-56999837D01*
X120950000Y-57009385D01*
X122550000Y-57009385D01*
X122697098Y-56980125D01*
X122821801Y-56896801D01*
X122905125Y-56772098D01*
X122934385Y-56625000D01*
X122934385Y-56075000D01*
X122905125Y-55927902D01*
X122821801Y-55803199D01*
X122697098Y-55719875D01*
X122550000Y-55690615D01*
X120950000Y-55690615D01*
X120802902Y-55719875D01*
X120678199Y-55803199D01*
X120640334Y-55859867D01*
X120507892Y-55886212D01*
X120345032Y-55995032D01*
X120102000Y-56238064D01*
X120102000Y-55600005D01*
X120102001Y-55600000D01*
X120063788Y-55407893D01*
X120025105Y-55350000D01*
X119954968Y-55245032D01*
X119954965Y-55245030D01*
X118384385Y-53674449D01*
X118384385Y-52800000D01*
X118355125Y-52652902D01*
X118271801Y-52528199D01*
X118147098Y-52444875D01*
X118000000Y-52415615D01*
X114000000Y-52415615D01*
X113852902Y-52444875D01*
X113728199Y-52528199D01*
X113644875Y-52652902D01*
X113615615Y-52800000D01*
X112768979Y-52800000D01*
X112754968Y-52779032D01*
X111779399Y-51803463D01*
X119438971Y-51803463D01*
X119426402Y-51816010D01*
X119323118Y-52064746D01*
X119322883Y-52334073D01*
X119425733Y-52582989D01*
X119498000Y-52655382D01*
X119498000Y-52724995D01*
X119497999Y-52725000D01*
X119536212Y-52917107D01*
X119645032Y-53079968D01*
X120565615Y-54000550D01*
X120565615Y-54225000D01*
X120590479Y-54350000D01*
X120565615Y-54475000D01*
X120565615Y-55025000D01*
X120594875Y-55172098D01*
X120678199Y-55296801D01*
X120802902Y-55380125D01*
X120950000Y-55409385D01*
X122550000Y-55409385D01*
X122697098Y-55380125D01*
X122821801Y-55296801D01*
X122851736Y-55252000D01*
X124066382Y-55252000D01*
X124066387Y-55252001D01*
X124258494Y-55213788D01*
X124421355Y-55104968D01*
X125049281Y-54477041D01*
X125150448Y-54477129D01*
X125399364Y-54374279D01*
X125556991Y-54216927D01*
X126121372Y-54781307D01*
X126121374Y-54781310D01*
X126221183Y-54848000D01*
X126284235Y-54890130D01*
X126476342Y-54928343D01*
X126476347Y-54928342D01*
X128213842Y-54928342D01*
X128213847Y-54928343D01*
X128405954Y-54890130D01*
X128568815Y-54781310D01*
X128571542Y-54778583D01*
X128677075Y-54778675D01*
X128925991Y-54675825D01*
X129065615Y-54536444D01*
X129065615Y-55025000D01*
X129090479Y-55150000D01*
X129065615Y-55275000D01*
X129065615Y-55825000D01*
X129094875Y-55972098D01*
X129178199Y-56096801D01*
X129302902Y-56180125D01*
X129450000Y-56209385D01*
X131050000Y-56209385D01*
X131197098Y-56180125D01*
X131321801Y-56096801D01*
X131405125Y-55972098D01*
X131434385Y-55825000D01*
X131434385Y-55275000D01*
X131409521Y-55150000D01*
X131434385Y-55025000D01*
X131434385Y-54475000D01*
X131409521Y-54350000D01*
X131434385Y-54225000D01*
X131434385Y-53675000D01*
X131405125Y-53527902D01*
X131321801Y-53403199D01*
X131197098Y-53319875D01*
X131050000Y-53290615D01*
X129459385Y-53290615D01*
X129459385Y-51700000D01*
X129430125Y-51552902D01*
X129368706Y-51460982D01*
X129527368Y-51354968D01*
X130354616Y-50527719D01*
X130820000Y-50620290D01*
X131294757Y-50525855D01*
X131697237Y-50256927D01*
X131966165Y-49854447D01*
X132060600Y-49379690D01*
X132060600Y-49020310D01*
X131966165Y-48545553D01*
X131697237Y-48143073D01*
X131635767Y-48102000D01*
X132544233Y-48102000D01*
X132482763Y-48143073D01*
X132213835Y-48545553D01*
X132119400Y-49020310D01*
X132119400Y-49379690D01*
X132213835Y-49854447D01*
X132482763Y-50256927D01*
X132865580Y-50512717D01*
X131695282Y-51683015D01*
X131594116Y-51682927D01*
X131345200Y-51785777D01*
X131154591Y-51976054D01*
X131051307Y-52224790D01*
X131051072Y-52494117D01*
X131153922Y-52743033D01*
X131344199Y-52933642D01*
X131592935Y-53036926D01*
X131862262Y-53037161D01*
X132111178Y-52934311D01*
X132301787Y-52744034D01*
X132405071Y-52495298D01*
X132405160Y-52393009D01*
X133328838Y-51469331D01*
X133328838Y-53435435D01*
X133358098Y-53582533D01*
X133441422Y-53707236D01*
X133566125Y-53790560D01*
X133713223Y-53819820D01*
X133828494Y-53819820D01*
X133820120Y-53839987D01*
X133819885Y-54109314D01*
X133922735Y-54358230D01*
X134113012Y-54548839D01*
X134361748Y-54652123D01*
X134631075Y-54652358D01*
X134879991Y-54549508D01*
X135070600Y-54359231D01*
X135173884Y-54110495D01*
X135174119Y-53841168D01*
X135165298Y-53819820D01*
X135313223Y-53819820D01*
X135460321Y-53790560D01*
X135585024Y-53707236D01*
X135668348Y-53582533D01*
X135697608Y-53435435D01*
X135697608Y-51300353D01*
X137608205Y-51300353D01*
X139008253Y-52700400D01*
X139008255Y-52700403D01*
X139073554Y-52744034D01*
X139171115Y-52809223D01*
X139228838Y-52820705D01*
X139228838Y-53435435D01*
X139258098Y-53582533D01*
X139341422Y-53707236D01*
X139466125Y-53790560D01*
X139613223Y-53819820D01*
X139769905Y-53819820D01*
X139768197Y-53823933D01*
X139767962Y-54093260D01*
X139870812Y-54342176D01*
X140061089Y-54532785D01*
X140309825Y-54636069D01*
X140579152Y-54636304D01*
X140828068Y-54533454D01*
X141018677Y-54343177D01*
X141121961Y-54094441D01*
X141122196Y-53825114D01*
X141120009Y-53819820D01*
X141213223Y-53819820D01*
X141360321Y-53790560D01*
X141485024Y-53707236D01*
X141568348Y-53582533D01*
X141597608Y-53435435D01*
X141597608Y-51315106D01*
X141651426Y-51261382D01*
X142197980Y-51807936D01*
X142197980Y-61338408D01*
X142197979Y-61338413D01*
X142236192Y-61530520D01*
X142345012Y-61693381D01*
X144731619Y-64079988D01*
X144894480Y-64188808D01*
X145086587Y-64227021D01*
X145086592Y-64227020D01*
X157096385Y-64227020D01*
X157096390Y-64227021D01*
X157288497Y-64188808D01*
X157451358Y-64079988D01*
X157451360Y-64079985D01*
X158679978Y-62851370D01*
X158788798Y-62688510D01*
X158827011Y-62496402D01*
X158827010Y-62496397D01*
X158827010Y-61190013D01*
X158827011Y-61190008D01*
X158788798Y-60997901D01*
X158679978Y-60835040D01*
X158039970Y-60195032D01*
X157930086Y-60121610D01*
X157934385Y-60100000D01*
X157934385Y-59700000D01*
X157905125Y-59552902D01*
X157821801Y-59428199D01*
X157697098Y-59344875D01*
X157550000Y-59315615D01*
X156450000Y-59315615D01*
X156302902Y-59344875D01*
X156223395Y-59398000D01*
X156200005Y-59398000D01*
X156200000Y-59397999D01*
X156090070Y-59419866D01*
X156346198Y-59163737D01*
X156450000Y-59184385D01*
X157550000Y-59184385D01*
X157697098Y-59155125D01*
X157821801Y-59071801D01*
X157905125Y-58947098D01*
X157934385Y-58800000D01*
X157934385Y-58400000D01*
X157909521Y-58275000D01*
X157934385Y-58150000D01*
X157934385Y-57750000D01*
X157905125Y-57602902D01*
X157821801Y-57478199D01*
X157697098Y-57394875D01*
X157550000Y-57365615D01*
X157214238Y-57365615D01*
X157000000Y-57323000D01*
X151814998Y-57323000D01*
X151575056Y-57370727D01*
X151371642Y-57506644D01*
X150773185Y-58105101D01*
X150721801Y-58028199D01*
X150597098Y-57944875D01*
X150450000Y-57915615D01*
X147950000Y-57915615D01*
X147802902Y-57944875D01*
X147678199Y-58028199D01*
X147594875Y-58152902D01*
X147565615Y-58300000D01*
X147565615Y-58971980D01*
X146334955Y-58971980D01*
X146334955Y-58935355D01*
X147443356Y-57826954D01*
X147489501Y-57757893D01*
X147579272Y-57623541D01*
X147609897Y-57469580D01*
X147678199Y-57571801D01*
X147802902Y-57655125D01*
X147950000Y-57684385D01*
X150450000Y-57684385D01*
X150597098Y-57655125D01*
X150721801Y-57571801D01*
X150805125Y-57447098D01*
X150834385Y-57300000D01*
X150834385Y-57277000D01*
X157000000Y-57277000D01*
X157214238Y-57234385D01*
X157550000Y-57234385D01*
X157697098Y-57205125D01*
X157821801Y-57121801D01*
X157905125Y-56997098D01*
X157934385Y-56850000D01*
X157934385Y-56450000D01*
X157909521Y-56325000D01*
X157934385Y-56200000D01*
X157934385Y-55800000D01*
X157909521Y-55675000D01*
X157934385Y-55550000D01*
X157934385Y-55150000D01*
X157909521Y-55025000D01*
X157934385Y-54900000D01*
X157934385Y-54500000D01*
X157905125Y-54352902D01*
X157821801Y-54228199D01*
X157697098Y-54144875D01*
X157607820Y-54127116D01*
X157925551Y-53809385D01*
X159100000Y-53809385D01*
X159247098Y-53780125D01*
X159371801Y-53696801D01*
X159455125Y-53572098D01*
X159484385Y-53425000D01*
X159484385Y-52175000D01*
X159455125Y-52027902D01*
X159371801Y-51903199D01*
X159247098Y-51819875D01*
X159100000Y-51790615D01*
X157600000Y-51790615D01*
X157452902Y-51819875D01*
X157328199Y-51903199D01*
X157244875Y-52027902D01*
X157215615Y-52175000D01*
X157215615Y-53099449D01*
X156645032Y-53670032D01*
X156536212Y-53832893D01*
X156497999Y-54025000D01*
X156498000Y-54025005D01*
X156498000Y-54115615D01*
X156450000Y-54115615D01*
X156302902Y-54144875D01*
X156178199Y-54228199D01*
X156094875Y-54352902D01*
X156065615Y-54500000D01*
X156065615Y-54682481D01*
X155923408Y-54540274D01*
X155923408Y-54053684D01*
X155923409Y-54053679D01*
X155885196Y-53861571D01*
X155776376Y-53698711D01*
X155409385Y-53331720D01*
X155409385Y-52200000D01*
X155380125Y-52052902D01*
X155296801Y-51928199D01*
X155172098Y-51844875D01*
X155025000Y-51815615D01*
X153775000Y-51815615D01*
X153627902Y-51844875D01*
X153503199Y-51928199D01*
X153419875Y-52052902D01*
X153390615Y-52200000D01*
X153390615Y-53700000D01*
X153419875Y-53847098D01*
X153503199Y-53971801D01*
X153627902Y-54055125D01*
X153775000Y-54084385D01*
X154742178Y-54084385D01*
X154919408Y-54261615D01*
X154919408Y-54315615D01*
X153775000Y-54315615D01*
X153627902Y-54344875D01*
X153503199Y-54428199D01*
X153419875Y-54552902D01*
X153390615Y-54700000D01*
X153390615Y-56023000D01*
X150834385Y-56023000D01*
X150834385Y-54800000D01*
X150805125Y-54652902D01*
X150721801Y-54528199D01*
X150597098Y-54444875D01*
X150450000Y-54415615D01*
X147950000Y-54415615D01*
X147802902Y-54444875D01*
X147678199Y-54528199D01*
X147627000Y-54604824D01*
X147627000Y-53859712D01*
X148983356Y-52503356D01*
X149119273Y-52299942D01*
X149167000Y-52060000D01*
X149167000Y-50451497D01*
X149525000Y-50212290D01*
X149826964Y-49760368D01*
X149933000Y-49227290D01*
X149933000Y-49172710D01*
X149826964Y-48639632D01*
X149525000Y-48187710D01*
X149073078Y-47885746D01*
X148540000Y-47779710D01*
X148006922Y-47885746D01*
X147555000Y-48187710D01*
X147400385Y-48419108D01*
X147400385Y-48184000D01*
X147371125Y-48036902D01*
X147287801Y-47912199D01*
X147163098Y-47828875D01*
X147016000Y-47799615D01*
X146475270Y-47799615D01*
X146463788Y-47741893D01*
X146354968Y-47579032D01*
X146175936Y-47400000D01*
X155423000Y-47400000D01*
X155423000Y-51200000D01*
X155451697Y-51344272D01*
X155533421Y-51466579D01*
X155655728Y-51548303D01*
X155800000Y-51577000D01*
X159623000Y-51577000D01*
X159623000Y-53400000D01*
X159651697Y-53544272D01*
X159733421Y-53666579D01*
X161782410Y-55715568D01*
X161765615Y-55800000D01*
X161765615Y-56200000D01*
X161790479Y-56325000D01*
X161765615Y-56450000D01*
X161765615Y-56850000D01*
X161790479Y-56975000D01*
X161765615Y-57100000D01*
X161765615Y-57500000D01*
X161790479Y-57625000D01*
X161765615Y-57750000D01*
X161765615Y-58150000D01*
X161790479Y-58275000D01*
X161765615Y-58400000D01*
X161765615Y-58800000D01*
X161790479Y-58925000D01*
X161765615Y-59050000D01*
X161765615Y-59450000D01*
X161794875Y-59597098D01*
X161878199Y-59721801D01*
X162002902Y-59805125D01*
X162150000Y-59834385D01*
X163250000Y-59834385D01*
X163397098Y-59805125D01*
X163439190Y-59777000D01*
X163589334Y-59777000D01*
X165078925Y-62197585D01*
X165133421Y-62266579D01*
X165255728Y-62348303D01*
X165400000Y-62377000D01*
X167600000Y-62377000D01*
X167744272Y-62348303D01*
X167866579Y-62266579D01*
X167948303Y-62144272D01*
X167977000Y-62000000D01*
X167977000Y-60000000D01*
X167948303Y-59855728D01*
X167866579Y-59733421D01*
X167816562Y-59700000D01*
X167866579Y-59666579D01*
X167948303Y-59544272D01*
X167977000Y-59400000D01*
X167977000Y-57200000D01*
X167948303Y-57055728D01*
X167866579Y-56933421D01*
X167764084Y-56864935D01*
X167777000Y-56800000D01*
X167777000Y-56077634D01*
X167820290Y-55860000D01*
X167777000Y-55642366D01*
X167777000Y-54800000D01*
X167748303Y-54655728D01*
X167666579Y-54533421D01*
X167544272Y-54451697D01*
X167400000Y-54423000D01*
X165200000Y-54423000D01*
X165055728Y-54451697D01*
X164933421Y-54533421D01*
X164851697Y-54655728D01*
X164823000Y-54800000D01*
X164823000Y-55243842D01*
X164643842Y-55423000D01*
X163977000Y-55423000D01*
X163977000Y-52739461D01*
X165086240Y-51445348D01*
X165148303Y-51344272D01*
X165177000Y-51200000D01*
X165177000Y-50444102D01*
X165231125Y-50363098D01*
X165260385Y-50216000D01*
X165260385Y-48184000D01*
X165231125Y-48036902D01*
X165177000Y-47955898D01*
X165177000Y-47400000D01*
X165148303Y-47255728D01*
X165066579Y-47133421D01*
X164944272Y-47051697D01*
X164800000Y-47023000D01*
X155800000Y-47023000D01*
X155655728Y-47051697D01*
X155533421Y-47133421D01*
X155451697Y-47255728D01*
X155423000Y-47400000D01*
X146175936Y-47400000D01*
X145547656Y-46771720D01*
X169722675Y-46771720D01*
X170007829Y-47461846D01*
X170535376Y-47990316D01*
X171225004Y-48276674D01*
X171971720Y-48277325D01*
X172661846Y-47992171D01*
X173190316Y-47464624D01*
X173476674Y-46774996D01*
X173477325Y-46028280D01*
X173192171Y-45338154D01*
X172664624Y-44809684D01*
X171974996Y-44523326D01*
X171228280Y-44522675D01*
X170538154Y-44807829D01*
X170009684Y-45335376D01*
X169723326Y-46025004D01*
X169722675Y-46771720D01*
X145547656Y-46771720D01*
X143645967Y-44870031D01*
X143483106Y-44761211D01*
X143290999Y-44722998D01*
X143290994Y-44722999D01*
X133875006Y-44722999D01*
X133875001Y-44722998D01*
X133682894Y-44761211D01*
X133520033Y-44870031D01*
X133520031Y-44870034D01*
X133224450Y-45165615D01*
X132375551Y-45165615D01*
X132079967Y-44870031D01*
X131917106Y-44761211D01*
X131724999Y-44722998D01*
X131724994Y-44722999D01*
X128675006Y-44722999D01*
X128675001Y-44722998D01*
X128482894Y-44761211D01*
X128320033Y-44870031D01*
X128320031Y-44870034D01*
X128024450Y-45165615D01*
X127581228Y-45165615D01*
X127676882Y-44935254D01*
X127677117Y-44665927D01*
X127574267Y-44417011D01*
X127383990Y-44226402D01*
X127135254Y-44123118D01*
X126865927Y-44122883D01*
X126617011Y-44225733D01*
X126544618Y-44298000D01*
X123950005Y-44298000D01*
X123950000Y-44297999D01*
X123757893Y-44336212D01*
X123595032Y-44445032D01*
X122874449Y-45165615D01*
X121700000Y-45165615D01*
X121552902Y-45194875D01*
X121428199Y-45278199D01*
X121344875Y-45402902D01*
X121315615Y-45550000D01*
X121315615Y-45898000D01*
X121255463Y-45898000D01*
X121183990Y-45826402D01*
X120935254Y-45723118D01*
X120665927Y-45722883D01*
X120417011Y-45825733D01*
X120226402Y-46016010D01*
X120123118Y-46264746D01*
X120122883Y-46534073D01*
X120225733Y-46782989D01*
X120416010Y-46973598D01*
X120664746Y-47076882D01*
X120934073Y-47077117D01*
X121182989Y-46974267D01*
X121255382Y-46902000D01*
X121325959Y-46902000D01*
X121344875Y-46997098D01*
X121428199Y-47121801D01*
X121552902Y-47205125D01*
X121700000Y-47234385D01*
X123200000Y-47234385D01*
X123347098Y-47205125D01*
X123471801Y-47121801D01*
X123555125Y-46997098D01*
X123584385Y-46850000D01*
X123584385Y-45875551D01*
X124041856Y-45418080D01*
X124015615Y-45550000D01*
X124015615Y-46850000D01*
X124044875Y-46997098D01*
X124128199Y-47121801D01*
X124252902Y-47205125D01*
X124319327Y-47218338D01*
X123738049Y-47799615D01*
X122336400Y-47799615D01*
X122189302Y-47828875D01*
X122064599Y-47912199D01*
X121981275Y-48036902D01*
X121952015Y-48184000D01*
X121952015Y-48698000D01*
X121807936Y-48698000D01*
X119477029Y-46367093D01*
X119477117Y-46265927D01*
X119374267Y-46017011D01*
X119183990Y-45826402D01*
X118935254Y-45723118D01*
X118665927Y-45722883D01*
X118417011Y-45825733D01*
X118226402Y-46016010D01*
X118123118Y-46264746D01*
X118122883Y-46534073D01*
X118225733Y-46782989D01*
X118416010Y-46973598D01*
X118664746Y-47076882D01*
X118767035Y-47076971D01*
X121245032Y-49554968D01*
X121407893Y-49663788D01*
X121600000Y-49702001D01*
X121600005Y-49702000D01*
X121952015Y-49702000D01*
X121952015Y-50118770D01*
X121544900Y-50118770D01*
X118658402Y-47232271D01*
X118495541Y-47123451D01*
X118303434Y-47085238D01*
X118303429Y-47085239D01*
X102219252Y-47085239D01*
X102219247Y-47085238D01*
X102035435Y-47121801D01*
X102027140Y-47123451D01*
X101864279Y-47232271D01*
X101864277Y-47232274D01*
X101095650Y-48000900D01*
X100986830Y-48163761D01*
X100948617Y-48355868D01*
X94427000Y-48355868D01*
X94427000Y-46771720D01*
X95522675Y-46771720D01*
X95807829Y-47461846D01*
X96335376Y-47990316D01*
X97025004Y-48276674D01*
X97771720Y-48277325D01*
X98461846Y-47992171D01*
X98990316Y-47464624D01*
X99276674Y-46774996D01*
X99277325Y-46028280D01*
X98992171Y-45338154D01*
X98464624Y-44809684D01*
X97774996Y-44523326D01*
X97028280Y-44522675D01*
X96338154Y-44807829D01*
X95809684Y-45335376D01*
X95523326Y-46025004D01*
X95522675Y-46771720D01*
X94427000Y-46771720D01*
X94427000Y-43427000D01*
X174573000Y-43427000D01*
X174573000Y-67573000D01*
X174573000Y-67573000D01*
G37*
X174573000Y-67573000D02*
X94427000Y-67573000D01*
X94427000Y-64971720D01*
X95522675Y-64971720D01*
X95807829Y-65661846D01*
X96335376Y-66190316D01*
X97025004Y-66476674D01*
X97771720Y-66477325D01*
X98461846Y-66192171D01*
X98990316Y-65664624D01*
X99276674Y-64974996D01*
X99277325Y-64228280D01*
X98992171Y-63538154D01*
X98464624Y-63009684D01*
X97774996Y-62723326D01*
X97028280Y-62722675D01*
X96338154Y-63007829D01*
X95809684Y-63535376D01*
X95523326Y-64225004D01*
X95522675Y-64971720D01*
X94427000Y-64971720D01*
X94427000Y-61534073D01*
X106522883Y-61534073D01*
X106625733Y-61782989D01*
X106816010Y-61973598D01*
X107064746Y-62076882D01*
X107334073Y-62077117D01*
X107582989Y-61974267D01*
X107607298Y-61950000D01*
X116015615Y-61950000D01*
X116015615Y-63250000D01*
X116044875Y-63397098D01*
X116128199Y-63521801D01*
X116252902Y-63605125D01*
X116400000Y-63634385D01*
X117900000Y-63634385D01*
X118047098Y-63605125D01*
X118171801Y-63521801D01*
X118255125Y-63397098D01*
X118284385Y-63250000D01*
X118284385Y-63102000D01*
X118344537Y-63102000D01*
X118416010Y-63173598D01*
X118664746Y-63276882D01*
X118934073Y-63277117D01*
X119182989Y-63174267D01*
X119373598Y-62983990D01*
X119476882Y-62735254D01*
X119477117Y-62465927D01*
X119374267Y-62217011D01*
X119183990Y-62026402D01*
X118935254Y-61923118D01*
X118665927Y-61922883D01*
X118417011Y-62025733D01*
X118344618Y-62098000D01*
X118284385Y-62098000D01*
X118284385Y-61950000D01*
X118255125Y-61802902D01*
X118171801Y-61678199D01*
X118047098Y-61594875D01*
X117900000Y-61565615D01*
X116400000Y-61565615D01*
X116252902Y-61594875D01*
X116128199Y-61678199D01*
X116044875Y-61802902D01*
X116015615Y-61950000D01*
X107607298Y-61950000D01*
X107773598Y-61783990D01*
X107876882Y-61535254D01*
X107877117Y-61265927D01*
X107774267Y-61017011D01*
X107701999Y-60944617D01*
X107701999Y-59420000D01*
X108379710Y-59420000D01*
X108474145Y-59894757D01*
X108743073Y-60297237D01*
X109145553Y-60566165D01*
X109620310Y-60660600D01*
X109979690Y-60660600D01*
X110454447Y-60566165D01*
X110856927Y-60297237D01*
X111125855Y-59894757D01*
X111220290Y-59420000D01*
X111125855Y-58945243D01*
X110856927Y-58542763D01*
X110454447Y-58273835D01*
X109979690Y-58179400D01*
X109620310Y-58179400D01*
X109145553Y-58273835D01*
X108743073Y-58542763D01*
X108474145Y-58945243D01*
X108379710Y-59420000D01*
X107701999Y-59420000D01*
X107701999Y-56880000D01*
X108379710Y-56880000D01*
X108474145Y-57354757D01*
X108743073Y-57757237D01*
X109145553Y-58026165D01*
X109620310Y-58120600D01*
X109979690Y-58120600D01*
X110454447Y-58026165D01*
X110856927Y-57757237D01*
X111125855Y-57354757D01*
X111220290Y-56880000D01*
X111125855Y-56405243D01*
X110856927Y-56002763D01*
X110454447Y-55733835D01*
X109979690Y-55639400D01*
X109620310Y-55639400D01*
X109145553Y-55733835D01*
X108743073Y-56002763D01*
X108474145Y-56405243D01*
X108379710Y-56880000D01*
X107701999Y-56880000D01*
X107701999Y-56411033D01*
X108834623Y-55278409D01*
X109145553Y-55486165D01*
X109620310Y-55580600D01*
X109979690Y-55580600D01*
X110454447Y-55486165D01*
X110856927Y-55217237D01*
X111125855Y-54814757D01*
X111220290Y-54340000D01*
X111125855Y-53865243D01*
X110856927Y-53462763D01*
X110454447Y-53193835D01*
X109979690Y-53099400D01*
X109620310Y-53099400D01*
X109145553Y-53193835D01*
X108743073Y-53462763D01*
X108474145Y-53865243D01*
X108386302Y-54306858D01*
X106845031Y-55848129D01*
X106736211Y-56010990D01*
X106697998Y-56203097D01*
X106697999Y-56203102D01*
X106697999Y-60944538D01*
X106626402Y-61016010D01*
X106523118Y-61264746D01*
X106522883Y-61534073D01*
X94427000Y-61534073D01*
X94427000Y-56880000D01*
X101979710Y-56880000D01*
X102074145Y-57354757D01*
X102343073Y-57757237D01*
X102745553Y-58026165D01*
X103220310Y-58120600D01*
X103579690Y-58120600D01*
X104054447Y-58026165D01*
X104456927Y-57757237D01*
X104725855Y-57354757D01*
X104820290Y-56880000D01*
X104725855Y-56405243D01*
X104456927Y-56002763D01*
X104054447Y-55733835D01*
X103579690Y-55639400D01*
X103220310Y-55639400D01*
X102745553Y-55733835D01*
X102343073Y-56002763D01*
X102074145Y-56405243D01*
X101979710Y-56880000D01*
X94427000Y-56880000D01*
X94427000Y-48355868D01*
X100948617Y-48355868D01*
X100948618Y-48355873D01*
X100948618Y-53656613D01*
X100948617Y-53656618D01*
X100986830Y-53848725D01*
X101095650Y-54011586D01*
X101779032Y-54694968D01*
X101941892Y-54803788D01*
X102085964Y-54832445D01*
X102343073Y-55217237D01*
X102745553Y-55486165D01*
X103220310Y-55580600D01*
X103579690Y-55580600D01*
X104054447Y-55486165D01*
X104456927Y-55217237D01*
X104725855Y-54814757D01*
X104820290Y-54340000D01*
X104725855Y-53865243D01*
X104456927Y-53462763D01*
X104054447Y-53193835D01*
X103579690Y-53099400D01*
X103220310Y-53099400D01*
X102745553Y-53193835D01*
X102343073Y-53462763D01*
X102192319Y-53688383D01*
X101952618Y-53448682D01*
X101952618Y-48563804D01*
X101999615Y-48516807D01*
X101999615Y-50123600D01*
X102028875Y-50270698D01*
X102112199Y-50395401D01*
X102236902Y-50478725D01*
X102384000Y-50507985D01*
X104416000Y-50507985D01*
X104563098Y-50478725D01*
X104687801Y-50395401D01*
X104771125Y-50270698D01*
X104800385Y-50123600D01*
X104800385Y-48396400D01*
X104771125Y-48249302D01*
X104687801Y-48124599D01*
X104634881Y-48089239D01*
X108565119Y-48089239D01*
X108512199Y-48124599D01*
X108428875Y-48249302D01*
X108399615Y-48396400D01*
X108399615Y-50109390D01*
X105854610Y-50109390D01*
X105662502Y-50147602D01*
X105597270Y-50191190D01*
X105499642Y-50256422D01*
X105499640Y-50256425D01*
X104607681Y-51148383D01*
X104456927Y-50922763D01*
X104054447Y-50653835D01*
X103579690Y-50559400D01*
X103220310Y-50559400D01*
X102745553Y-50653835D01*
X102343073Y-50922763D01*
X102074145Y-51325243D01*
X101979710Y-51800000D01*
X102074145Y-52274757D01*
X102343073Y-52677237D01*
X102745553Y-52946165D01*
X103220310Y-53040600D01*
X103579690Y-53040600D01*
X104054447Y-52946165D01*
X104456927Y-52677237D01*
X104714036Y-52292446D01*
X104858107Y-52263788D01*
X105020968Y-52154968D01*
X106062545Y-51113390D01*
X108615700Y-51113390D01*
X108474145Y-51325243D01*
X108379710Y-51800000D01*
X108474145Y-52274757D01*
X108743073Y-52677237D01*
X109145553Y-52946165D01*
X109620310Y-53040600D01*
X109979690Y-53040600D01*
X110454447Y-52946165D01*
X110856927Y-52677237D01*
X111007681Y-52451617D01*
X111898000Y-53341936D01*
X111898000Y-60544537D01*
X111826402Y-60616010D01*
X111723118Y-60864746D01*
X111722883Y-61134073D01*
X111825733Y-61382989D01*
X112016010Y-61573598D01*
X112264746Y-61676882D01*
X112534073Y-61677117D01*
X112782989Y-61574267D01*
X112973598Y-61383990D01*
X113076882Y-61135254D01*
X113077117Y-60865927D01*
X112974267Y-60617011D01*
X112902000Y-60544618D01*
X112902000Y-53134005D01*
X112902001Y-53134000D01*
X112863788Y-52941893D01*
X112768979Y-52800000D01*
X113615615Y-52800000D01*
X113615615Y-54000000D01*
X113644875Y-54147098D01*
X113728199Y-54271801D01*
X113852902Y-54355125D01*
X114000000Y-54384385D01*
X117674449Y-54384385D01*
X119098000Y-55807935D01*
X119098000Y-57649995D01*
X119097999Y-57650000D01*
X119136212Y-57842107D01*
X119245032Y-58004968D01*
X120288064Y-59048000D01*
X119607935Y-59048000D01*
X118604968Y-58045032D01*
X118442107Y-57936212D01*
X118384385Y-57924730D01*
X118384385Y-57800000D01*
X118355125Y-57652902D01*
X118271801Y-57528199D01*
X118147098Y-57444875D01*
X118000000Y-57415615D01*
X114000000Y-57415615D01*
X113852902Y-57444875D01*
X113728199Y-57528199D01*
X113644875Y-57652902D01*
X113615615Y-57800000D01*
X113615615Y-59000000D01*
X113644875Y-59147098D01*
X113728199Y-59271801D01*
X113852902Y-59355125D01*
X114000000Y-59384385D01*
X118000000Y-59384385D01*
X118147098Y-59355125D01*
X118271801Y-59271801D01*
X118327903Y-59187839D01*
X119045030Y-59904965D01*
X119045032Y-59904968D01*
X119177314Y-59993356D01*
X119207893Y-60013788D01*
X119400000Y-60052001D01*
X119400005Y-60052000D01*
X120648264Y-60052000D01*
X120678199Y-60096801D01*
X120802902Y-60180125D01*
X120950000Y-60209385D01*
X122540615Y-60209385D01*
X122540615Y-61800000D01*
X122569875Y-61947098D01*
X122653199Y-62071801D01*
X122698000Y-62101736D01*
X122698000Y-62144537D01*
X122626402Y-62216010D01*
X122523118Y-62464746D01*
X122522883Y-62734073D01*
X122625733Y-62982989D01*
X122816010Y-63173598D01*
X123064746Y-63276882D01*
X123334073Y-63277117D01*
X123582989Y-63174267D01*
X123773598Y-62983990D01*
X123876882Y-62735254D01*
X123877117Y-62465927D01*
X123774267Y-62217011D01*
X123741698Y-62184385D01*
X124275000Y-62184385D01*
X124400000Y-62159521D01*
X124525000Y-62184385D01*
X125075000Y-62184385D01*
X125098000Y-62179810D01*
X125098000Y-62632658D01*
X125097999Y-62632663D01*
X125136212Y-62824770D01*
X125245032Y-62987631D01*
X128237191Y-65979789D01*
X128237193Y-65979792D01*
X128400054Y-66088612D01*
X128592161Y-66126825D01*
X128592166Y-66126824D01*
X160375171Y-66126824D01*
X160375176Y-66126825D01*
X160567283Y-66088612D01*
X160730144Y-65979792D01*
X161738215Y-64971720D01*
X169722675Y-64971720D01*
X170007829Y-65661846D01*
X170535376Y-66190316D01*
X171225004Y-66476674D01*
X171971720Y-66477325D01*
X172661846Y-66192171D01*
X173190316Y-65664624D01*
X173476674Y-64974996D01*
X173477325Y-64228280D01*
X173192171Y-63538154D01*
X172664624Y-63009684D01*
X171974996Y-62723326D01*
X171228280Y-62722675D01*
X170538154Y-63007829D01*
X170009684Y-63535376D01*
X169723326Y-64225004D01*
X169722675Y-64971720D01*
X161738215Y-64971720D01*
X164154965Y-62554970D01*
X164154968Y-62554968D01*
X164263788Y-62392107D01*
X164277773Y-62321801D01*
X164302001Y-62200000D01*
X164302000Y-62199995D01*
X164302000Y-61500005D01*
X164302001Y-61500000D01*
X164263788Y-61307892D01*
X164154968Y-61145032D01*
X163854968Y-60845032D01*
X163692107Y-60736212D01*
X163500000Y-60697999D01*
X163499995Y-60698000D01*
X163476605Y-60698000D01*
X163397098Y-60644875D01*
X163250000Y-60615615D01*
X162150000Y-60615615D01*
X162002902Y-60644875D01*
X161878199Y-60728199D01*
X161794875Y-60852902D01*
X161765615Y-61000000D01*
X161765615Y-61374730D01*
X161707892Y-61386212D01*
X161680671Y-61404401D01*
X161545032Y-61495032D01*
X161545030Y-61495035D01*
X158474735Y-64565329D01*
X129625264Y-64565329D01*
X128136181Y-63076246D01*
X128382989Y-62974267D01*
X128399863Y-62957423D01*
X128416010Y-62973598D01*
X128664746Y-63076882D01*
X128934073Y-63077117D01*
X129182989Y-62974267D01*
X129373598Y-62783990D01*
X129476882Y-62535254D01*
X129477117Y-62265927D01*
X129377761Y-62025467D01*
X129430125Y-61947098D01*
X129459385Y-61800000D01*
X129459385Y-60209385D01*
X131050000Y-60209385D01*
X131197098Y-60180125D01*
X131321801Y-60096801D01*
X131405125Y-59972098D01*
X131434385Y-59825000D01*
X131434385Y-59275000D01*
X131429810Y-59252000D01*
X132004823Y-59252000D01*
X132064746Y-59276882D01*
X132334073Y-59277117D01*
X132582989Y-59174267D01*
X132773598Y-58983990D01*
X132876882Y-58735254D01*
X132877117Y-58465927D01*
X132774267Y-58217011D01*
X132583990Y-58026402D01*
X132335254Y-57923118D01*
X132065927Y-57922883D01*
X131817011Y-58025733D01*
X131626402Y-58216010D01*
X131613119Y-58248000D01*
X131429810Y-58248000D01*
X131434385Y-58225000D01*
X131434385Y-57675000D01*
X131409521Y-57550000D01*
X131434385Y-57425000D01*
X131434385Y-56875000D01*
X131405125Y-56727902D01*
X131321801Y-56603199D01*
X131197098Y-56519875D01*
X131050000Y-56490615D01*
X129450000Y-56490615D01*
X129302902Y-56519875D01*
X129178199Y-56603199D01*
X129148264Y-56648000D01*
X128469710Y-56648000D01*
X128374267Y-56417011D01*
X128183990Y-56226402D01*
X127935254Y-56123118D01*
X127665927Y-56122883D01*
X127417011Y-56225733D01*
X127226402Y-56416010D01*
X127123118Y-56664746D01*
X127122883Y-56934073D01*
X127225733Y-57182989D01*
X127416010Y-57373598D01*
X127664746Y-57476882D01*
X127767036Y-57476971D01*
X127795030Y-57504965D01*
X127795032Y-57504968D01*
X127929823Y-57595032D01*
X127957893Y-57613788D01*
X128150000Y-57652001D01*
X128150005Y-57652000D01*
X129070190Y-57652000D01*
X129065615Y-57675000D01*
X129065615Y-58225000D01*
X129070190Y-58248000D01*
X126391867Y-58248000D01*
X125738900Y-57595032D01*
X125576039Y-57486212D01*
X125383932Y-57447999D01*
X125383927Y-57448000D01*
X123455463Y-57448000D01*
X123383990Y-57376402D01*
X123135254Y-57273118D01*
X122865927Y-57272883D01*
X122718152Y-57333943D01*
X122697098Y-57319875D01*
X122550000Y-57290615D01*
X120950000Y-57290615D01*
X120902000Y-57300163D01*
X120902000Y-56999837D01*
X120950000Y-57009385D01*
X122550000Y-57009385D01*
X122697098Y-56980125D01*
X122821801Y-56896801D01*
X122905125Y-56772098D01*
X122934385Y-56625000D01*
X122934385Y-56075000D01*
X122905125Y-55927902D01*
X122821801Y-55803199D01*
X122697098Y-55719875D01*
X122550000Y-55690615D01*
X120950000Y-55690615D01*
X120802902Y-55719875D01*
X120678199Y-55803199D01*
X120640334Y-55859867D01*
X120507892Y-55886212D01*
X120345032Y-55995032D01*
X120102000Y-56238064D01*
X120102000Y-55600005D01*
X120102001Y-55600000D01*
X120063788Y-55407893D01*
X120025105Y-55350000D01*
X119954968Y-55245032D01*
X119954965Y-55245030D01*
X118384385Y-53674449D01*
X118384385Y-52800000D01*
X118355125Y-52652902D01*
X118271801Y-52528199D01*
X118147098Y-52444875D01*
X118000000Y-52415615D01*
X114000000Y-52415615D01*
X113852902Y-52444875D01*
X113728199Y-52528199D01*
X113644875Y-52652902D01*
X113615615Y-52800000D01*
X112768979Y-52800000D01*
X112754968Y-52779032D01*
X111779399Y-51803463D01*
X119438971Y-51803463D01*
X119426402Y-51816010D01*
X119323118Y-52064746D01*
X119322883Y-52334073D01*
X119425733Y-52582989D01*
X119498000Y-52655382D01*
X119498000Y-52724995D01*
X119497999Y-52725000D01*
X119536212Y-52917107D01*
X119645032Y-53079968D01*
X120565615Y-54000550D01*
X120565615Y-54225000D01*
X120590479Y-54350000D01*
X120565615Y-54475000D01*
X120565615Y-55025000D01*
X120594875Y-55172098D01*
X120678199Y-55296801D01*
X120802902Y-55380125D01*
X120950000Y-55409385D01*
X122550000Y-55409385D01*
X122697098Y-55380125D01*
X122821801Y-55296801D01*
X122851736Y-55252000D01*
X124066382Y-55252000D01*
X124066387Y-55252001D01*
X124258494Y-55213788D01*
X124421355Y-55104968D01*
X125049281Y-54477041D01*
X125150448Y-54477129D01*
X125399364Y-54374279D01*
X125556991Y-54216927D01*
X126121372Y-54781307D01*
X126121374Y-54781310D01*
X126221183Y-54848000D01*
X126284235Y-54890130D01*
X126476342Y-54928343D01*
X126476347Y-54928342D01*
X128213842Y-54928342D01*
X128213847Y-54928343D01*
X128405954Y-54890130D01*
X128568815Y-54781310D01*
X128571542Y-54778583D01*
X128677075Y-54778675D01*
X128925991Y-54675825D01*
X129065615Y-54536444D01*
X129065615Y-55025000D01*
X129090479Y-55150000D01*
X129065615Y-55275000D01*
X129065615Y-55825000D01*
X129094875Y-55972098D01*
X129178199Y-56096801D01*
X129302902Y-56180125D01*
X129450000Y-56209385D01*
X131050000Y-56209385D01*
X131197098Y-56180125D01*
X131321801Y-56096801D01*
X131405125Y-55972098D01*
X131434385Y-55825000D01*
X131434385Y-55275000D01*
X131409521Y-55150000D01*
X131434385Y-55025000D01*
X131434385Y-54475000D01*
X131409521Y-54350000D01*
X131434385Y-54225000D01*
X131434385Y-53675000D01*
X131405125Y-53527902D01*
X131321801Y-53403199D01*
X131197098Y-53319875D01*
X131050000Y-53290615D01*
X129459385Y-53290615D01*
X129459385Y-51700000D01*
X129430125Y-51552902D01*
X129368706Y-51460982D01*
X129527368Y-51354968D01*
X130354616Y-50527719D01*
X130820000Y-50620290D01*
X131294757Y-50525855D01*
X131697237Y-50256927D01*
X131966165Y-49854447D01*
X132060600Y-49379690D01*
X132060600Y-49020310D01*
X131966165Y-48545553D01*
X131697237Y-48143073D01*
X131635767Y-48102000D01*
X132544233Y-48102000D01*
X132482763Y-48143073D01*
X132213835Y-48545553D01*
X132119400Y-49020310D01*
X132119400Y-49379690D01*
X132213835Y-49854447D01*
X132482763Y-50256927D01*
X132865580Y-50512717D01*
X131695282Y-51683015D01*
X131594116Y-51682927D01*
X131345200Y-51785777D01*
X131154591Y-51976054D01*
X131051307Y-52224790D01*
X131051072Y-52494117D01*
X131153922Y-52743033D01*
X131344199Y-52933642D01*
X131592935Y-53036926D01*
X131862262Y-53037161D01*
X132111178Y-52934311D01*
X132301787Y-52744034D01*
X132405071Y-52495298D01*
X132405160Y-52393009D01*
X133328838Y-51469331D01*
X133328838Y-53435435D01*
X133358098Y-53582533D01*
X133441422Y-53707236D01*
X133566125Y-53790560D01*
X133713223Y-53819820D01*
X133828494Y-53819820D01*
X133820120Y-53839987D01*
X133819885Y-54109314D01*
X133922735Y-54358230D01*
X134113012Y-54548839D01*
X134361748Y-54652123D01*
X134631075Y-54652358D01*
X134879991Y-54549508D01*
X135070600Y-54359231D01*
X135173884Y-54110495D01*
X135174119Y-53841168D01*
X135165298Y-53819820D01*
X135313223Y-53819820D01*
X135460321Y-53790560D01*
X135585024Y-53707236D01*
X135668348Y-53582533D01*
X135697608Y-53435435D01*
X135697608Y-51300353D01*
X137608205Y-51300353D01*
X139008253Y-52700400D01*
X139008255Y-52700403D01*
X139073554Y-52744034D01*
X139171115Y-52809223D01*
X139228838Y-52820705D01*
X139228838Y-53435435D01*
X139258098Y-53582533D01*
X139341422Y-53707236D01*
X139466125Y-53790560D01*
X139613223Y-53819820D01*
X139769905Y-53819820D01*
X139768197Y-53823933D01*
X139767962Y-54093260D01*
X139870812Y-54342176D01*
X140061089Y-54532785D01*
X140309825Y-54636069D01*
X140579152Y-54636304D01*
X140828068Y-54533454D01*
X141018677Y-54343177D01*
X141121961Y-54094441D01*
X141122196Y-53825114D01*
X141120009Y-53819820D01*
X141213223Y-53819820D01*
X141360321Y-53790560D01*
X141485024Y-53707236D01*
X141568348Y-53582533D01*
X141597608Y-53435435D01*
X141597608Y-51315106D01*
X141651426Y-51261382D01*
X142197980Y-51807936D01*
X142197980Y-61338408D01*
X142197979Y-61338413D01*
X142236192Y-61530520D01*
X142345012Y-61693381D01*
X144731619Y-64079988D01*
X144894480Y-64188808D01*
X145086587Y-64227021D01*
X145086592Y-64227020D01*
X157096385Y-64227020D01*
X157096390Y-64227021D01*
X157288497Y-64188808D01*
X157451358Y-64079988D01*
X157451360Y-64079985D01*
X158679978Y-62851370D01*
X158788798Y-62688510D01*
X158827011Y-62496402D01*
X158827010Y-62496397D01*
X158827010Y-61190013D01*
X158827011Y-61190008D01*
X158788798Y-60997901D01*
X158679978Y-60835040D01*
X158039970Y-60195032D01*
X157930086Y-60121610D01*
X157934385Y-60100000D01*
X157934385Y-59700000D01*
X157905125Y-59552902D01*
X157821801Y-59428199D01*
X157697098Y-59344875D01*
X157550000Y-59315615D01*
X156450000Y-59315615D01*
X156302902Y-59344875D01*
X156223395Y-59398000D01*
X156200005Y-59398000D01*
X156200000Y-59397999D01*
X156090070Y-59419866D01*
X156346198Y-59163737D01*
X156450000Y-59184385D01*
X157550000Y-59184385D01*
X157697098Y-59155125D01*
X157821801Y-59071801D01*
X157905125Y-58947098D01*
X157934385Y-58800000D01*
X157934385Y-58400000D01*
X157909521Y-58275000D01*
X157934385Y-58150000D01*
X157934385Y-57750000D01*
X157905125Y-57602902D01*
X157821801Y-57478199D01*
X157697098Y-57394875D01*
X157550000Y-57365615D01*
X157214238Y-57365615D01*
X157000000Y-57323000D01*
X151814998Y-57323000D01*
X151575056Y-57370727D01*
X151371642Y-57506644D01*
X150773185Y-58105101D01*
X150721801Y-58028199D01*
X150597098Y-57944875D01*
X150450000Y-57915615D01*
X147950000Y-57915615D01*
X147802902Y-57944875D01*
X147678199Y-58028199D01*
X147594875Y-58152902D01*
X147565615Y-58300000D01*
X147565615Y-58971980D01*
X146334955Y-58971980D01*
X146334955Y-58935355D01*
X147443356Y-57826954D01*
X147489501Y-57757893D01*
X147579272Y-57623541D01*
X147609897Y-57469580D01*
X147678199Y-57571801D01*
X147802902Y-57655125D01*
X147950000Y-57684385D01*
X150450000Y-57684385D01*
X150597098Y-57655125D01*
X150721801Y-57571801D01*
X150805125Y-57447098D01*
X150834385Y-57300000D01*
X150834385Y-57277000D01*
X157000000Y-57277000D01*
X157214238Y-57234385D01*
X157550000Y-57234385D01*
X157697098Y-57205125D01*
X157821801Y-57121801D01*
X157905125Y-56997098D01*
X157934385Y-56850000D01*
X157934385Y-56450000D01*
X157909521Y-56325000D01*
X157934385Y-56200000D01*
X157934385Y-55800000D01*
X157909521Y-55675000D01*
X157934385Y-55550000D01*
X157934385Y-55150000D01*
X157909521Y-55025000D01*
X157934385Y-54900000D01*
X157934385Y-54500000D01*
X157905125Y-54352902D01*
X157821801Y-54228199D01*
X157697098Y-54144875D01*
X157607820Y-54127116D01*
X157925551Y-53809385D01*
X159100000Y-53809385D01*
X159247098Y-53780125D01*
X159371801Y-53696801D01*
X159455125Y-53572098D01*
X159484385Y-53425000D01*
X159484385Y-52175000D01*
X159455125Y-52027902D01*
X159371801Y-51903199D01*
X159247098Y-51819875D01*
X159100000Y-51790615D01*
X157600000Y-51790615D01*
X157452902Y-51819875D01*
X157328199Y-51903199D01*
X157244875Y-52027902D01*
X157215615Y-52175000D01*
X157215615Y-53099449D01*
X156645032Y-53670032D01*
X156536212Y-53832893D01*
X156497999Y-54025000D01*
X156498000Y-54025005D01*
X156498000Y-54115615D01*
X156450000Y-54115615D01*
X156302902Y-54144875D01*
X156178199Y-54228199D01*
X156094875Y-54352902D01*
X156065615Y-54500000D01*
X156065615Y-54682481D01*
X155923408Y-54540274D01*
X155923408Y-54053684D01*
X155923409Y-54053679D01*
X155885196Y-53861571D01*
X155776376Y-53698711D01*
X155409385Y-53331720D01*
X155409385Y-52200000D01*
X155380125Y-52052902D01*
X155296801Y-51928199D01*
X155172098Y-51844875D01*
X155025000Y-51815615D01*
X153775000Y-51815615D01*
X153627902Y-51844875D01*
X153503199Y-51928199D01*
X153419875Y-52052902D01*
X153390615Y-52200000D01*
X153390615Y-53700000D01*
X153419875Y-53847098D01*
X153503199Y-53971801D01*
X153627902Y-54055125D01*
X153775000Y-54084385D01*
X154742178Y-54084385D01*
X154919408Y-54261615D01*
X154919408Y-54315615D01*
X153775000Y-54315615D01*
X153627902Y-54344875D01*
X153503199Y-54428199D01*
X153419875Y-54552902D01*
X153390615Y-54700000D01*
X153390615Y-56023000D01*
X150834385Y-56023000D01*
X150834385Y-54800000D01*
X150805125Y-54652902D01*
X150721801Y-54528199D01*
X150597098Y-54444875D01*
X150450000Y-54415615D01*
X147950000Y-54415615D01*
X147802902Y-54444875D01*
X147678199Y-54528199D01*
X147627000Y-54604824D01*
X147627000Y-53859712D01*
X148983356Y-52503356D01*
X149119273Y-52299942D01*
X149167000Y-52060000D01*
X149167000Y-50451497D01*
X149525000Y-50212290D01*
X149826964Y-49760368D01*
X149933000Y-49227290D01*
X149933000Y-49172710D01*
X149826964Y-48639632D01*
X149525000Y-48187710D01*
X149073078Y-47885746D01*
X148540000Y-47779710D01*
X148006922Y-47885746D01*
X147555000Y-48187710D01*
X147400385Y-48419108D01*
X147400385Y-48184000D01*
X147371125Y-48036902D01*
X147287801Y-47912199D01*
X147163098Y-47828875D01*
X147016000Y-47799615D01*
X146475270Y-47799615D01*
X146463788Y-47741893D01*
X146354968Y-47579032D01*
X146175936Y-47400000D01*
X155423000Y-47400000D01*
X155423000Y-51200000D01*
X155451697Y-51344272D01*
X155533421Y-51466579D01*
X155655728Y-51548303D01*
X155800000Y-51577000D01*
X159623000Y-51577000D01*
X159623000Y-53400000D01*
X159651697Y-53544272D01*
X159733421Y-53666579D01*
X161782410Y-55715568D01*
X161765615Y-55800000D01*
X161765615Y-56200000D01*
X161790479Y-56325000D01*
X161765615Y-56450000D01*
X161765615Y-56850000D01*
X161790479Y-56975000D01*
X161765615Y-57100000D01*
X161765615Y-57500000D01*
X161790479Y-57625000D01*
X161765615Y-57750000D01*
X161765615Y-58150000D01*
X161790479Y-58275000D01*
X161765615Y-58400000D01*
X161765615Y-58800000D01*
X161790479Y-58925000D01*
X161765615Y-59050000D01*
X161765615Y-59450000D01*
X161794875Y-59597098D01*
X161878199Y-59721801D01*
X162002902Y-59805125D01*
X162150000Y-59834385D01*
X163250000Y-59834385D01*
X163397098Y-59805125D01*
X163439190Y-59777000D01*
X163589334Y-59777000D01*
X165078925Y-62197585D01*
X165133421Y-62266579D01*
X165255728Y-62348303D01*
X165400000Y-62377000D01*
X167600000Y-62377000D01*
X167744272Y-62348303D01*
X167866579Y-62266579D01*
X167948303Y-62144272D01*
X167977000Y-62000000D01*
X167977000Y-60000000D01*
X167948303Y-59855728D01*
X167866579Y-59733421D01*
X167816562Y-59700000D01*
X167866579Y-59666579D01*
X167948303Y-59544272D01*
X167977000Y-59400000D01*
X167977000Y-57200000D01*
X167948303Y-57055728D01*
X167866579Y-56933421D01*
X167764084Y-56864935D01*
X167777000Y-56800000D01*
X167777000Y-56077634D01*
X167820290Y-55860000D01*
X167777000Y-55642366D01*
X167777000Y-54800000D01*
X167748303Y-54655728D01*
X167666579Y-54533421D01*
X167544272Y-54451697D01*
X167400000Y-54423000D01*
X165200000Y-54423000D01*
X165055728Y-54451697D01*
X164933421Y-54533421D01*
X164851697Y-54655728D01*
X164823000Y-54800000D01*
X164823000Y-55243842D01*
X164643842Y-55423000D01*
X163977000Y-55423000D01*
X163977000Y-52739461D01*
X165086240Y-51445348D01*
X165148303Y-51344272D01*
X165177000Y-51200000D01*
X165177000Y-50444102D01*
X165231125Y-50363098D01*
X165260385Y-50216000D01*
X165260385Y-48184000D01*
X165231125Y-48036902D01*
X165177000Y-47955898D01*
X165177000Y-47400000D01*
X165148303Y-47255728D01*
X165066579Y-47133421D01*
X164944272Y-47051697D01*
X164800000Y-47023000D01*
X155800000Y-47023000D01*
X155655728Y-47051697D01*
X155533421Y-47133421D01*
X155451697Y-47255728D01*
X155423000Y-47400000D01*
X146175936Y-47400000D01*
X145547656Y-46771720D01*
X169722675Y-46771720D01*
X170007829Y-47461846D01*
X170535376Y-47990316D01*
X171225004Y-48276674D01*
X171971720Y-48277325D01*
X172661846Y-47992171D01*
X173190316Y-47464624D01*
X173476674Y-46774996D01*
X173477325Y-46028280D01*
X173192171Y-45338154D01*
X172664624Y-44809684D01*
X171974996Y-44523326D01*
X171228280Y-44522675D01*
X170538154Y-44807829D01*
X170009684Y-45335376D01*
X169723326Y-46025004D01*
X169722675Y-46771720D01*
X145547656Y-46771720D01*
X143645967Y-44870031D01*
X143483106Y-44761211D01*
X143290999Y-44722998D01*
X143290994Y-44722999D01*
X133875006Y-44722999D01*
X133875001Y-44722998D01*
X133682894Y-44761211D01*
X133520033Y-44870031D01*
X133520031Y-44870034D01*
X133224450Y-45165615D01*
X132375551Y-45165615D01*
X132079967Y-44870031D01*
X131917106Y-44761211D01*
X131724999Y-44722998D01*
X131724994Y-44722999D01*
X128675006Y-44722999D01*
X128675001Y-44722998D01*
X128482894Y-44761211D01*
X128320033Y-44870031D01*
X128320031Y-44870034D01*
X128024450Y-45165615D01*
X127581228Y-45165615D01*
X127676882Y-44935254D01*
X127677117Y-44665927D01*
X127574267Y-44417011D01*
X127383990Y-44226402D01*
X127135254Y-44123118D01*
X126865927Y-44122883D01*
X126617011Y-44225733D01*
X126544618Y-44298000D01*
X123950005Y-44298000D01*
X123950000Y-44297999D01*
X123757893Y-44336212D01*
X123595032Y-44445032D01*
X122874449Y-45165615D01*
X121700000Y-45165615D01*
X121552902Y-45194875D01*
X121428199Y-45278199D01*
X121344875Y-45402902D01*
X121315615Y-45550000D01*
X121315615Y-45898000D01*
X121255463Y-45898000D01*
X121183990Y-45826402D01*
X120935254Y-45723118D01*
X120665927Y-45722883D01*
X120417011Y-45825733D01*
X120226402Y-46016010D01*
X120123118Y-46264746D01*
X120122883Y-46534073D01*
X120225733Y-46782989D01*
X120416010Y-46973598D01*
X120664746Y-47076882D01*
X120934073Y-47077117D01*
X121182989Y-46974267D01*
X121255382Y-46902000D01*
X121325959Y-46902000D01*
X121344875Y-46997098D01*
X121428199Y-47121801D01*
X121552902Y-47205125D01*
X121700000Y-47234385D01*
X123200000Y-47234385D01*
X123347098Y-47205125D01*
X123471801Y-47121801D01*
X123555125Y-46997098D01*
X123584385Y-46850000D01*
X123584385Y-45875551D01*
X124041856Y-45418080D01*
X124015615Y-45550000D01*
X124015615Y-46850000D01*
X124044875Y-46997098D01*
X124128199Y-47121801D01*
X124252902Y-47205125D01*
X124319327Y-47218338D01*
X123738049Y-47799615D01*
X122336400Y-47799615D01*
X122189302Y-47828875D01*
X122064599Y-47912199D01*
X121981275Y-48036902D01*
X121952015Y-48184000D01*
X121952015Y-48698000D01*
X121807936Y-48698000D01*
X119477029Y-46367093D01*
X119477117Y-46265927D01*
X119374267Y-46017011D01*
X119183990Y-45826402D01*
X118935254Y-45723118D01*
X118665927Y-45722883D01*
X118417011Y-45825733D01*
X118226402Y-46016010D01*
X118123118Y-46264746D01*
X118122883Y-46534073D01*
X118225733Y-46782989D01*
X118416010Y-46973598D01*
X118664746Y-47076882D01*
X118767035Y-47076971D01*
X121245032Y-49554968D01*
X121407893Y-49663788D01*
X121600000Y-49702001D01*
X121600005Y-49702000D01*
X121952015Y-49702000D01*
X121952015Y-50118770D01*
X121544900Y-50118770D01*
X118658402Y-47232271D01*
X118495541Y-47123451D01*
X118303434Y-47085238D01*
X118303429Y-47085239D01*
X102219252Y-47085239D01*
X102219247Y-47085238D01*
X102035435Y-47121801D01*
X102027140Y-47123451D01*
X101864279Y-47232271D01*
X101864277Y-47232274D01*
X101095650Y-48000900D01*
X100986830Y-48163761D01*
X100948617Y-48355868D01*
X94427000Y-48355868D01*
X94427000Y-46771720D01*
X95522675Y-46771720D01*
X95807829Y-47461846D01*
X96335376Y-47990316D01*
X97025004Y-48276674D01*
X97771720Y-48277325D01*
X98461846Y-47992171D01*
X98990316Y-47464624D01*
X99276674Y-46774996D01*
X99277325Y-46028280D01*
X98992171Y-45338154D01*
X98464624Y-44809684D01*
X97774996Y-44523326D01*
X97028280Y-44522675D01*
X96338154Y-44807829D01*
X95809684Y-45335376D01*
X95523326Y-46025004D01*
X95522675Y-46771720D01*
X94427000Y-46771720D01*
X94427000Y-43427000D01*
X174573000Y-43427000D01*
X174573000Y-67573000D01*
G36*
X155499450Y-58590615D02*
X154100000Y-58590615D01*
X153952902Y-58619875D01*
X153828199Y-58703199D01*
X153744875Y-58827902D01*
X153715615Y-58975000D01*
X153715615Y-60225000D01*
X153744875Y-60372098D01*
X153828199Y-60496801D01*
X153952902Y-60580125D01*
X154100000Y-60609385D01*
X155330680Y-60609385D01*
X155149450Y-60790615D01*
X154100000Y-60790615D01*
X153952902Y-60819875D01*
X153828199Y-60903199D01*
X153744875Y-61027902D01*
X153715615Y-61175000D01*
X153715615Y-62323000D01*
X145798513Y-62323000D01*
X144958749Y-61483235D01*
X145950570Y-61483235D01*
X146097668Y-61453975D01*
X146222371Y-61370651D01*
X146305695Y-61245948D01*
X146334955Y-61098850D01*
X146334955Y-60225980D01*
X147565615Y-60225980D01*
X147565615Y-60800000D01*
X147594875Y-60947098D01*
X147678199Y-61071801D01*
X147802902Y-61155125D01*
X147950000Y-61184385D01*
X150450000Y-61184385D01*
X150597098Y-61155125D01*
X150721801Y-61071801D01*
X150805125Y-60947098D01*
X150834385Y-60800000D01*
X150834385Y-59817325D01*
X152074710Y-58577000D01*
X155513065Y-58577000D01*
X155499450Y-58590615D01*
X155499450Y-58590615D01*
G37*
X155499450Y-58590615D02*
X154100000Y-58590615D01*
X153952902Y-58619875D01*
X153828199Y-58703199D01*
X153744875Y-58827902D01*
X153715615Y-58975000D01*
X153715615Y-60225000D01*
X153744875Y-60372098D01*
X153828199Y-60496801D01*
X153952902Y-60580125D01*
X154100000Y-60609385D01*
X155330680Y-60609385D01*
X155149450Y-60790615D01*
X154100000Y-60790615D01*
X153952902Y-60819875D01*
X153828199Y-60903199D01*
X153744875Y-61027902D01*
X153715615Y-61175000D01*
X153715615Y-62323000D01*
X145798513Y-62323000D01*
X144958749Y-61483235D01*
X145950570Y-61483235D01*
X146097668Y-61453975D01*
X146222371Y-61370651D01*
X146305695Y-61245948D01*
X146334955Y-61098850D01*
X146334955Y-60225980D01*
X147565615Y-60225980D01*
X147565615Y-60800000D01*
X147594875Y-60947098D01*
X147678199Y-61071801D01*
X147802902Y-61155125D01*
X147950000Y-61184385D01*
X150450000Y-61184385D01*
X150597098Y-61155125D01*
X150721801Y-61071801D01*
X150805125Y-60947098D01*
X150834385Y-60800000D01*
X150834385Y-59817325D01*
X152074710Y-58577000D01*
X155513065Y-58577000D01*
X155499450Y-58590615D01*
G36*
X145155679Y-47799615D02*
X144984000Y-47799615D01*
X144836902Y-47828875D01*
X144712199Y-47912199D01*
X144628875Y-48036902D01*
X144599615Y-48184000D01*
X144599615Y-50216000D01*
X144628875Y-50363098D01*
X144712199Y-50487801D01*
X144836902Y-50571125D01*
X144984000Y-50600385D01*
X147016000Y-50600385D01*
X147163098Y-50571125D01*
X147287801Y-50487801D01*
X147371125Y-50363098D01*
X147400385Y-50216000D01*
X147400385Y-49980892D01*
X147555000Y-50212290D01*
X147913000Y-50451497D01*
X147913000Y-51800288D01*
X146556644Y-53156644D01*
X146420728Y-53360057D01*
X146373000Y-53600000D01*
X146373000Y-57123886D01*
X145782161Y-57714725D01*
X144449430Y-57714725D01*
X144302332Y-57743985D01*
X144177629Y-57827309D01*
X144169979Y-57838758D01*
X144169979Y-49058704D01*
X144131767Y-48866597D01*
X144131767Y-48866596D01*
X144088179Y-48801364D01*
X144035336Y-48722278D01*
X144035430Y-48614965D01*
X143932580Y-48366049D01*
X143742303Y-48175440D01*
X143493567Y-48072156D01*
X143224240Y-48071921D01*
X142975324Y-48174771D01*
X142784715Y-48365048D01*
X142756436Y-48433152D01*
X140168316Y-45845032D01*
X140005455Y-45736212D01*
X139959139Y-45726999D01*
X143083063Y-45726999D01*
X145155679Y-47799615D01*
X145155679Y-47799615D01*
G37*
X145155679Y-47799615D02*
X144984000Y-47799615D01*
X144836902Y-47828875D01*
X144712199Y-47912199D01*
X144628875Y-48036902D01*
X144599615Y-48184000D01*
X144599615Y-50216000D01*
X144628875Y-50363098D01*
X144712199Y-50487801D01*
X144836902Y-50571125D01*
X144984000Y-50600385D01*
X147016000Y-50600385D01*
X147163098Y-50571125D01*
X147287801Y-50487801D01*
X147371125Y-50363098D01*
X147400385Y-50216000D01*
X147400385Y-49980892D01*
X147555000Y-50212290D01*
X147913000Y-50451497D01*
X147913000Y-51800288D01*
X146556644Y-53156644D01*
X146420728Y-53360057D01*
X146373000Y-53600000D01*
X146373000Y-57123886D01*
X145782161Y-57714725D01*
X144449430Y-57714725D01*
X144302332Y-57743985D01*
X144177629Y-57827309D01*
X144169979Y-57838758D01*
X144169979Y-49058704D01*
X144131767Y-48866597D01*
X144131767Y-48866596D01*
X144088179Y-48801364D01*
X144035336Y-48722278D01*
X144035430Y-48614965D01*
X143932580Y-48366049D01*
X143742303Y-48175440D01*
X143493567Y-48072156D01*
X143224240Y-48071921D01*
X142975324Y-48174771D01*
X142784715Y-48365048D01*
X142756436Y-48433152D01*
X140168316Y-45845032D01*
X140005455Y-45736212D01*
X139959139Y-45726999D01*
X143083063Y-45726999D01*
X145155679Y-47799615D01*
G36*
X129165615Y-46850000D02*
X129194875Y-46997098D01*
X129278199Y-47121801D01*
X129402902Y-47205125D01*
X129410941Y-47206724D01*
X128745384Y-47872281D01*
X128280000Y-47779710D01*
X127805243Y-47874145D01*
X127402763Y-48143073D01*
X127133835Y-48545553D01*
X127039400Y-49020310D01*
X127039400Y-49379690D01*
X127122915Y-49799549D01*
X126944675Y-49977789D01*
X126821892Y-50002212D01*
X126659032Y-50111032D01*
X126045032Y-50725032D01*
X125936212Y-50887893D01*
X125897999Y-51080000D01*
X125898000Y-51080005D01*
X125898000Y-51320190D01*
X125875000Y-51315615D01*
X125325000Y-51315615D01*
X125200000Y-51340479D01*
X125190795Y-51338648D01*
X125154968Y-51285030D01*
X124344348Y-50474410D01*
X124418725Y-50363098D01*
X124447985Y-50216000D01*
X124447985Y-48509551D01*
X125504965Y-47452570D01*
X125504968Y-47452568D01*
X125613788Y-47289707D01*
X125624792Y-47234385D01*
X125900000Y-47234385D01*
X126047098Y-47205125D01*
X126171801Y-47121801D01*
X126255125Y-46997098D01*
X126284385Y-46850000D01*
X126284385Y-46702000D01*
X126465615Y-46702000D01*
X126465615Y-46850000D01*
X126494875Y-46997098D01*
X126578199Y-47121801D01*
X126702902Y-47205125D01*
X126850000Y-47234385D01*
X128350000Y-47234385D01*
X128497098Y-47205125D01*
X128621801Y-47121801D01*
X128705125Y-46997098D01*
X128734385Y-46850000D01*
X128734385Y-45875550D01*
X128882936Y-45726999D01*
X129165615Y-45726999D01*
X129165615Y-46850000D01*
X129165615Y-46850000D01*
G37*
X129165615Y-46850000D02*
X129194875Y-46997098D01*
X129278199Y-47121801D01*
X129402902Y-47205125D01*
X129410941Y-47206724D01*
X128745384Y-47872281D01*
X128280000Y-47779710D01*
X127805243Y-47874145D01*
X127402763Y-48143073D01*
X127133835Y-48545553D01*
X127039400Y-49020310D01*
X127039400Y-49379690D01*
X127122915Y-49799549D01*
X126944675Y-49977789D01*
X126821892Y-50002212D01*
X126659032Y-50111032D01*
X126045032Y-50725032D01*
X125936212Y-50887893D01*
X125897999Y-51080000D01*
X125898000Y-51080005D01*
X125898000Y-51320190D01*
X125875000Y-51315615D01*
X125325000Y-51315615D01*
X125200000Y-51340479D01*
X125190795Y-51338648D01*
X125154968Y-51285030D01*
X124344348Y-50474410D01*
X124418725Y-50363098D01*
X124447985Y-50216000D01*
X124447985Y-48509551D01*
X125504965Y-47452570D01*
X125504968Y-47452568D01*
X125613788Y-47289707D01*
X125624792Y-47234385D01*
X125900000Y-47234385D01*
X126047098Y-47205125D01*
X126171801Y-47121801D01*
X126255125Y-46997098D01*
X126284385Y-46850000D01*
X126284385Y-46702000D01*
X126465615Y-46702000D01*
X126465615Y-46850000D01*
X126494875Y-46997098D01*
X126578199Y-47121801D01*
X126702902Y-47205125D01*
X126850000Y-47234385D01*
X128350000Y-47234385D01*
X128497098Y-47205125D01*
X128621801Y-47121801D01*
X128705125Y-46997098D01*
X128734385Y-46850000D01*
X128734385Y-45875550D01*
X128882936Y-45726999D01*
X129165615Y-45726999D01*
X129165615Y-46850000D01*
G36*
X118529372Y-48523113D02*
X118265927Y-48522883D01*
X118084385Y-48597895D01*
X118084385Y-48550000D01*
X118055125Y-48402902D01*
X117971801Y-48278199D01*
X117847098Y-48194875D01*
X117700000Y-48165615D01*
X116200000Y-48165615D01*
X116052902Y-48194875D01*
X115928199Y-48278199D01*
X115844875Y-48402902D01*
X115815615Y-48550000D01*
X115815615Y-49850000D01*
X115844875Y-49997098D01*
X115928199Y-50121801D01*
X116052902Y-50205125D01*
X116200000Y-50234385D01*
X117700000Y-50234385D01*
X117847098Y-50205125D01*
X117971801Y-50121801D01*
X118055125Y-49997098D01*
X118084385Y-49850000D01*
X118084385Y-49801990D01*
X118264746Y-49876882D01*
X118534073Y-49877117D01*
X118782989Y-49774267D01*
X118973598Y-49583990D01*
X119076882Y-49335254D01*
X119077113Y-49070853D01*
X120805723Y-50799463D01*
X111342746Y-50799463D01*
X110998412Y-50455129D01*
X111087801Y-50395401D01*
X111171125Y-50270698D01*
X111200385Y-50123600D01*
X111200385Y-48396400D01*
X111171125Y-48249302D01*
X111087801Y-48124599D01*
X111034881Y-48089239D01*
X118095498Y-48089239D01*
X118529372Y-48523113D01*
X118529372Y-48523113D01*
G37*
X118529372Y-48523113D02*
X118265927Y-48522883D01*
X118084385Y-48597895D01*
X118084385Y-48550000D01*
X118055125Y-48402902D01*
X117971801Y-48278199D01*
X117847098Y-48194875D01*
X117700000Y-48165615D01*
X116200000Y-48165615D01*
X116052902Y-48194875D01*
X115928199Y-48278199D01*
X115844875Y-48402902D01*
X115815615Y-48550000D01*
X115815615Y-49850000D01*
X115844875Y-49997098D01*
X115928199Y-50121801D01*
X116052902Y-50205125D01*
X116200000Y-50234385D01*
X117700000Y-50234385D01*
X117847098Y-50205125D01*
X117971801Y-50121801D01*
X118055125Y-49997098D01*
X118084385Y-49850000D01*
X118084385Y-49801990D01*
X118264746Y-49876882D01*
X118534073Y-49877117D01*
X118782989Y-49774267D01*
X118973598Y-49583990D01*
X119076882Y-49335254D01*
X119077113Y-49070853D01*
X120805723Y-50799463D01*
X111342746Y-50799463D01*
X110998412Y-50455129D01*
X111087801Y-50395401D01*
X111171125Y-50270698D01*
X111200385Y-50123600D01*
X111200385Y-48396400D01*
X111171125Y-48249302D01*
X111087801Y-48124599D01*
X111034881Y-48089239D01*
X118095498Y-48089239D01*
X118529372Y-48523113D01*
M02*
