G04 #@! TF.FileFunction,Legend,Top*
%FSLAX46Y46*%
G04 Gerber Fmt 4.6, Leading zero omitted, Abs format (unit mm)*
G04 Created by KiCad (PCBNEW 0.201602221446+6578~42~ubuntu15.04.1-product) date Mon 22 Feb 2016 07:23:46 PM EST*
%MOMM*%
G01*
G04 APERTURE LIST*
%ADD10C,0.100000*%
%ADD11C,0.200000*%
%ADD12C,0.300000*%
%ADD13C,0.120000*%
%ADD14C,0.150000*%
G04 APERTURE END LIST*
D10*
D11*
X130000000Y-63600000D02*
X120800000Y-63600000D01*
X130000000Y-66400000D02*
X130000000Y-63600000D01*
X120800000Y-66400000D02*
X130000000Y-66400000D01*
X120800000Y-63600000D02*
X120800000Y-66400000D01*
D12*
X122292858Y-65678571D02*
X121792858Y-64964286D01*
X121435715Y-65678571D02*
X121435715Y-64178571D01*
X122007143Y-64178571D01*
X122150001Y-64250000D01*
X122221429Y-64321429D01*
X122292858Y-64464286D01*
X122292858Y-64678571D01*
X122221429Y-64821429D01*
X122150001Y-64892857D01*
X122007143Y-64964286D01*
X121435715Y-64964286D01*
X123507143Y-65607143D02*
X123364286Y-65678571D01*
X123078572Y-65678571D01*
X122935715Y-65607143D01*
X122864286Y-65464286D01*
X122864286Y-64892857D01*
X122935715Y-64750000D01*
X123078572Y-64678571D01*
X123364286Y-64678571D01*
X123507143Y-64750000D01*
X123578572Y-64892857D01*
X123578572Y-65035714D01*
X122864286Y-65178571D01*
X124078572Y-64678571D02*
X124435715Y-65678571D01*
X124792857Y-64678571D01*
X125364286Y-65535714D02*
X125435714Y-65607143D01*
X125364286Y-65678571D01*
X125292857Y-65607143D01*
X125364286Y-65535714D01*
X125364286Y-65678571D01*
X127507143Y-64178571D02*
X127650000Y-64178571D01*
X127792857Y-64250000D01*
X127864286Y-64321429D01*
X127935715Y-64464286D01*
X128007143Y-64750000D01*
X128007143Y-65107143D01*
X127935715Y-65392857D01*
X127864286Y-65535714D01*
X127792857Y-65607143D01*
X127650000Y-65678571D01*
X127507143Y-65678571D01*
X127364286Y-65607143D01*
X127292857Y-65535714D01*
X127221429Y-65392857D01*
X127150000Y-65107143D01*
X127150000Y-64750000D01*
X127221429Y-64464286D01*
X127292857Y-64321429D01*
X127364286Y-64250000D01*
X127507143Y-64178571D01*
X129435714Y-65678571D02*
X128578571Y-65678571D01*
X129007143Y-65678571D02*
X129007143Y-64178571D01*
X128864286Y-64392857D01*
X128721428Y-64535714D01*
X128578571Y-64607143D01*
D13*
X148323809Y-51961905D02*
X148057142Y-51580952D01*
X147866666Y-51961905D02*
X147866666Y-51161905D01*
X148171428Y-51161905D01*
X148247619Y-51200000D01*
X148285714Y-51238095D01*
X148323809Y-51314286D01*
X148323809Y-51428571D01*
X148285714Y-51504762D01*
X148247619Y-51542857D01*
X148171428Y-51580952D01*
X147866666Y-51580952D01*
X148666666Y-51542857D02*
X148933333Y-51542857D01*
X149047619Y-51961905D02*
X148666666Y-51961905D01*
X148666666Y-51161905D01*
X149047619Y-51161905D01*
X149809524Y-51200000D02*
X149733333Y-51161905D01*
X149619048Y-51161905D01*
X149504762Y-51200000D01*
X149428571Y-51276190D01*
X149390476Y-51352381D01*
X149352381Y-51504762D01*
X149352381Y-51619048D01*
X149390476Y-51771429D01*
X149428571Y-51847619D01*
X149504762Y-51923810D01*
X149619048Y-51961905D01*
X149695238Y-51961905D01*
X149809524Y-51923810D01*
X149847619Y-51885714D01*
X149847619Y-51619048D01*
X149695238Y-51619048D01*
X144514286Y-51161905D02*
X145009524Y-51161905D01*
X144742857Y-51466667D01*
X144857143Y-51466667D01*
X144933333Y-51504762D01*
X144971429Y-51542857D01*
X145009524Y-51619048D01*
X145009524Y-51809524D01*
X144971429Y-51885714D01*
X144933333Y-51923810D01*
X144857143Y-51961905D01*
X144628571Y-51961905D01*
X144552381Y-51923810D01*
X144514286Y-51885714D01*
X145238095Y-51161905D02*
X145504762Y-51961905D01*
X145771429Y-51161905D01*
X145961905Y-51161905D02*
X146457143Y-51161905D01*
X146190476Y-51466667D01*
X146304762Y-51466667D01*
X146380952Y-51504762D01*
X146419048Y-51542857D01*
X146457143Y-51619048D01*
X146457143Y-51809524D01*
X146419048Y-51885714D01*
X146380952Y-51923810D01*
X146304762Y-51961905D01*
X146076190Y-51961905D01*
X146000000Y-51923810D01*
X145961905Y-51885714D01*
X105990476Y-48961905D02*
X106257143Y-49761905D01*
X106523810Y-48961905D01*
X107247619Y-49685714D02*
X107209524Y-49723810D01*
X107095238Y-49761905D01*
X107019048Y-49761905D01*
X106904762Y-49723810D01*
X106828571Y-49647619D01*
X106790476Y-49571429D01*
X106752381Y-49419048D01*
X106752381Y-49304762D01*
X106790476Y-49152381D01*
X106828571Y-49076190D01*
X106904762Y-49000000D01*
X107019048Y-48961905D01*
X107095238Y-48961905D01*
X107209524Y-49000000D01*
X107247619Y-49038095D01*
X108047619Y-49685714D02*
X108009524Y-49723810D01*
X107895238Y-49761905D01*
X107819048Y-49761905D01*
X107704762Y-49723810D01*
X107628571Y-49647619D01*
X107590476Y-49571429D01*
X107552381Y-49419048D01*
X107552381Y-49304762D01*
X107590476Y-49152381D01*
X107628571Y-49076190D01*
X107704762Y-49000000D01*
X107819048Y-48961905D01*
X107895238Y-48961905D01*
X108009524Y-49000000D01*
X108047619Y-49038095D01*
X105695238Y-52161905D02*
X105695238Y-51361905D01*
X105961905Y-51933333D01*
X106228572Y-51361905D01*
X106228572Y-52161905D01*
X106761905Y-51361905D02*
X106914286Y-51361905D01*
X106990477Y-51400000D01*
X107066667Y-51476190D01*
X107104762Y-51628571D01*
X107104762Y-51895238D01*
X107066667Y-52047619D01*
X106990477Y-52123810D01*
X106914286Y-52161905D01*
X106761905Y-52161905D01*
X106685715Y-52123810D01*
X106609524Y-52047619D01*
X106571429Y-51895238D01*
X106571429Y-51628571D01*
X106609524Y-51476190D01*
X106685715Y-51400000D01*
X106761905Y-51361905D01*
X107409524Y-52123810D02*
X107523810Y-52161905D01*
X107714286Y-52161905D01*
X107790476Y-52123810D01*
X107828572Y-52085714D01*
X107866667Y-52009524D01*
X107866667Y-51933333D01*
X107828572Y-51857143D01*
X107790476Y-51819048D01*
X107714286Y-51780952D01*
X107561905Y-51742857D01*
X107485714Y-51704762D01*
X107447619Y-51666667D01*
X107409524Y-51590476D01*
X107409524Y-51514286D01*
X107447619Y-51438095D01*
X107485714Y-51400000D01*
X107561905Y-51361905D01*
X107752381Y-51361905D01*
X107866667Y-51400000D01*
X108209524Y-52161905D02*
X108209524Y-51361905D01*
X106371429Y-61600000D02*
X106295238Y-61561905D01*
X106180953Y-61561905D01*
X106066667Y-61600000D01*
X105990476Y-61676190D01*
X105952381Y-61752381D01*
X105914286Y-61904762D01*
X105914286Y-62019048D01*
X105952381Y-62171429D01*
X105990476Y-62247619D01*
X106066667Y-62323810D01*
X106180953Y-62361905D01*
X106257143Y-62361905D01*
X106371429Y-62323810D01*
X106409524Y-62285714D01*
X106409524Y-62019048D01*
X106257143Y-62019048D01*
X106752381Y-62361905D02*
X106752381Y-61561905D01*
X107209524Y-62361905D01*
X107209524Y-61561905D01*
X107590476Y-62361905D02*
X107590476Y-61561905D01*
X107780952Y-61561905D01*
X107895238Y-61600000D01*
X107971429Y-61676190D01*
X108009524Y-61752381D01*
X108047619Y-61904762D01*
X108047619Y-62019048D01*
X108009524Y-62171429D01*
X107971429Y-62247619D01*
X107895238Y-62323810D01*
X107780952Y-62361905D01*
X107590476Y-62361905D01*
X106676190Y-59761905D02*
X106409523Y-59380952D01*
X106219047Y-59761905D02*
X106219047Y-58961905D01*
X106523809Y-58961905D01*
X106600000Y-59000000D01*
X106638095Y-59038095D01*
X106676190Y-59114286D01*
X106676190Y-59228571D01*
X106638095Y-59304762D01*
X106600000Y-59342857D01*
X106523809Y-59380952D01*
X106219047Y-59380952D01*
X106980952Y-59723810D02*
X107095238Y-59761905D01*
X107285714Y-59761905D01*
X107361904Y-59723810D01*
X107400000Y-59685714D01*
X107438095Y-59609524D01*
X107438095Y-59533333D01*
X107400000Y-59457143D01*
X107361904Y-59419048D01*
X107285714Y-59380952D01*
X107133333Y-59342857D01*
X107057142Y-59304762D01*
X107019047Y-59266667D01*
X106980952Y-59190476D01*
X106980952Y-59114286D01*
X107019047Y-59038095D01*
X107057142Y-59000000D01*
X107133333Y-58961905D01*
X107323809Y-58961905D01*
X107438095Y-59000000D01*
X107666666Y-58961905D02*
X108123809Y-58961905D01*
X107895238Y-59761905D02*
X107895238Y-58961905D01*
X106028571Y-58824000D02*
X108200000Y-58824000D01*
X106190476Y-57323810D02*
X106304762Y-57361905D01*
X106495238Y-57361905D01*
X106571428Y-57323810D01*
X106609524Y-57285714D01*
X106647619Y-57209524D01*
X106647619Y-57133333D01*
X106609524Y-57057143D01*
X106571428Y-57019048D01*
X106495238Y-56980952D01*
X106342857Y-56942857D01*
X106266666Y-56904762D01*
X106228571Y-56866667D01*
X106190476Y-56790476D01*
X106190476Y-56714286D01*
X106228571Y-56638095D01*
X106266666Y-56600000D01*
X106342857Y-56561905D01*
X106533333Y-56561905D01*
X106647619Y-56600000D01*
X107447619Y-57285714D02*
X107409524Y-57323810D01*
X107295238Y-57361905D01*
X107219048Y-57361905D01*
X107104762Y-57323810D01*
X107028571Y-57247619D01*
X106990476Y-57171429D01*
X106952381Y-57019048D01*
X106952381Y-56904762D01*
X106990476Y-56752381D01*
X107028571Y-56676190D01*
X107104762Y-56600000D01*
X107219048Y-56561905D01*
X107295238Y-56561905D01*
X107409524Y-56600000D01*
X107447619Y-56638095D01*
X107790476Y-57361905D02*
X107790476Y-56561905D01*
X108247619Y-57361905D02*
X107904762Y-56904762D01*
X108247619Y-56561905D02*
X107790476Y-57019048D01*
X105695238Y-54761905D02*
X105695238Y-53961905D01*
X105961905Y-54533333D01*
X106228572Y-53961905D01*
X106228572Y-54761905D01*
X106609524Y-54761905D02*
X106609524Y-53961905D01*
X106952381Y-54723810D02*
X107066667Y-54761905D01*
X107257143Y-54761905D01*
X107333333Y-54723810D01*
X107371429Y-54685714D01*
X107409524Y-54609524D01*
X107409524Y-54533333D01*
X107371429Y-54457143D01*
X107333333Y-54419048D01*
X107257143Y-54380952D01*
X107104762Y-54342857D01*
X107028571Y-54304762D01*
X106990476Y-54266667D01*
X106952381Y-54190476D01*
X106952381Y-54114286D01*
X106990476Y-54038095D01*
X107028571Y-54000000D01*
X107104762Y-53961905D01*
X107295238Y-53961905D01*
X107409524Y-54000000D01*
X107904762Y-53961905D02*
X108057143Y-53961905D01*
X108133334Y-54000000D01*
X108209524Y-54076190D01*
X108247619Y-54228571D01*
X108247619Y-54495238D01*
X108209524Y-54647619D01*
X108133334Y-54723810D01*
X108057143Y-54761905D01*
X107904762Y-54761905D01*
X107828572Y-54723810D01*
X107752381Y-54647619D01*
X107714286Y-54495238D01*
X107714286Y-54228571D01*
X107752381Y-54076190D01*
X107828572Y-54000000D01*
X107904762Y-53961905D01*
D14*
X99638096Y-58900000D02*
X99542858Y-58852381D01*
X99400001Y-58852381D01*
X99257143Y-58900000D01*
X99161905Y-58995238D01*
X99114286Y-59090476D01*
X99066667Y-59280952D01*
X99066667Y-59423810D01*
X99114286Y-59614286D01*
X99161905Y-59709524D01*
X99257143Y-59804762D01*
X99400001Y-59852381D01*
X99495239Y-59852381D01*
X99638096Y-59804762D01*
X99685715Y-59757143D01*
X99685715Y-59423810D01*
X99495239Y-59423810D01*
X100114286Y-59852381D02*
X100114286Y-58852381D01*
X100685715Y-59852381D01*
X100685715Y-58852381D01*
X101161905Y-59852381D02*
X101161905Y-58852381D01*
X101400000Y-58852381D01*
X101542858Y-58900000D01*
X101638096Y-58995238D01*
X101685715Y-59090476D01*
X101733334Y-59280952D01*
X101733334Y-59423810D01*
X101685715Y-59614286D01*
X101638096Y-59709524D01*
X101542858Y-59804762D01*
X101400000Y-59852381D01*
X101161905Y-59852381D01*
X99066667Y-56252381D02*
X99400000Y-57252381D01*
X99733334Y-56252381D01*
X100638096Y-57157143D02*
X100590477Y-57204762D01*
X100447620Y-57252381D01*
X100352382Y-57252381D01*
X100209524Y-57204762D01*
X100114286Y-57109524D01*
X100066667Y-57014286D01*
X100019048Y-56823810D01*
X100019048Y-56680952D01*
X100066667Y-56490476D01*
X100114286Y-56395238D01*
X100209524Y-56300000D01*
X100352382Y-56252381D01*
X100447620Y-56252381D01*
X100590477Y-56300000D01*
X100638096Y-56347619D01*
X101638096Y-57157143D02*
X101590477Y-57204762D01*
X101447620Y-57252381D01*
X101352382Y-57252381D01*
X101209524Y-57204762D01*
X101114286Y-57109524D01*
X101066667Y-57014286D01*
X101019048Y-56823810D01*
X101019048Y-56680952D01*
X101066667Y-56490476D01*
X101114286Y-56395238D01*
X101209524Y-56300000D01*
X101352382Y-56252381D01*
X101447620Y-56252381D01*
X101590477Y-56300000D01*
X101638096Y-56347619D01*
X100195239Y-54652381D02*
X99861905Y-54176190D01*
X99623810Y-54652381D02*
X99623810Y-53652381D01*
X100004763Y-53652381D01*
X100100001Y-53700000D01*
X100147620Y-53747619D01*
X100195239Y-53842857D01*
X100195239Y-53985714D01*
X100147620Y-54080952D01*
X100100001Y-54128571D01*
X100004763Y-54176190D01*
X99623810Y-54176190D01*
X100528572Y-53652381D02*
X101195239Y-54652381D01*
X101195239Y-53652381D02*
X100528572Y-54652381D01*
X101576191Y-54652381D02*
X101576191Y-53652381D01*
X99800000Y-51252381D02*
X100371429Y-51252381D01*
X100085714Y-52252381D02*
X100085714Y-51252381D01*
X100609524Y-51252381D02*
X101276191Y-52252381D01*
X101276191Y-51252381D02*
X100609524Y-52252381D01*
X101657143Y-52252381D02*
X101657143Y-51252381D01*
D12*
X107785715Y-66078571D02*
X107785715Y-64578571D01*
X109357144Y-65935714D02*
X109285715Y-66007143D01*
X109071429Y-66078571D01*
X108928572Y-66078571D01*
X108714287Y-66007143D01*
X108571429Y-65864286D01*
X108500001Y-65721429D01*
X108428572Y-65435714D01*
X108428572Y-65221429D01*
X108500001Y-64935714D01*
X108571429Y-64792857D01*
X108714287Y-64650000D01*
X108928572Y-64578571D01*
X109071429Y-64578571D01*
X109285715Y-64650000D01*
X109357144Y-64721429D01*
X109928572Y-66007143D02*
X110142858Y-66078571D01*
X110500001Y-66078571D01*
X110642858Y-66007143D01*
X110714287Y-65935714D01*
X110785715Y-65792857D01*
X110785715Y-65650000D01*
X110714287Y-65507143D01*
X110642858Y-65435714D01*
X110500001Y-65364286D01*
X110214287Y-65292857D01*
X110071429Y-65221429D01*
X110000001Y-65150000D01*
X109928572Y-65007143D01*
X109928572Y-64864286D01*
X110000001Y-64721429D01*
X110071429Y-64650000D01*
X110214287Y-64578571D01*
X110571429Y-64578571D01*
X110785715Y-64650000D01*
X111428572Y-66078571D02*
X111428572Y-64578571D01*
X112000000Y-64578571D01*
X112142858Y-64650000D01*
X112214286Y-64721429D01*
X112285715Y-64864286D01*
X112285715Y-65078571D01*
X112214286Y-65221429D01*
X112142858Y-65292857D01*
X112000000Y-65364286D01*
X111428572Y-65364286D01*
X101935715Y-65292857D02*
X101435715Y-65292857D01*
X101435715Y-66078571D02*
X101435715Y-64578571D01*
X102150001Y-64578571D01*
X102507143Y-64578571D02*
X103364286Y-64578571D01*
X102935715Y-66078571D02*
X102935715Y-64578571D01*
X103864286Y-66078571D02*
X103864286Y-64578571D01*
X104221429Y-64578571D01*
X104435714Y-64650000D01*
X104578572Y-64792857D01*
X104650000Y-64935714D01*
X104721429Y-65221429D01*
X104721429Y-65435714D01*
X104650000Y-65721429D01*
X104578572Y-65864286D01*
X104435714Y-66007143D01*
X104221429Y-66078571D01*
X103864286Y-66078571D01*
X105364286Y-66078571D02*
X105364286Y-64578571D01*
X168428572Y-49307143D02*
X169571429Y-49307143D01*
X160628572Y-49307143D02*
X161771429Y-49307143D01*
X161200000Y-49878571D02*
X161200000Y-48735714D01*
X163521429Y-45692857D02*
X163735715Y-45764286D01*
X163807143Y-45835714D01*
X163878572Y-45978571D01*
X163878572Y-46192857D01*
X163807143Y-46335714D01*
X163735715Y-46407143D01*
X163592857Y-46478571D01*
X163021429Y-46478571D01*
X163021429Y-44978571D01*
X163521429Y-44978571D01*
X163664286Y-45050000D01*
X163735715Y-45121429D01*
X163807143Y-45264286D01*
X163807143Y-45407143D01*
X163735715Y-45550000D01*
X163664286Y-45621429D01*
X163521429Y-45692857D01*
X163021429Y-45692857D01*
X164450000Y-46050000D02*
X165164286Y-46050000D01*
X164307143Y-46478571D02*
X164807143Y-44978571D01*
X165307143Y-46478571D01*
X165592857Y-44978571D02*
X166450000Y-44978571D01*
X166021429Y-46478571D02*
X166021429Y-44978571D01*
X166735714Y-44978571D02*
X167592857Y-44978571D01*
X167164286Y-46478571D02*
X167164286Y-44978571D01*
X170078571Y-61992857D02*
X168578571Y-61992857D01*
X169650000Y-61492857D01*
X168578571Y-60992857D01*
X170078571Y-60992857D01*
X168578571Y-59992857D02*
X168578571Y-59707143D01*
X168650000Y-59564285D01*
X168792857Y-59421428D01*
X169078571Y-59350000D01*
X169578571Y-59350000D01*
X169864286Y-59421428D01*
X170007143Y-59564285D01*
X170078571Y-59707143D01*
X170078571Y-59992857D01*
X170007143Y-60135714D01*
X169864286Y-60278571D01*
X169578571Y-60350000D01*
X169078571Y-60350000D01*
X168792857Y-60278571D01*
X168650000Y-60135714D01*
X168578571Y-59992857D01*
X168578571Y-58921428D02*
X168578571Y-58064285D01*
X170078571Y-58492856D02*
X168578571Y-58492856D01*
X168578571Y-57278571D02*
X168578571Y-56992857D01*
X168650000Y-56849999D01*
X168792857Y-56707142D01*
X169078571Y-56635714D01*
X169578571Y-56635714D01*
X169864286Y-56707142D01*
X170007143Y-56849999D01*
X170078571Y-56992857D01*
X170078571Y-57278571D01*
X170007143Y-57421428D01*
X169864286Y-57564285D01*
X169578571Y-57635714D01*
X169078571Y-57635714D01*
X168792857Y-57564285D01*
X168650000Y-57421428D01*
X168578571Y-57278571D01*
X170078571Y-55135713D02*
X169364286Y-55635713D01*
X170078571Y-55992856D02*
X168578571Y-55992856D01*
X168578571Y-55421428D01*
X168650000Y-55278570D01*
X168721429Y-55207142D01*
X168864286Y-55135713D01*
X169078571Y-55135713D01*
X169221429Y-55207142D01*
X169292857Y-55278570D01*
X169364286Y-55421428D01*
X169364286Y-55992856D01*
D10*
X94000000Y-68000000D02*
X94000000Y-43000000D01*
X175000000Y-68000000D02*
X94000000Y-68000000D01*
X175000000Y-43000000D02*
X175000000Y-68000000D01*
X94000000Y-43000000D02*
X175000000Y-43000000D01*
D14*
X153550000Y-53700000D02*
X153550000Y-54700000D01*
X155250000Y-54700000D02*
X155250000Y-53700000D01*
X160100000Y-51950000D02*
X159100000Y-51950000D01*
X159100000Y-53650000D02*
X160100000Y-53650000D01*
X153100000Y-60450000D02*
X154100000Y-60450000D01*
X154100000Y-58750000D02*
X153100000Y-58750000D01*
X153100000Y-62650000D02*
X154100000Y-62650000D01*
X154100000Y-60950000D02*
X153100000Y-60950000D01*
X116200000Y-50075000D02*
X115000000Y-50075000D01*
X115000000Y-48325000D02*
X116200000Y-48325000D01*
X116400000Y-63475000D02*
X115200000Y-63475000D01*
X115200000Y-61725000D02*
X116400000Y-61725000D01*
X122375000Y-53125000D02*
X122375000Y-53450000D01*
X129625000Y-53125000D02*
X129625000Y-53450000D01*
X129625000Y-60375000D02*
X129625000Y-60050000D01*
X122375000Y-60375000D02*
X122375000Y-60050000D01*
X122375000Y-53125000D02*
X122700000Y-53125000D01*
X122375000Y-60375000D02*
X122700000Y-60375000D01*
X129625000Y-60375000D02*
X129300000Y-60375000D01*
X129625000Y-53125000D02*
X129300000Y-53125000D01*
X122375000Y-53450000D02*
X120950000Y-53450000D01*
X147600000Y-54450000D02*
X148250000Y-54450000D01*
X147600000Y-55200000D02*
X147600000Y-54450000D01*
X147600000Y-59300000D02*
X147600000Y-56300000D01*
X150800000Y-56300000D02*
X150800000Y-59300000D01*
X111070000Y-50530000D02*
X111070000Y-63230000D01*
X111070000Y-63230000D02*
X108530000Y-63230000D01*
X108530000Y-63230000D02*
X108530000Y-50530000D01*
X111350000Y-47710000D02*
X111350000Y-49260000D01*
X111070000Y-50530000D02*
X108530000Y-50530000D01*
X108250000Y-49260000D02*
X108250000Y-47710000D01*
X108250000Y-47710000D02*
X111350000Y-47710000D01*
X165130000Y-47930000D02*
X167670000Y-47930000D01*
X162310000Y-47650000D02*
X163860000Y-47650000D01*
X165130000Y-47930000D02*
X165130000Y-50470000D01*
X163860000Y-50750000D02*
X162310000Y-50750000D01*
X162310000Y-50750000D02*
X162310000Y-47650000D01*
X165130000Y-50470000D02*
X167670000Y-50470000D01*
X167670000Y-50470000D02*
X167670000Y-47930000D01*
X167670000Y-59670000D02*
X167670000Y-54590000D01*
X167670000Y-54590000D02*
X165130000Y-54590000D01*
X165130000Y-54590000D02*
X165130000Y-59670000D01*
X164850000Y-62490000D02*
X164850000Y-60940000D01*
X165130000Y-59670000D02*
X167670000Y-59670000D01*
X167950000Y-60940000D02*
X167950000Y-62490000D01*
X167950000Y-62490000D02*
X164850000Y-62490000D01*
X124470000Y-47930000D02*
X142250000Y-47930000D01*
X142250000Y-47930000D02*
X142250000Y-50470000D01*
X142250000Y-50470000D02*
X124470000Y-50470000D01*
X121650000Y-47650000D02*
X123200000Y-47650000D01*
X124470000Y-47930000D02*
X124470000Y-50470000D01*
X123200000Y-50750000D02*
X121650000Y-50750000D01*
X121650000Y-50750000D02*
X121650000Y-47650000D01*
X104670000Y-50530000D02*
X104670000Y-63230000D01*
X104670000Y-63230000D02*
X102130000Y-63230000D01*
X102130000Y-63230000D02*
X102130000Y-50530000D01*
X104950000Y-47710000D02*
X104950000Y-49260000D01*
X104670000Y-50530000D02*
X102130000Y-50530000D01*
X101850000Y-49260000D02*
X101850000Y-47710000D01*
X101850000Y-47710000D02*
X104950000Y-47710000D01*
X147270000Y-47930000D02*
X149810000Y-47930000D01*
X144450000Y-47650000D02*
X146000000Y-47650000D01*
X147270000Y-47930000D02*
X147270000Y-50470000D01*
X146000000Y-50750000D02*
X144450000Y-50750000D01*
X144450000Y-50750000D02*
X144450000Y-47650000D01*
X147270000Y-50470000D02*
X149810000Y-50470000D01*
X149810000Y-50470000D02*
X149810000Y-47930000D01*
X129550000Y-47075000D02*
X128350000Y-47075000D01*
X128350000Y-45325000D02*
X129550000Y-45325000D01*
X134750000Y-47075000D02*
X133550000Y-47075000D01*
X133550000Y-45325000D02*
X134750000Y-45325000D01*
X123200000Y-45325000D02*
X124400000Y-45325000D01*
X124400000Y-47075000D02*
X123200000Y-47075000D01*
X135061123Y-55707975D02*
X135061123Y-58207975D01*
X135061123Y-58207975D02*
X133961123Y-58207975D01*
X133961123Y-58207975D02*
X133961123Y-55707975D01*
X133961123Y-55707975D02*
X135061123Y-55707975D01*
X133711123Y-55457975D02*
X133711123Y-58457975D01*
X135311123Y-55457975D02*
X135311123Y-58457975D01*
X135311123Y-58457975D02*
X133711123Y-58457975D01*
X135311123Y-55457975D02*
X133711123Y-55457975D01*
X132761123Y-53957975D02*
X132761123Y-59957975D01*
X136261123Y-53957975D02*
X136261123Y-59957975D01*
X136261123Y-53957975D02*
X132761123Y-53957975D01*
X136261123Y-59957975D02*
X132761123Y-59957975D01*
X140961123Y-55707975D02*
X140961123Y-58207975D01*
X140961123Y-58207975D02*
X139861123Y-58207975D01*
X139861123Y-58207975D02*
X139861123Y-55707975D01*
X139861123Y-55707975D02*
X140961123Y-55707975D01*
X139611123Y-55457975D02*
X139611123Y-58457975D01*
X141211123Y-55457975D02*
X141211123Y-58457975D01*
X141211123Y-58457975D02*
X139611123Y-58457975D01*
X141211123Y-55457975D02*
X139611123Y-55457975D01*
X138661123Y-53957975D02*
X138661123Y-59957975D01*
X142161123Y-53957975D02*
X142161123Y-59957975D01*
X142161123Y-53957975D02*
X138661123Y-53957975D01*
X142161123Y-59957975D02*
X138661123Y-59957975D01*
X157525000Y-54250000D02*
X157525000Y-54275000D01*
X162175000Y-54250000D02*
X162175000Y-54275000D01*
X162175000Y-62300000D02*
X162175000Y-62275000D01*
X157525000Y-62300000D02*
X157525000Y-62275000D01*
X157525000Y-54250000D02*
X162175000Y-54250000D01*
X157525000Y-62300000D02*
X162175000Y-62300000D01*
X157525000Y-54275000D02*
X156450000Y-54275000D01*
X115000000Y-59800000D02*
X116800000Y-59800000D01*
X114500000Y-59200000D02*
X114500000Y-59500000D01*
X114500000Y-56800000D02*
X114500000Y-57600000D01*
X114500000Y-54200000D02*
X114500000Y-55000000D01*
X114500000Y-52300000D02*
X114500000Y-52600000D01*
X117500000Y-52600000D02*
X117500000Y-52300000D01*
X117500000Y-55000000D02*
X117500000Y-54200000D01*
X117500000Y-57600000D02*
X117500000Y-56800000D01*
X117500000Y-59500000D02*
X117500000Y-59200000D01*
X114500000Y-52300000D02*
X117500000Y-52300000D01*
X114500000Y-59500000D02*
X117500000Y-59500000D01*
X158000960Y-48001120D02*
X152799040Y-48001120D01*
X152799040Y-50398880D02*
X158000960Y-50398880D01*
X159395420Y-50398880D02*
X159395420Y-48001120D01*
X146398880Y-60200960D02*
X146398880Y-54999040D01*
X144001120Y-54999040D02*
X144001120Y-60200960D01*
X144001120Y-61595420D02*
X146398880Y-61595420D01*
X152657143Y-54366666D02*
X152704762Y-54414285D01*
X152752381Y-54557142D01*
X152752381Y-54652380D01*
X152704762Y-54795238D01*
X152609524Y-54890476D01*
X152514286Y-54938095D01*
X152323810Y-54985714D01*
X152180952Y-54985714D01*
X151990476Y-54938095D01*
X151895238Y-54890476D01*
X151800000Y-54795238D01*
X151752381Y-54652380D01*
X151752381Y-54557142D01*
X151800000Y-54414285D01*
X151847619Y-54366666D01*
X151752381Y-53509523D02*
X151752381Y-53700000D01*
X151800000Y-53795238D01*
X151847619Y-53842857D01*
X151990476Y-53938095D01*
X152180952Y-53985714D01*
X152561905Y-53985714D01*
X152657143Y-53938095D01*
X152704762Y-53890476D01*
X152752381Y-53795238D01*
X152752381Y-53604761D01*
X152704762Y-53509523D01*
X152657143Y-53461904D01*
X152561905Y-53414285D01*
X152323810Y-53414285D01*
X152228571Y-53461904D01*
X152180952Y-53509523D01*
X152133333Y-53604761D01*
X152133333Y-53795238D01*
X152180952Y-53890476D01*
X152228571Y-53938095D01*
X152323810Y-53985714D01*
X163033334Y-53157143D02*
X162985715Y-53204762D01*
X162842858Y-53252381D01*
X162747620Y-53252381D01*
X162604762Y-53204762D01*
X162509524Y-53109524D01*
X162461905Y-53014286D01*
X162414286Y-52823810D01*
X162414286Y-52680952D01*
X162461905Y-52490476D01*
X162509524Y-52395238D01*
X162604762Y-52300000D01*
X162747620Y-52252381D01*
X162842858Y-52252381D01*
X162985715Y-52300000D01*
X163033334Y-52347619D01*
X163366667Y-52252381D02*
X164033334Y-52252381D01*
X163604762Y-53252381D01*
X153433334Y-58157143D02*
X153385715Y-58204762D01*
X153242858Y-58252381D01*
X153147620Y-58252381D01*
X153004762Y-58204762D01*
X152909524Y-58109524D01*
X152861905Y-58014286D01*
X152814286Y-57823810D01*
X152814286Y-57680952D01*
X152861905Y-57490476D01*
X152909524Y-57395238D01*
X153004762Y-57300000D01*
X153147620Y-57252381D01*
X153242858Y-57252381D01*
X153385715Y-57300000D01*
X153433334Y-57347619D01*
X154004762Y-57680952D02*
X153909524Y-57633333D01*
X153861905Y-57585714D01*
X153814286Y-57490476D01*
X153814286Y-57442857D01*
X153861905Y-57347619D01*
X153909524Y-57300000D01*
X154004762Y-57252381D01*
X154195239Y-57252381D01*
X154290477Y-57300000D01*
X154338096Y-57347619D01*
X154385715Y-57442857D01*
X154385715Y-57490476D01*
X154338096Y-57585714D01*
X154290477Y-57633333D01*
X154195239Y-57680952D01*
X154004762Y-57680952D01*
X153909524Y-57728571D01*
X153861905Y-57776190D01*
X153814286Y-57871429D01*
X153814286Y-58061905D01*
X153861905Y-58157143D01*
X153909524Y-58204762D01*
X154004762Y-58252381D01*
X154195239Y-58252381D01*
X154290477Y-58204762D01*
X154338096Y-58157143D01*
X154385715Y-58061905D01*
X154385715Y-57871429D01*
X154338096Y-57776190D01*
X154290477Y-57728571D01*
X154195239Y-57680952D01*
X153433334Y-63957143D02*
X153385715Y-64004762D01*
X153242858Y-64052381D01*
X153147620Y-64052381D01*
X153004762Y-64004762D01*
X152909524Y-63909524D01*
X152861905Y-63814286D01*
X152814286Y-63623810D01*
X152814286Y-63480952D01*
X152861905Y-63290476D01*
X152909524Y-63195238D01*
X153004762Y-63100000D01*
X153147620Y-63052381D01*
X153242858Y-63052381D01*
X153385715Y-63100000D01*
X153433334Y-63147619D01*
X153909524Y-64052381D02*
X154100000Y-64052381D01*
X154195239Y-64004762D01*
X154242858Y-63957143D01*
X154338096Y-63814286D01*
X154385715Y-63623810D01*
X154385715Y-63242857D01*
X154338096Y-63147619D01*
X154290477Y-63100000D01*
X154195239Y-63052381D01*
X154004762Y-63052381D01*
X153909524Y-63100000D01*
X153861905Y-63147619D01*
X153814286Y-63242857D01*
X153814286Y-63480952D01*
X153861905Y-63576190D01*
X153909524Y-63623810D01*
X154004762Y-63671429D01*
X154195239Y-63671429D01*
X154290477Y-63623810D01*
X154338096Y-63576190D01*
X154385715Y-63480952D01*
X114861905Y-47552381D02*
X114861905Y-46552381D01*
X115100000Y-46552381D01*
X115242858Y-46600000D01*
X115338096Y-46695238D01*
X115385715Y-46790476D01*
X115433334Y-46980952D01*
X115433334Y-47123810D01*
X115385715Y-47314286D01*
X115338096Y-47409524D01*
X115242858Y-47504762D01*
X115100000Y-47552381D01*
X114861905Y-47552381D01*
X116385715Y-47552381D02*
X115814286Y-47552381D01*
X116100000Y-47552381D02*
X116100000Y-46552381D01*
X116004762Y-46695238D01*
X115909524Y-46790476D01*
X115814286Y-46838095D01*
X115061905Y-65052381D02*
X115061905Y-64052381D01*
X115300000Y-64052381D01*
X115442858Y-64100000D01*
X115538096Y-64195238D01*
X115585715Y-64290476D01*
X115633334Y-64480952D01*
X115633334Y-64623810D01*
X115585715Y-64814286D01*
X115538096Y-64909524D01*
X115442858Y-65004762D01*
X115300000Y-65052381D01*
X115061905Y-65052381D01*
X116014286Y-64147619D02*
X116061905Y-64100000D01*
X116157143Y-64052381D01*
X116395239Y-64052381D01*
X116490477Y-64100000D01*
X116538096Y-64147619D01*
X116585715Y-64242857D01*
X116585715Y-64338095D01*
X116538096Y-64480952D01*
X115966667Y-65052381D01*
X116585715Y-65052381D01*
X129823810Y-61852381D02*
X129823810Y-60852381D01*
X130871429Y-61757143D02*
X130823810Y-61804762D01*
X130680953Y-61852381D01*
X130585715Y-61852381D01*
X130442857Y-61804762D01*
X130347619Y-61709524D01*
X130300000Y-61614286D01*
X130252381Y-61423810D01*
X130252381Y-61280952D01*
X130300000Y-61090476D01*
X130347619Y-60995238D01*
X130442857Y-60900000D01*
X130585715Y-60852381D01*
X130680953Y-60852381D01*
X130823810Y-60900000D01*
X130871429Y-60947619D01*
X131823810Y-61852381D02*
X131252381Y-61852381D01*
X131538095Y-61852381D02*
X131538095Y-60852381D01*
X131442857Y-60995238D01*
X131347619Y-61090476D01*
X131252381Y-61138095D01*
X149233334Y-63252381D02*
X148757143Y-63252381D01*
X148757143Y-62252381D01*
X150090477Y-63252381D02*
X149519048Y-63252381D01*
X149804762Y-63252381D02*
X149804762Y-62252381D01*
X149709524Y-62395238D01*
X149614286Y-62490476D01*
X149519048Y-62538095D01*
X109061905Y-47252381D02*
X109061905Y-46252381D01*
X109442858Y-46252381D01*
X109538096Y-46300000D01*
X109585715Y-46347619D01*
X109633334Y-46442857D01*
X109633334Y-46585714D01*
X109585715Y-46680952D01*
X109538096Y-46728571D01*
X109442858Y-46776190D01*
X109061905Y-46776190D01*
X110585715Y-47252381D02*
X110014286Y-47252381D01*
X110300000Y-47252381D02*
X110300000Y-46252381D01*
X110204762Y-46395238D01*
X110109524Y-46490476D01*
X110014286Y-46538095D01*
X166261905Y-52252381D02*
X166261905Y-51252381D01*
X166642858Y-51252381D01*
X166738096Y-51300000D01*
X166785715Y-51347619D01*
X166833334Y-51442857D01*
X166833334Y-51585714D01*
X166785715Y-51680952D01*
X166738096Y-51728571D01*
X166642858Y-51776190D01*
X166261905Y-51776190D01*
X167214286Y-51347619D02*
X167261905Y-51300000D01*
X167357143Y-51252381D01*
X167595239Y-51252381D01*
X167690477Y-51300000D01*
X167738096Y-51347619D01*
X167785715Y-51442857D01*
X167785715Y-51538095D01*
X167738096Y-51680952D01*
X167166667Y-52252381D01*
X167785715Y-52252381D01*
X165661905Y-64252381D02*
X165661905Y-63252381D01*
X166042858Y-63252381D01*
X166138096Y-63300000D01*
X166185715Y-63347619D01*
X166233334Y-63442857D01*
X166233334Y-63585714D01*
X166185715Y-63680952D01*
X166138096Y-63728571D01*
X166042858Y-63776190D01*
X165661905Y-63776190D01*
X166566667Y-63252381D02*
X167185715Y-63252381D01*
X166852381Y-63633333D01*
X166995239Y-63633333D01*
X167090477Y-63680952D01*
X167138096Y-63728571D01*
X167185715Y-63823810D01*
X167185715Y-64061905D01*
X167138096Y-64157143D01*
X167090477Y-64204762D01*
X166995239Y-64252381D01*
X166709524Y-64252381D01*
X166614286Y-64204762D01*
X166566667Y-64157143D01*
X121252381Y-49938095D02*
X120252381Y-49938095D01*
X120252381Y-49557142D01*
X120300000Y-49461904D01*
X120347619Y-49414285D01*
X120442857Y-49366666D01*
X120585714Y-49366666D01*
X120680952Y-49414285D01*
X120728571Y-49461904D01*
X120776190Y-49557142D01*
X120776190Y-49938095D01*
X120585714Y-48509523D02*
X121252381Y-48509523D01*
X120204762Y-48747619D02*
X120919048Y-48985714D01*
X120919048Y-48366666D01*
X102861905Y-47252381D02*
X102861905Y-46252381D01*
X103242858Y-46252381D01*
X103338096Y-46300000D01*
X103385715Y-46347619D01*
X103433334Y-46442857D01*
X103433334Y-46585714D01*
X103385715Y-46680952D01*
X103338096Y-46728571D01*
X103242858Y-46776190D01*
X102861905Y-46776190D01*
X104338096Y-46252381D02*
X103861905Y-46252381D01*
X103814286Y-46728571D01*
X103861905Y-46680952D01*
X103957143Y-46633333D01*
X104195239Y-46633333D01*
X104290477Y-46680952D01*
X104338096Y-46728571D01*
X104385715Y-46823810D01*
X104385715Y-47061905D01*
X104338096Y-47157143D01*
X104290477Y-47204762D01*
X104195239Y-47252381D01*
X103957143Y-47252381D01*
X103861905Y-47204762D01*
X103814286Y-47157143D01*
X146461905Y-47052381D02*
X146461905Y-46052381D01*
X146842858Y-46052381D01*
X146938096Y-46100000D01*
X146985715Y-46147619D01*
X147033334Y-46242857D01*
X147033334Y-46385714D01*
X146985715Y-46480952D01*
X146938096Y-46528571D01*
X146842858Y-46576190D01*
X146461905Y-46576190D01*
X147890477Y-46052381D02*
X147700000Y-46052381D01*
X147604762Y-46100000D01*
X147557143Y-46147619D01*
X147461905Y-46290476D01*
X147414286Y-46480952D01*
X147414286Y-46861905D01*
X147461905Y-46957143D01*
X147509524Y-47004762D01*
X147604762Y-47052381D01*
X147795239Y-47052381D01*
X147890477Y-47004762D01*
X147938096Y-46957143D01*
X147985715Y-46861905D01*
X147985715Y-46623810D01*
X147938096Y-46528571D01*
X147890477Y-46480952D01*
X147795239Y-46433333D01*
X147604762Y-46433333D01*
X147509524Y-46480952D01*
X147461905Y-46528571D01*
X147414286Y-46623810D01*
X128783334Y-44852381D02*
X128450000Y-44376190D01*
X128211905Y-44852381D02*
X128211905Y-43852381D01*
X128592858Y-43852381D01*
X128688096Y-43900000D01*
X128735715Y-43947619D01*
X128783334Y-44042857D01*
X128783334Y-44185714D01*
X128735715Y-44280952D01*
X128688096Y-44328571D01*
X128592858Y-44376190D01*
X128211905Y-44376190D01*
X129640477Y-44185714D02*
X129640477Y-44852381D01*
X129402381Y-43804762D02*
X129164286Y-44519048D01*
X129783334Y-44519048D01*
X133983334Y-44852381D02*
X133650000Y-44376190D01*
X133411905Y-44852381D02*
X133411905Y-43852381D01*
X133792858Y-43852381D01*
X133888096Y-43900000D01*
X133935715Y-43947619D01*
X133983334Y-44042857D01*
X133983334Y-44185714D01*
X133935715Y-44280952D01*
X133888096Y-44328571D01*
X133792858Y-44376190D01*
X133411905Y-44376190D01*
X134888096Y-43852381D02*
X134411905Y-43852381D01*
X134364286Y-44328571D01*
X134411905Y-44280952D01*
X134507143Y-44233333D01*
X134745239Y-44233333D01*
X134840477Y-44280952D01*
X134888096Y-44328571D01*
X134935715Y-44423810D01*
X134935715Y-44661905D01*
X134888096Y-44757143D01*
X134840477Y-44804762D01*
X134745239Y-44852381D01*
X134507143Y-44852381D01*
X134411905Y-44804762D01*
X134364286Y-44757143D01*
X123633334Y-44852381D02*
X123300000Y-44376190D01*
X123061905Y-44852381D02*
X123061905Y-43852381D01*
X123442858Y-43852381D01*
X123538096Y-43900000D01*
X123585715Y-43947619D01*
X123633334Y-44042857D01*
X123633334Y-44185714D01*
X123585715Y-44280952D01*
X123538096Y-44328571D01*
X123442858Y-44376190D01*
X123061905Y-44376190D01*
X124490477Y-43852381D02*
X124300000Y-43852381D01*
X124204762Y-43900000D01*
X124157143Y-43947619D01*
X124061905Y-44090476D01*
X124014286Y-44280952D01*
X124014286Y-44661905D01*
X124061905Y-44757143D01*
X124109524Y-44804762D01*
X124204762Y-44852381D01*
X124395239Y-44852381D01*
X124490477Y-44804762D01*
X124538096Y-44757143D01*
X124585715Y-44661905D01*
X124585715Y-44423810D01*
X124538096Y-44328571D01*
X124490477Y-44280952D01*
X124395239Y-44233333D01*
X124204762Y-44233333D01*
X124109524Y-44280952D01*
X124061905Y-44328571D01*
X124014286Y-44423810D01*
X133066667Y-64004762D02*
X133209524Y-64052381D01*
X133447620Y-64052381D01*
X133542858Y-64004762D01*
X133590477Y-63957143D01*
X133638096Y-63861905D01*
X133638096Y-63766667D01*
X133590477Y-63671429D01*
X133542858Y-63623810D01*
X133447620Y-63576190D01*
X133257143Y-63528571D01*
X133161905Y-63480952D01*
X133114286Y-63433333D01*
X133066667Y-63338095D01*
X133066667Y-63242857D01*
X133114286Y-63147619D01*
X133161905Y-63100000D01*
X133257143Y-63052381D01*
X133495239Y-63052381D01*
X133638096Y-63100000D01*
X133971429Y-63052381D02*
X134209524Y-64052381D01*
X134400001Y-63338095D01*
X134590477Y-64052381D01*
X134828572Y-63052381D01*
X135733334Y-64052381D02*
X135161905Y-64052381D01*
X135447619Y-64052381D02*
X135447619Y-63052381D01*
X135352381Y-63195238D01*
X135257143Y-63290476D01*
X135161905Y-63338095D01*
X139066667Y-64004762D02*
X139209524Y-64052381D01*
X139447620Y-64052381D01*
X139542858Y-64004762D01*
X139590477Y-63957143D01*
X139638096Y-63861905D01*
X139638096Y-63766667D01*
X139590477Y-63671429D01*
X139542858Y-63623810D01*
X139447620Y-63576190D01*
X139257143Y-63528571D01*
X139161905Y-63480952D01*
X139114286Y-63433333D01*
X139066667Y-63338095D01*
X139066667Y-63242857D01*
X139114286Y-63147619D01*
X139161905Y-63100000D01*
X139257143Y-63052381D01*
X139495239Y-63052381D01*
X139638096Y-63100000D01*
X139971429Y-63052381D02*
X140209524Y-64052381D01*
X140400001Y-63338095D01*
X140590477Y-64052381D01*
X140828572Y-63052381D01*
X141161905Y-63147619D02*
X141209524Y-63100000D01*
X141304762Y-63052381D01*
X141542858Y-63052381D01*
X141638096Y-63100000D01*
X141685715Y-63147619D01*
X141733334Y-63242857D01*
X141733334Y-63338095D01*
X141685715Y-63480952D01*
X141114286Y-64052381D01*
X141733334Y-64052381D01*
X159238095Y-62852381D02*
X159238095Y-63661905D01*
X159285714Y-63757143D01*
X159333333Y-63804762D01*
X159428571Y-63852381D01*
X159619048Y-63852381D01*
X159714286Y-63804762D01*
X159761905Y-63757143D01*
X159809524Y-63661905D01*
X159809524Y-62852381D01*
X160809524Y-63852381D02*
X160238095Y-63852381D01*
X160523809Y-63852381D02*
X160523809Y-62852381D01*
X160428571Y-62995238D01*
X160333333Y-63090476D01*
X160238095Y-63138095D01*
X115523809Y-51376190D02*
X115523809Y-51852381D01*
X115190476Y-50852381D02*
X115523809Y-51376190D01*
X115857143Y-50852381D01*
X116714286Y-51852381D02*
X116142857Y-51852381D01*
X116428571Y-51852381D02*
X116428571Y-50852381D01*
X116333333Y-50995238D01*
X116238095Y-51090476D01*
X116142857Y-51138095D01*
X155233334Y-47357143D02*
X155185715Y-47404762D01*
X155042858Y-47452381D01*
X154947620Y-47452381D01*
X154804762Y-47404762D01*
X154709524Y-47309524D01*
X154661905Y-47214286D01*
X154614286Y-47023810D01*
X154614286Y-46880952D01*
X154661905Y-46690476D01*
X154709524Y-46595238D01*
X154804762Y-46500000D01*
X154947620Y-46452381D01*
X155042858Y-46452381D01*
X155185715Y-46500000D01*
X155233334Y-46547619D01*
X156138096Y-46452381D02*
X155661905Y-46452381D01*
X155614286Y-46928571D01*
X155661905Y-46880952D01*
X155757143Y-46833333D01*
X155995239Y-46833333D01*
X156090477Y-46880952D01*
X156138096Y-46928571D01*
X156185715Y-47023810D01*
X156185715Y-47261905D01*
X156138096Y-47357143D01*
X156090477Y-47404762D01*
X155995239Y-47452381D01*
X155757143Y-47452381D01*
X155661905Y-47404762D01*
X155614286Y-47357143D01*
X144357143Y-63157143D02*
X144309524Y-63204762D01*
X144166667Y-63252381D01*
X144071429Y-63252381D01*
X143928571Y-63204762D01*
X143833333Y-63109524D01*
X143785714Y-63014286D01*
X143738095Y-62823810D01*
X143738095Y-62680952D01*
X143785714Y-62490476D01*
X143833333Y-62395238D01*
X143928571Y-62300000D01*
X144071429Y-62252381D01*
X144166667Y-62252381D01*
X144309524Y-62300000D01*
X144357143Y-62347619D01*
X145309524Y-63252381D02*
X144738095Y-63252381D01*
X145023809Y-63252381D02*
X145023809Y-62252381D01*
X144928571Y-62395238D01*
X144833333Y-62490476D01*
X144738095Y-62538095D01*
X146261905Y-63252381D02*
X145690476Y-63252381D01*
X145976190Y-63252381D02*
X145976190Y-62252381D01*
X145880952Y-62395238D01*
X145785714Y-62490476D01*
X145690476Y-62538095D01*
M02*
