G04 #@! TF.FileFunction,Legend,Bot*
%FSLAX46Y46*%
G04 Gerber Fmt 4.6, Leading zero omitted, Abs format (unit mm)*
G04 Created by KiCad (PCBNEW 0.201602221446+6578~42~ubuntu15.04.1-product) date Mon 22 Feb 2016 07:23:46 PM EST*
%MOMM*%
G01*
G04 APERTURE LIST*
%ADD10C,0.100000*%
%ADD11C,0.300000*%
%ADD12C,0.200000*%
%ADD13C,0.150000*%
G04 APERTURE END LIST*
D10*
D11*
X163978571Y-53078571D02*
X164835714Y-53078571D01*
X164407142Y-53078571D02*
X164407142Y-51578571D01*
X164549999Y-51792857D01*
X164692857Y-51935714D01*
X164835714Y-52007143D01*
X163335714Y-53078571D02*
X163335714Y-51578571D01*
X162978571Y-51578571D01*
X162764286Y-51650000D01*
X162621428Y-51792857D01*
X162550000Y-51935714D01*
X162478571Y-52221429D01*
X162478571Y-52435714D01*
X162550000Y-52721429D01*
X162621428Y-52864286D01*
X162764286Y-53007143D01*
X162978571Y-53078571D01*
X163335714Y-53078571D01*
X160192857Y-52292857D02*
X159978571Y-52364286D01*
X159907143Y-52435714D01*
X159835714Y-52578571D01*
X159835714Y-52792857D01*
X159907143Y-52935714D01*
X159978571Y-53007143D01*
X160121429Y-53078571D01*
X160692857Y-53078571D01*
X160692857Y-51578571D01*
X160192857Y-51578571D01*
X160050000Y-51650000D01*
X159978571Y-51721429D01*
X159907143Y-51864286D01*
X159907143Y-52007143D01*
X159978571Y-52150000D01*
X160050000Y-52221429D01*
X160192857Y-52292857D01*
X160692857Y-52292857D01*
X158478571Y-53078571D02*
X159192857Y-53078571D01*
X159192857Y-51578571D01*
X157978571Y-53078571D02*
X157978571Y-51578571D01*
X157621428Y-51578571D01*
X157407143Y-51650000D01*
X157264285Y-51792857D01*
X157192857Y-51935714D01*
X157121428Y-52221429D01*
X157121428Y-52435714D01*
X157192857Y-52721429D01*
X157264285Y-52864286D01*
X157407143Y-53007143D01*
X157621428Y-53078571D01*
X157978571Y-53078571D01*
X155621428Y-52935714D02*
X155692857Y-53007143D01*
X155907143Y-53078571D01*
X156050000Y-53078571D01*
X156264285Y-53007143D01*
X156407143Y-52864286D01*
X156478571Y-52721429D01*
X156550000Y-52435714D01*
X156550000Y-52221429D01*
X156478571Y-51935714D01*
X156407143Y-51792857D01*
X156264285Y-51650000D01*
X156050000Y-51578571D01*
X155907143Y-51578571D01*
X155692857Y-51650000D01*
X155621428Y-51721429D01*
X153050000Y-51650000D02*
X153192857Y-51578571D01*
X153407143Y-51578571D01*
X153621428Y-51650000D01*
X153764286Y-51792857D01*
X153835714Y-51935714D01*
X153907143Y-52221429D01*
X153907143Y-52435714D01*
X153835714Y-52721429D01*
X153764286Y-52864286D01*
X153621428Y-53007143D01*
X153407143Y-53078571D01*
X153264286Y-53078571D01*
X153050000Y-53007143D01*
X152978571Y-52935714D01*
X152978571Y-52435714D01*
X153264286Y-52435714D01*
X152335714Y-53078571D02*
X152335714Y-52078571D01*
X152335714Y-51578571D02*
X152407143Y-51650000D01*
X152335714Y-51721429D01*
X152264286Y-51650000D01*
X152335714Y-51578571D01*
X152335714Y-51721429D01*
X151621428Y-53078571D02*
X151621428Y-52078571D01*
X151621428Y-52221429D02*
X151550000Y-52150000D01*
X151407142Y-52078571D01*
X151192857Y-52078571D01*
X151050000Y-52150000D01*
X150978571Y-52292857D01*
X150978571Y-53078571D01*
X150978571Y-52292857D02*
X150907142Y-52150000D01*
X150764285Y-52078571D01*
X150550000Y-52078571D01*
X150407142Y-52150000D01*
X150335714Y-52292857D01*
X150335714Y-53078571D01*
X149621428Y-53078571D02*
X149621428Y-51578571D01*
X149621428Y-52150000D02*
X149478571Y-52078571D01*
X149192857Y-52078571D01*
X149050000Y-52150000D01*
X148978571Y-52221429D01*
X148907142Y-52364286D01*
X148907142Y-52792857D01*
X148978571Y-52935714D01*
X149050000Y-53007143D01*
X149192857Y-53078571D01*
X149478571Y-53078571D01*
X149621428Y-53007143D01*
X147621428Y-53078571D02*
X147621428Y-52292857D01*
X147692857Y-52150000D01*
X147835714Y-52078571D01*
X148121428Y-52078571D01*
X148264285Y-52150000D01*
X147621428Y-53007143D02*
X147764285Y-53078571D01*
X148121428Y-53078571D01*
X148264285Y-53007143D01*
X148335714Y-52864286D01*
X148335714Y-52721429D01*
X148264285Y-52578571D01*
X148121428Y-52507143D01*
X147764285Y-52507143D01*
X147621428Y-52435714D01*
X146692856Y-53078571D02*
X146835714Y-53007143D01*
X146907142Y-52864286D01*
X146907142Y-51578571D01*
X162871428Y-55478571D02*
X162871428Y-53978571D01*
X162300000Y-53978571D01*
X162157142Y-54050000D01*
X162085714Y-54121429D01*
X162014285Y-54264286D01*
X162014285Y-54478571D01*
X162085714Y-54621429D01*
X162157142Y-54692857D01*
X162300000Y-54764286D01*
X162871428Y-54764286D01*
X160728571Y-55478571D02*
X160728571Y-54692857D01*
X160800000Y-54550000D01*
X160942857Y-54478571D01*
X161228571Y-54478571D01*
X161371428Y-54550000D01*
X160728571Y-55407143D02*
X160871428Y-55478571D01*
X161228571Y-55478571D01*
X161371428Y-55407143D01*
X161442857Y-55264286D01*
X161442857Y-55121429D01*
X161371428Y-54978571D01*
X161228571Y-54907143D01*
X160871428Y-54907143D01*
X160728571Y-54835714D01*
X160228571Y-54478571D02*
X159657142Y-54478571D01*
X160014285Y-53978571D02*
X160014285Y-55264286D01*
X159942857Y-55407143D01*
X159799999Y-55478571D01*
X159657142Y-55478571D01*
X159157142Y-55478571D02*
X159157142Y-54478571D01*
X159157142Y-54764286D02*
X159085714Y-54621429D01*
X159014285Y-54550000D01*
X158871428Y-54478571D01*
X158728571Y-54478571D01*
X158228571Y-55478571D02*
X158228571Y-54478571D01*
X158228571Y-53978571D02*
X158300000Y-54050000D01*
X158228571Y-54121429D01*
X158157143Y-54050000D01*
X158228571Y-53978571D01*
X158228571Y-54121429D01*
X156871428Y-55407143D02*
X157014285Y-55478571D01*
X157299999Y-55478571D01*
X157442857Y-55407143D01*
X157514285Y-55335714D01*
X157585714Y-55192857D01*
X157585714Y-54764286D01*
X157514285Y-54621429D01*
X157442857Y-54550000D01*
X157299999Y-54478571D01*
X157014285Y-54478571D01*
X156871428Y-54550000D01*
X156228571Y-55478571D02*
X156228571Y-53978571D01*
X156085714Y-54907143D02*
X155657143Y-55478571D01*
X155657143Y-54478571D02*
X156228571Y-55050000D01*
X153157142Y-55478571D02*
X153871428Y-55478571D01*
X153871428Y-53978571D01*
X152442856Y-55478571D02*
X152585714Y-55407143D01*
X152657142Y-55264286D01*
X152657142Y-53978571D01*
X151657142Y-55478571D02*
X151800000Y-55407143D01*
X151871428Y-55335714D01*
X151942857Y-55192857D01*
X151942857Y-54764286D01*
X151871428Y-54621429D01*
X151800000Y-54550000D01*
X151657142Y-54478571D01*
X151442857Y-54478571D01*
X151300000Y-54550000D01*
X151228571Y-54621429D01*
X151157142Y-54764286D01*
X151157142Y-55192857D01*
X151228571Y-55335714D01*
X151300000Y-55407143D01*
X151442857Y-55478571D01*
X151657142Y-55478571D01*
X150657142Y-54478571D02*
X150299999Y-55478571D01*
X149942857Y-54478571D02*
X150299999Y-55478571D01*
X150442857Y-55835714D01*
X150514285Y-55907143D01*
X150657142Y-55978571D01*
X148728571Y-55478571D02*
X148728571Y-53978571D01*
X148728571Y-55407143D02*
X148871428Y-55478571D01*
X149157142Y-55478571D01*
X149300000Y-55407143D01*
X149371428Y-55335714D01*
X149442857Y-55192857D01*
X149442857Y-54764286D01*
X149371428Y-54621429D01*
X149300000Y-54550000D01*
X149157142Y-54478571D01*
X148871428Y-54478571D01*
X148728571Y-54550000D01*
X158371428Y-56521429D02*
X158299999Y-56450000D01*
X158157142Y-56378571D01*
X157799999Y-56378571D01*
X157657142Y-56450000D01*
X157585713Y-56521429D01*
X157514285Y-56664286D01*
X157514285Y-56807143D01*
X157585713Y-57021429D01*
X158442856Y-57878571D01*
X157514285Y-57878571D01*
X156585714Y-56378571D02*
X156442857Y-56378571D01*
X156300000Y-56450000D01*
X156228571Y-56521429D01*
X156157142Y-56664286D01*
X156085714Y-56950000D01*
X156085714Y-57307143D01*
X156157142Y-57592857D01*
X156228571Y-57735714D01*
X156300000Y-57807143D01*
X156442857Y-57878571D01*
X156585714Y-57878571D01*
X156728571Y-57807143D01*
X156800000Y-57735714D01*
X156871428Y-57592857D01*
X156942857Y-57307143D01*
X156942857Y-56950000D01*
X156871428Y-56664286D01*
X156800000Y-56521429D01*
X156728571Y-56450000D01*
X156585714Y-56378571D01*
X154657143Y-57878571D02*
X155514286Y-57878571D01*
X155085714Y-57878571D02*
X155085714Y-56378571D01*
X155228571Y-56592857D01*
X155371429Y-56735714D01*
X155514286Y-56807143D01*
X153371429Y-56378571D02*
X153657143Y-56378571D01*
X153800000Y-56450000D01*
X153871429Y-56521429D01*
X154014286Y-56735714D01*
X154085715Y-57021429D01*
X154085715Y-57592857D01*
X154014286Y-57735714D01*
X153942858Y-57807143D01*
X153800000Y-57878571D01*
X153514286Y-57878571D01*
X153371429Y-57807143D01*
X153300000Y-57735714D01*
X153228572Y-57592857D01*
X153228572Y-57235714D01*
X153300000Y-57092857D01*
X153371429Y-57021429D01*
X153514286Y-56950000D01*
X153800000Y-56950000D01*
X153942858Y-57021429D01*
X154014286Y-57092857D01*
X154085715Y-57235714D01*
X140821428Y-64250000D02*
X140964285Y-64178571D01*
X141178571Y-64178571D01*
X141392856Y-64250000D01*
X141535714Y-64392857D01*
X141607142Y-64535714D01*
X141678571Y-64821429D01*
X141678571Y-65035714D01*
X141607142Y-65321429D01*
X141535714Y-65464286D01*
X141392856Y-65607143D01*
X141178571Y-65678571D01*
X141035714Y-65678571D01*
X140821428Y-65607143D01*
X140749999Y-65535714D01*
X140749999Y-65035714D01*
X141035714Y-65035714D01*
X139821428Y-64964286D02*
X139821428Y-65678571D01*
X140321428Y-64178571D02*
X139821428Y-64964286D01*
X139321428Y-64178571D01*
X138821428Y-65107143D02*
X137678571Y-65107143D01*
X136249999Y-64178571D02*
X136964285Y-64178571D01*
X137035714Y-64892857D01*
X136964285Y-64821429D01*
X136821428Y-64750000D01*
X136464285Y-64750000D01*
X136321428Y-64821429D01*
X136249999Y-64892857D01*
X136178571Y-65035714D01*
X136178571Y-65392857D01*
X136249999Y-65535714D01*
X136321428Y-65607143D01*
X136464285Y-65678571D01*
X136821428Y-65678571D01*
X136964285Y-65607143D01*
X137035714Y-65535714D01*
X135607143Y-64321429D02*
X135535714Y-64250000D01*
X135392857Y-64178571D01*
X135035714Y-64178571D01*
X134892857Y-64250000D01*
X134821428Y-64321429D01*
X134750000Y-64464286D01*
X134750000Y-64607143D01*
X134821428Y-64821429D01*
X135678571Y-65678571D01*
X134750000Y-65678571D01*
X133321429Y-65678571D02*
X134178572Y-65678571D01*
X133750000Y-65678571D02*
X133750000Y-64178571D01*
X133892857Y-64392857D01*
X134035715Y-64535714D01*
X134178572Y-64607143D01*
X131035715Y-64892857D02*
X130821429Y-64964286D01*
X130750001Y-65035714D01*
X130678572Y-65178571D01*
X130678572Y-65392857D01*
X130750001Y-65535714D01*
X130821429Y-65607143D01*
X130964287Y-65678571D01*
X131535715Y-65678571D01*
X131535715Y-64178571D01*
X131035715Y-64178571D01*
X130892858Y-64250000D01*
X130821429Y-64321429D01*
X130750001Y-64464286D01*
X130750001Y-64607143D01*
X130821429Y-64750000D01*
X130892858Y-64821429D01*
X131035715Y-64892857D01*
X131535715Y-64892857D01*
X130035715Y-65678571D02*
X130035715Y-64678571D01*
X130035715Y-64964286D02*
X129964287Y-64821429D01*
X129892858Y-64750000D01*
X129750001Y-64678571D01*
X129607144Y-64678571D01*
X128535716Y-65607143D02*
X128678573Y-65678571D01*
X128964287Y-65678571D01*
X129107144Y-65607143D01*
X129178573Y-65464286D01*
X129178573Y-64892857D01*
X129107144Y-64750000D01*
X128964287Y-64678571D01*
X128678573Y-64678571D01*
X128535716Y-64750000D01*
X128464287Y-64892857D01*
X128464287Y-65035714D01*
X129178573Y-65178571D01*
X127178573Y-65678571D02*
X127178573Y-64892857D01*
X127250002Y-64750000D01*
X127392859Y-64678571D01*
X127678573Y-64678571D01*
X127821430Y-64750000D01*
X127178573Y-65607143D02*
X127321430Y-65678571D01*
X127678573Y-65678571D01*
X127821430Y-65607143D01*
X127892859Y-65464286D01*
X127892859Y-65321429D01*
X127821430Y-65178571D01*
X127678573Y-65107143D01*
X127321430Y-65107143D01*
X127178573Y-65035714D01*
X126464287Y-65678571D02*
X126464287Y-64178571D01*
X126321430Y-65107143D02*
X125892859Y-65678571D01*
X125892859Y-64678571D02*
X126464287Y-65250000D01*
X125035715Y-65678571D02*
X125178573Y-65607143D01*
X125250001Y-65535714D01*
X125321430Y-65392857D01*
X125321430Y-64964286D01*
X125250001Y-64821429D01*
X125178573Y-64750000D01*
X125035715Y-64678571D01*
X124821430Y-64678571D01*
X124678573Y-64750000D01*
X124607144Y-64821429D01*
X124535715Y-64964286D01*
X124535715Y-65392857D01*
X124607144Y-65535714D01*
X124678573Y-65607143D01*
X124821430Y-65678571D01*
X125035715Y-65678571D01*
X123250001Y-64678571D02*
X123250001Y-65678571D01*
X123892858Y-64678571D02*
X123892858Y-65464286D01*
X123821430Y-65607143D01*
X123678572Y-65678571D01*
X123464287Y-65678571D01*
X123321430Y-65607143D01*
X123250001Y-65535714D01*
X122750001Y-64678571D02*
X122178572Y-64678571D01*
X122535715Y-64178571D02*
X122535715Y-65464286D01*
X122464287Y-65607143D01*
X122321429Y-65678571D01*
X122178572Y-65678571D01*
D10*
X94000000Y-68000000D02*
X94000000Y-43000000D01*
X175000000Y-68000000D02*
X94000000Y-68000000D01*
X175000000Y-43000000D02*
X175000000Y-68000000D01*
X94000000Y-43000000D02*
X175000000Y-43000000D01*
D12*
X121800000Y-63500000D02*
X142300000Y-63500000D01*
X121800000Y-47800000D02*
X121800000Y-63500000D01*
X142300000Y-47800000D02*
X142300000Y-63500000D01*
X121800000Y-47800000D02*
X142300000Y-47800000D01*
D13*
X125050000Y-56300000D02*
X125050000Y-57300000D01*
X123350000Y-57300000D02*
X123350000Y-56300000D01*
X128650000Y-56300000D02*
X128650000Y-57300000D01*
X126950000Y-57300000D02*
X126950000Y-56300000D01*
X107450000Y-50100000D02*
X107450000Y-51100000D01*
X105750000Y-51100000D02*
X105750000Y-50100000D01*
X116200000Y-48325000D02*
X115000000Y-48325000D01*
X115000000Y-50075000D02*
X116200000Y-50075000D01*
X135362437Y-57574953D02*
X135362437Y-56374953D01*
X133612437Y-56374953D02*
X133612437Y-57574953D01*
X141362437Y-57574953D02*
X141362437Y-56374953D01*
X139612437Y-56374953D02*
X139612437Y-57574953D01*
X116400000Y-61725000D02*
X115200000Y-61725000D01*
X115200000Y-63475000D02*
X116400000Y-63475000D01*
X124366666Y-60757143D02*
X124414285Y-60804762D01*
X124557142Y-60852381D01*
X124652380Y-60852381D01*
X124795238Y-60804762D01*
X124890476Y-60709524D01*
X124938095Y-60614286D01*
X124985714Y-60423810D01*
X124985714Y-60280952D01*
X124938095Y-60090476D01*
X124890476Y-59995238D01*
X124795238Y-59900000D01*
X124652380Y-59852381D01*
X124557142Y-59852381D01*
X124414285Y-59900000D01*
X124366666Y-59947619D01*
X123414285Y-60852381D02*
X123985714Y-60852381D01*
X123700000Y-60852381D02*
X123700000Y-59852381D01*
X123795238Y-59995238D01*
X123890476Y-60090476D01*
X123985714Y-60138095D01*
X127966666Y-60757143D02*
X128014285Y-60804762D01*
X128157142Y-60852381D01*
X128252380Y-60852381D01*
X128395238Y-60804762D01*
X128490476Y-60709524D01*
X128538095Y-60614286D01*
X128585714Y-60423810D01*
X128585714Y-60280952D01*
X128538095Y-60090476D01*
X128490476Y-59995238D01*
X128395238Y-59900000D01*
X128252380Y-59852381D01*
X128157142Y-59852381D01*
X128014285Y-59900000D01*
X127966666Y-59947619D01*
X127585714Y-59947619D02*
X127538095Y-59900000D01*
X127442857Y-59852381D01*
X127204761Y-59852381D01*
X127109523Y-59900000D01*
X127061904Y-59947619D01*
X127014285Y-60042857D01*
X127014285Y-60138095D01*
X127061904Y-60280952D01*
X127633333Y-60852381D01*
X127014285Y-60852381D01*
X107442857Y-54357143D02*
X107490476Y-54404762D01*
X107633333Y-54452381D01*
X107728571Y-54452381D01*
X107871429Y-54404762D01*
X107966667Y-54309524D01*
X108014286Y-54214286D01*
X108061905Y-54023810D01*
X108061905Y-53880952D01*
X108014286Y-53690476D01*
X107966667Y-53595238D01*
X107871429Y-53500000D01*
X107728571Y-53452381D01*
X107633333Y-53452381D01*
X107490476Y-53500000D01*
X107442857Y-53547619D01*
X106490476Y-54452381D02*
X107061905Y-54452381D01*
X106776191Y-54452381D02*
X106776191Y-53452381D01*
X106871429Y-53595238D01*
X106966667Y-53690476D01*
X107061905Y-53738095D01*
X105871429Y-53452381D02*
X105776190Y-53452381D01*
X105680952Y-53500000D01*
X105633333Y-53547619D01*
X105585714Y-53642857D01*
X105538095Y-53833333D01*
X105538095Y-54071429D01*
X105585714Y-54261905D01*
X105633333Y-54357143D01*
X105680952Y-54404762D01*
X105776190Y-54452381D01*
X105871429Y-54452381D01*
X105966667Y-54404762D01*
X106014286Y-54357143D01*
X106061905Y-54261905D01*
X106109524Y-54071429D01*
X106109524Y-53833333D01*
X106061905Y-53642857D01*
X106014286Y-53547619D01*
X105966667Y-53500000D01*
X105871429Y-53452381D01*
X115766666Y-51652381D02*
X116100000Y-51176190D01*
X116338095Y-51652381D02*
X116338095Y-50652381D01*
X115957142Y-50652381D01*
X115861904Y-50700000D01*
X115814285Y-50747619D01*
X115766666Y-50842857D01*
X115766666Y-50985714D01*
X115814285Y-51080952D01*
X115861904Y-51128571D01*
X115957142Y-51176190D01*
X116338095Y-51176190D01*
X114814285Y-51652381D02*
X115385714Y-51652381D01*
X115100000Y-51652381D02*
X115100000Y-50652381D01*
X115195238Y-50795238D01*
X115290476Y-50890476D01*
X115385714Y-50938095D01*
X134566666Y-60852381D02*
X134900000Y-60376190D01*
X135138095Y-60852381D02*
X135138095Y-59852381D01*
X134757142Y-59852381D01*
X134661904Y-59900000D01*
X134614285Y-59947619D01*
X134566666Y-60042857D01*
X134566666Y-60185714D01*
X134614285Y-60280952D01*
X134661904Y-60328571D01*
X134757142Y-60376190D01*
X135138095Y-60376190D01*
X134185714Y-59947619D02*
X134138095Y-59900000D01*
X134042857Y-59852381D01*
X133804761Y-59852381D01*
X133709523Y-59900000D01*
X133661904Y-59947619D01*
X133614285Y-60042857D01*
X133614285Y-60138095D01*
X133661904Y-60280952D01*
X134233333Y-60852381D01*
X133614285Y-60852381D01*
X140766666Y-60852381D02*
X141100000Y-60376190D01*
X141338095Y-60852381D02*
X141338095Y-59852381D01*
X140957142Y-59852381D01*
X140861904Y-59900000D01*
X140814285Y-59947619D01*
X140766666Y-60042857D01*
X140766666Y-60185714D01*
X140814285Y-60280952D01*
X140861904Y-60328571D01*
X140957142Y-60376190D01*
X141338095Y-60376190D01*
X140433333Y-59852381D02*
X139814285Y-59852381D01*
X140147619Y-60233333D01*
X140004761Y-60233333D01*
X139909523Y-60280952D01*
X139861904Y-60328571D01*
X139814285Y-60423810D01*
X139814285Y-60661905D01*
X139861904Y-60757143D01*
X139909523Y-60804762D01*
X140004761Y-60852381D01*
X140290476Y-60852381D01*
X140385714Y-60804762D01*
X140433333Y-60757143D01*
X115966666Y-65152381D02*
X116300000Y-64676190D01*
X116538095Y-65152381D02*
X116538095Y-64152381D01*
X116157142Y-64152381D01*
X116061904Y-64200000D01*
X116014285Y-64247619D01*
X115966666Y-64342857D01*
X115966666Y-64485714D01*
X116014285Y-64580952D01*
X116061904Y-64628571D01*
X116157142Y-64676190D01*
X116538095Y-64676190D01*
X115633333Y-64152381D02*
X114966666Y-64152381D01*
X115395238Y-65152381D01*
M02*
